<svg width="428" height="255" viewBox="0 0 428 255" fill="none" xmlns="http://www.w3.org/2000/svg">
<path d="M133.44 46V31.1H136.16V38.86L135.42 38.6L141.76 31.1H145.18L139.24 38.14L139.4 36.22L145.36 46H142.16L138.16 39.44L136.16 41.82V46H133.44ZM150.924 46.24C149.857 46.24 148.884 45.9933 148.004 45.5C147.137 45.0067 146.444 44.3333 145.924 43.48C145.417 42.6267 145.164 41.6533 145.164 40.56C145.164 39.4667 145.417 38.4933 145.924 37.64C146.444 36.7867 147.137 36.1133 148.004 35.62C148.87 35.1267 149.844 34.88 150.924 34.88C151.99 34.88 152.957 35.1267 153.824 35.62C154.69 36.1133 155.377 36.7867 155.884 37.64C156.404 38.48 156.664 39.4533 156.664 40.56C156.664 41.6533 156.404 42.6267 155.884 43.48C155.364 44.3333 154.67 45.0067 153.804 45.5C152.937 45.9933 151.977 46.24 150.924 46.24ZM150.924 43.84C151.51 43.84 152.024 43.7 152.464 43.42C152.917 43.14 153.27 42.7533 153.524 42.26C153.79 41.7533 153.924 41.1867 153.924 40.56C153.924 39.92 153.79 39.36 153.524 38.88C153.27 38.3867 152.917 38 152.464 37.72C152.024 37.4267 151.51 37.28 150.924 37.28C150.324 37.28 149.797 37.4267 149.344 37.72C148.89 38 148.53 38.3867 148.264 38.88C148.01 39.36 147.884 39.92 147.884 40.56C147.884 41.1867 148.01 41.7533 148.264 42.26C148.53 42.7533 148.89 43.14 149.344 43.42C149.797 43.7 150.324 43.84 150.924 43.84ZM157.85 46V35.12H160.31V37.26L160.11 36.88C160.364 36.2267 160.777 35.7333 161.35 35.4C161.937 35.0533 162.617 34.88 163.39 34.88C164.19 34.88 164.897 35.0533 165.51 35.4C166.137 35.7467 166.624 36.2333 166.97 36.86C167.317 37.4733 167.49 38.1867 167.49 39V46H164.87V39.62C164.87 39.14 164.777 38.7267 164.59 38.38C164.404 38.0333 164.144 37.7667 163.81 37.58C163.49 37.38 163.11 37.28 162.67 37.28C162.244 37.28 161.864 37.38 161.53 37.58C161.197 37.7667 160.937 38.0333 160.75 38.38C160.564 38.7267 160.47 39.14 160.47 39.62V46H157.85ZM173.046 46.24C171.886 46.24 170.873 45.9667 170.006 45.42C169.153 44.86 168.566 44.1067 168.246 43.16L170.206 42.22C170.486 42.8333 170.873 43.3133 171.366 43.66C171.873 44.0067 172.433 44.18 173.046 44.18C173.526 44.18 173.906 44.0733 174.186 43.86C174.466 43.6467 174.606 43.3667 174.606 43.02C174.606 42.8067 174.546 42.6333 174.426 42.5C174.319 42.3533 174.166 42.2333 173.966 42.14C173.779 42.0333 173.573 41.9467 173.346 41.88L171.566 41.38C170.646 41.1133 169.946 40.7067 169.466 40.16C168.999 39.6133 168.766 38.9667 168.766 38.22C168.766 37.5533 168.933 36.9733 169.266 36.48C169.613 35.9733 170.086 35.58 170.686 35.3C171.299 35.02 171.999 34.88 172.786 34.88C173.813 34.88 174.719 35.1267 175.506 35.62C176.293 36.1133 176.853 36.8067 177.186 37.7L175.186 38.64C174.999 38.1467 174.686 37.7533 174.246 37.46C173.806 37.1667 173.313 37.02 172.766 37.02C172.326 37.02 171.979 37.12 171.726 37.32C171.473 37.52 171.346 37.78 171.346 38.1C171.346 38.3 171.399 38.4733 171.506 38.62C171.613 38.7667 171.759 38.8867 171.946 38.98C172.146 39.0733 172.373 39.16 172.626 39.24L174.366 39.76C175.259 40.0267 175.946 40.4267 176.426 40.96C176.919 41.4933 177.166 42.1467 177.166 42.92C177.166 43.5733 176.993 44.1533 176.646 44.66C176.299 45.1533 175.819 45.54 175.206 45.82C174.593 46.1 173.873 46.24 173.046 46.24ZM182.259 46.24C181.419 46.24 180.686 46.0533 180.059 45.68C179.446 45.3067 178.973 44.7867 178.639 44.12C178.319 43.4533 178.159 42.6733 178.159 41.78V35.12H180.779V41.56C180.779 42.0133 180.866 42.4133 181.039 42.76C181.226 43.0933 181.486 43.36 181.819 43.56C182.166 43.7467 182.553 43.84 182.979 43.84C183.406 43.84 183.786 43.7467 184.119 43.56C184.453 43.36 184.713 43.0867 184.899 42.74C185.086 42.3933 185.179 41.98 185.179 41.5V35.12H187.799V46H185.319V43.86L185.539 44.24C185.286 44.9067 184.866 45.4067 184.279 45.74C183.706 46.0733 183.033 46.24 182.259 46.24ZM189.435 46V35.12H191.895V37.64L191.615 37.22C191.815 36.4333 192.215 35.8467 192.815 35.46C193.415 35.0733 194.122 34.88 194.935 34.88C195.828 34.88 196.615 35.1133 197.295 35.58C197.975 36.0467 198.415 36.66 198.615 37.42L197.875 37.48C198.208 36.6133 198.708 35.9667 199.375 35.54C200.042 35.1 200.808 34.88 201.675 34.88C202.448 34.88 203.135 35.0533 203.735 35.4C204.348 35.7467 204.828 36.2333 205.175 36.86C205.522 37.4733 205.695 38.1867 205.695 39V46H203.075V39.62C203.075 39.14 202.988 38.7267 202.815 38.38C202.642 38.0333 202.402 37.7667 202.095 37.58C201.788 37.38 201.415 37.28 200.975 37.28C200.562 37.28 200.195 37.38 199.875 37.58C199.555 37.7667 199.308 38.0333 199.135 38.38C198.962 38.7267 198.875 39.14 198.875 39.62V46H196.255V39.62C196.255 39.14 196.168 38.7267 195.995 38.38C195.822 38.0333 195.575 37.7667 195.255 37.58C194.948 37.38 194.582 37.28 194.155 37.28C193.742 37.28 193.375 37.38 193.055 37.58C192.735 37.7667 192.488 38.0333 192.315 38.38C192.142 38.7267 192.055 39.14 192.055 39.62V46H189.435ZM211.251 46.24C210.091 46.24 209.078 45.9667 208.211 45.42C207.358 44.86 206.771 44.1067 206.451 43.16L208.411 42.22C208.691 42.8333 209.078 43.3133 209.571 43.66C210.078 44.0067 210.638 44.18 211.251 44.18C211.731 44.18 212.111 44.0733 212.391 43.86C212.671 43.6467 212.811 43.3667 212.811 43.02C212.811 42.8067 212.751 42.6333 212.631 42.5C212.525 42.3533 212.371 42.2333 212.171 42.14C211.985 42.0333 211.778 41.9467 211.551 41.88L209.771 41.38C208.851 41.1133 208.151 40.7067 207.671 40.16C207.205 39.6133 206.971 38.9667 206.971 38.22C206.971 37.5533 207.138 36.9733 207.471 36.48C207.818 35.9733 208.291 35.58 208.891 35.3C209.505 35.02 210.205 34.88 210.991 34.88C212.018 34.88 212.925 35.1267 213.711 35.62C214.498 36.1133 215.058 36.8067 215.391 37.7L213.391 38.64C213.205 38.1467 212.891 37.7533 212.451 37.46C212.011 37.1667 211.518 37.02 210.971 37.02C210.531 37.02 210.185 37.12 209.931 37.32C209.678 37.52 209.551 37.78 209.551 38.1C209.551 38.3 209.605 38.4733 209.711 38.62C209.818 38.7667 209.965 38.8867 210.151 38.98C210.351 39.0733 210.578 39.16 210.831 39.24L212.571 39.76C213.465 40.0267 214.151 40.4267 214.631 40.96C215.125 41.4933 215.371 42.1467 215.371 42.92C215.371 43.5733 215.198 44.1533 214.851 44.66C214.505 45.1533 214.025 45.54 213.411 45.82C212.798 46.1 212.078 46.24 211.251 46.24ZM216.585 46V35.12H219.205V46H216.585ZM216.585 33.9V31.1H219.205V33.9H216.585ZM223.799 46V31.1H230.079C231.065 31.1 231.905 31.2733 232.599 31.62C233.305 31.9533 233.845 32.4333 234.219 33.06C234.605 33.6733 234.799 34.42 234.799 35.3C234.799 35.98 234.612 36.62 234.239 37.22C233.879 37.8067 233.299 38.2933 232.499 38.68V37.42C233.232 37.7 233.812 38.0467 234.239 38.46C234.665 38.8733 234.965 39.3333 235.139 39.84C235.312 40.3467 235.399 40.88 235.399 41.44C235.399 42.8667 234.925 43.9867 233.979 44.8C233.045 45.6 231.745 46 230.079 46H223.799ZM226.519 43.6H230.359C231.065 43.6 231.625 43.4067 232.039 43.02C232.465 42.62 232.679 42.0933 232.679 41.44C232.679 40.7867 232.465 40.26 232.039 39.86C231.625 39.46 231.065 39.26 230.359 39.26H226.519V43.6ZM226.519 36.88H230.219C230.779 36.88 231.225 36.72 231.559 36.4C231.892 36.0667 232.059 35.64 232.059 35.12C232.059 34.6 231.892 34.1867 231.559 33.88C231.225 33.5733 230.779 33.42 230.219 33.42H226.519V36.88ZM240.487 46.24C239.647 46.24 238.913 46.0533 238.287 45.68C237.673 45.3067 237.2 44.7867 236.867 44.12C236.547 43.4533 236.387 42.6733 236.387 41.78V35.12H239.007V41.56C239.007 42.0133 239.093 42.4133 239.267 42.76C239.453 43.0933 239.713 43.36 240.047 43.56C240.393 43.7467 240.78 43.84 241.207 43.84C241.633 43.84 242.013 43.7467 242.347 43.56C242.68 43.36 242.94 43.0867 243.127 42.74C243.313 42.3933 243.407 41.98 243.407 41.5V35.12H246.027V46H243.547V43.86L243.767 44.24C243.513 44.9067 243.093 45.4067 242.507 45.74C241.933 46.0733 241.26 46.24 240.487 46.24ZM247.662 46V30.86H250.282V46H247.662ZM255.201 46.24C254.441 46.24 253.781 46.1133 253.221 45.86C252.661 45.6067 252.228 45.2467 251.921 44.78C251.615 44.3 251.461 43.7467 251.461 43.12C251.461 42.52 251.595 41.9867 251.861 41.52C252.128 41.04 252.541 40.64 253.101 40.32C253.661 40 254.368 39.7733 255.221 39.64L258.781 39.06V41.06L255.721 41.58C255.201 41.6733 254.815 41.84 254.561 42.08C254.308 42.32 254.181 42.6333 254.181 43.02C254.181 43.3933 254.321 43.6933 254.601 43.92C254.895 44.1333 255.255 44.24 255.681 44.24C256.228 44.24 256.708 44.1267 257.121 43.9C257.548 43.66 257.875 43.3333 258.101 42.92C258.341 42.5067 258.461 42.0533 258.461 41.56V38.76C258.461 38.2933 258.275 37.9067 257.901 37.6C257.541 37.28 257.061 37.12 256.461 37.12C255.901 37.12 255.401 37.2733 254.961 37.58C254.535 37.8733 254.221 38.2667 254.021 38.76L251.881 37.72C252.095 37.1467 252.428 36.6533 252.881 36.24C253.348 35.8133 253.895 35.48 254.521 35.24C255.148 35 255.828 34.88 256.561 34.88C257.455 34.88 258.241 35.0467 258.921 35.38C259.601 35.7 260.128 36.1533 260.501 36.74C260.888 37.3133 261.081 37.9867 261.081 38.76V46H258.601V44.14L259.161 44.1C258.881 44.5667 258.548 44.96 258.161 45.28C257.775 45.5867 257.335 45.8267 256.841 46C256.348 46.16 255.801 46.24 255.201 46.24ZM262.703 46V35.12H265.163V37.26L264.963 36.88C265.216 36.2267 265.629 35.7333 266.203 35.4C266.789 35.0533 267.469 34.88 268.243 34.88C269.043 34.88 269.749 35.0533 270.363 35.4C270.989 35.7467 271.476 36.2333 271.823 36.86C272.169 37.4733 272.343 38.1867 272.343 39V46H269.723V39.62C269.723 39.14 269.629 38.7267 269.443 38.38C269.256 38.0333 268.996 37.7667 268.663 37.58C268.343 37.38 267.963 37.28 267.523 37.28C267.096 37.28 266.716 37.38 266.383 37.58C266.049 37.7667 265.789 38.0333 265.603 38.38C265.416 38.7267 265.323 39.14 265.323 39.62V46H262.703ZM277.058 46.24C276.298 46.24 275.638 46.1133 275.078 45.86C274.518 45.6067 274.085 45.2467 273.778 44.78C273.472 44.3 273.318 43.7467 273.318 43.12C273.318 42.52 273.452 41.9867 273.718 41.52C273.985 41.04 274.398 40.64 274.958 40.32C275.518 40 276.225 39.7733 277.078 39.64L280.638 39.06V41.06L277.578 41.58C277.058 41.6733 276.672 41.84 276.418 42.08C276.165 42.32 276.038 42.6333 276.038 43.02C276.038 43.3933 276.178 43.6933 276.458 43.92C276.752 44.1333 277.112 44.24 277.538 44.24C278.085 44.24 278.565 44.1267 278.978 43.9C279.405 43.66 279.732 43.3333 279.958 42.92C280.198 42.5067 280.318 42.0533 280.318 41.56V38.76C280.318 38.2933 280.132 37.9067 279.758 37.6C279.398 37.28 278.918 37.12 278.318 37.12C277.758 37.12 277.258 37.2733 276.818 37.58C276.392 37.8733 276.078 38.2667 275.878 38.76L273.738 37.72C273.952 37.1467 274.285 36.6533 274.738 36.24C275.205 35.8133 275.752 35.48 276.378 35.24C277.005 35 277.685 34.88 278.418 34.88C279.312 34.88 280.098 35.0467 280.778 35.38C281.458 35.7 281.985 36.1533 282.358 36.74C282.745 37.3133 282.938 37.9867 282.938 38.76V46H280.458V44.14L281.018 44.1C280.738 44.5667 280.405 44.96 280.018 45.28C279.632 45.5867 279.192 45.8267 278.698 46C278.205 46.16 277.658 46.24 277.058 46.24ZM284.56 46V35.12H287.02V37.26L286.82 36.88C287.073 36.2267 287.487 35.7333 288.06 35.4C288.647 35.0533 289.327 34.88 290.1 34.88C290.9 34.88 291.607 35.0533 292.22 35.4C292.847 35.7467 293.333 36.2333 293.68 36.86C294.027 37.4733 294.2 38.1867 294.2 39V46H291.58V39.62C291.58 39.14 291.487 38.7267 291.3 38.38C291.113 38.0333 290.853 37.7667 290.52 37.58C290.2 37.38 289.82 37.28 289.38 37.28C288.953 37.28 288.573 37.38 288.24 37.58C287.907 37.7667 287.647 38.0333 287.46 38.38C287.273 38.7267 287.18 39.14 287.18 39.62V46H284.56Z" fill="#1A1F40" fill-opacity="0.7"/>
<path d="M42.2031 113C42.2031 108.582 45.7848 105 50.2031 105H84.2031C88.6214 105 92.2031 108.582 92.2031 113V140H42.2031V113Z" fill="#747480" fill-opacity="0.08"/>
<path d="M58.504 161V159.96H59.024C59.5094 159.96 59.8907 159.817 60.168 159.531C60.4454 159.236 60.584 158.838 60.584 158.335V151.315H61.624V158.335C61.624 158.881 61.5157 159.353 61.299 159.752C61.091 160.151 60.792 160.458 60.402 160.675C60.012 160.892 59.5527 161 59.024 161H58.504ZM65.2616 161.156C64.8196 161.156 64.4253 161.074 64.0786 160.909C63.7319 160.736 63.4589 160.502 63.2596 160.207C63.0603 159.912 62.9606 159.574 62.9606 159.193C62.9606 158.829 63.0386 158.5 63.1946 158.205C63.3506 157.902 63.5933 157.646 63.9226 157.438C64.2519 157.23 64.6723 157.083 65.1836 156.996L67.9136 156.541V157.425L65.4176 157.841C64.9149 157.928 64.5509 158.088 64.3256 158.322C64.1089 158.556 64.0006 158.833 64.0006 159.154C64.0006 159.466 64.1219 159.73 64.3646 159.947C64.6159 160.164 64.9366 160.272 65.3266 160.272C65.8033 160.272 66.2193 160.172 66.5746 159.973C66.9299 159.765 67.2073 159.488 67.4066 159.141C67.6059 158.794 67.7056 158.409 67.7056 157.984V156.216C67.7056 155.8 67.5539 155.462 67.2506 155.202C66.9473 154.942 66.5529 154.812 66.0676 154.812C65.6429 154.812 65.2703 154.92 64.9496 155.137C64.6289 155.345 64.3906 155.618 64.2346 155.956L63.3506 155.475C63.4806 155.18 63.6843 154.912 63.9616 154.669C64.2476 154.426 64.5726 154.236 64.9366 154.097C65.3006 153.95 65.6776 153.876 66.0676 153.876C66.5789 153.876 67.0296 153.976 67.4196 154.175C67.8183 154.374 68.1259 154.652 68.3426 155.007C68.5679 155.354 68.6806 155.757 68.6806 156.216V161H67.7056V159.609L67.8486 159.752C67.7273 160.012 67.5366 160.25 67.2766 160.467C67.0253 160.675 66.7263 160.844 66.3796 160.974C66.0416 161.095 65.6689 161.156 65.2616 161.156ZM70.1661 161V154.032H71.1411V155.384L70.9201 155.332C71.0934 154.881 71.3751 154.526 71.7651 154.266C72.1637 154.006 72.6231 153.876 73.1431 153.876C73.6371 153.876 74.0791 153.989 74.4691 154.214C74.8677 154.439 75.1797 154.751 75.4051 155.15C75.6391 155.54 75.7561 155.982 75.7561 156.476V161H74.7811V156.853C74.7811 156.428 74.7031 156.069 74.5471 155.774C74.3997 155.479 74.1874 155.254 73.9101 155.098C73.6414 154.933 73.3294 154.851 72.9741 154.851C72.6187 154.851 72.3024 154.933 72.0251 155.098C71.7477 155.254 71.5311 155.484 71.3751 155.787C71.2191 156.082 71.1411 156.437 71.1411 156.853V161H70.1661Z" fill="#94A3B8"/>
<path d="M96.2031 106C96.2031 101.582 99.7848 98 104.203 98H138.203C142.621 98 146.203 101.582 146.203 106V140H96.2031V106Z" fill="#747480" fill-opacity="0.08"/>
<path d="M110.883 161V151.315H116.863V152.29H111.923V155.657H116.473V156.632H111.923V161H110.883ZM120.692 161.156C120.042 161.156 119.452 161 118.924 160.688C118.404 160.367 117.992 159.93 117.689 159.375C117.385 158.82 117.234 158.192 117.234 157.49C117.234 156.788 117.381 156.168 117.676 155.631C117.97 155.085 118.369 154.656 118.872 154.344C119.383 154.032 119.955 153.876 120.588 153.876C121.09 153.876 121.537 153.971 121.927 154.162C122.325 154.344 122.663 154.595 122.941 154.916C123.218 155.228 123.43 155.583 123.578 155.982C123.725 156.372 123.799 156.775 123.799 157.191C123.799 157.278 123.794 157.377 123.786 157.49C123.777 157.594 123.764 157.702 123.747 157.815H117.858V156.905H123.188L122.72 157.295C122.798 156.818 122.741 156.394 122.551 156.021C122.369 155.64 122.104 155.341 121.758 155.124C121.411 154.899 121.021 154.786 120.588 154.786C120.154 154.786 119.751 154.899 119.379 155.124C119.015 155.349 118.729 155.666 118.521 156.073C118.313 156.472 118.23 156.948 118.274 157.503C118.23 158.058 118.317 158.543 118.534 158.959C118.759 159.366 119.062 159.683 119.444 159.908C119.834 160.133 120.25 160.246 120.692 160.246C121.203 160.246 121.632 160.125 121.979 159.882C122.325 159.639 122.607 159.336 122.824 158.972L123.656 159.414C123.517 159.726 123.305 160.016 123.019 160.285C122.733 160.545 122.39 160.757 121.992 160.922C121.602 161.078 121.168 161.156 120.692 161.156ZM128.521 161.156C127.923 161.156 127.381 161.022 126.896 160.753C126.419 160.476 126.059 160.086 125.817 159.583L125.973 159.44V161H124.998V151.159H125.973V155.592L125.817 155.319C126.094 154.877 126.462 154.526 126.922 154.266C127.39 154.006 127.923 153.876 128.521 153.876C129.179 153.876 129.764 154.036 130.276 154.357C130.796 154.669 131.203 155.098 131.498 155.644C131.801 156.19 131.953 156.814 131.953 157.516C131.953 158.209 131.801 158.833 131.498 159.388C131.203 159.934 130.796 160.367 130.276 160.688C129.764 161 129.179 161.156 128.521 161.156ZM128.469 160.181C128.937 160.181 129.353 160.064 129.717 159.83C130.089 159.596 130.38 159.28 130.588 158.881C130.804 158.474 130.913 158.019 130.913 157.516C130.913 157.005 130.804 156.55 130.588 156.151C130.38 155.752 130.089 155.436 129.717 155.202C129.353 154.968 128.937 154.851 128.469 154.851C128.001 154.851 127.576 154.968 127.195 155.202C126.822 155.436 126.523 155.757 126.298 156.164C126.081 156.563 125.973 157.013 125.973 157.516C125.973 158.019 126.081 158.474 126.298 158.881C126.523 159.28 126.822 159.596 127.195 159.83C127.576 160.064 128.001 160.181 128.469 160.181Z" fill="#94A3B8"/>
<path d="M150.203 110C150.203 105.582 153.785 102 158.203 102H192.402C196.821 102 200.402 105.582 200.402 110V140H150.203V110Z" fill="#747480" fill-opacity="0.08"/>
<path d="M165.617 161V151.315H166.527L170.167 156.593H169.66L173.287 151.315H174.197V161H173.157V152.719L173.495 152.849L169.933 158.01H169.881L166.332 152.849L166.657 152.719V161H165.617ZM177.836 161.156C177.394 161.156 177 161.074 176.653 160.909C176.307 160.736 176.034 160.502 175.834 160.207C175.635 159.912 175.535 159.574 175.535 159.193C175.535 158.829 175.613 158.5 175.769 158.205C175.925 157.902 176.168 157.646 176.497 157.438C176.827 157.23 177.247 157.083 177.758 156.996L180.488 156.541V157.425L177.992 157.841C177.49 157.928 177.126 158.088 176.9 158.322C176.684 158.556 176.575 158.833 176.575 159.154C176.575 159.466 176.697 159.73 176.939 159.947C177.191 160.164 177.511 160.272 177.901 160.272C178.378 160.272 178.794 160.172 179.149 159.973C179.505 159.765 179.782 159.488 179.981 159.141C180.181 158.794 180.28 158.409 180.28 157.984V156.216C180.28 155.8 180.129 155.462 179.825 155.202C179.522 154.942 179.128 154.812 178.642 154.812C178.218 154.812 177.845 154.92 177.524 155.137C177.204 155.345 176.965 155.618 176.809 155.956L175.925 155.475C176.055 155.18 176.259 154.912 176.536 154.669C176.822 154.426 177.147 154.236 177.511 154.097C177.875 153.95 178.252 153.876 178.642 153.876C179.154 153.876 179.604 153.976 179.994 154.175C180.393 154.374 180.701 154.652 180.917 155.007C181.143 155.354 181.255 155.757 181.255 156.216V161H180.28V159.609L180.423 159.752C180.302 160.012 180.111 160.25 179.851 160.467C179.6 160.675 179.301 160.844 178.954 160.974C178.616 161.095 178.244 161.156 177.836 161.156ZM182.741 161V154.032H183.716V155.176L183.586 155.007C183.75 154.678 183.997 154.418 184.327 154.227C184.665 154.036 185.072 153.941 185.549 153.941H185.991V154.916H185.38C184.877 154.916 184.474 155.072 184.171 155.384C183.867 155.696 183.716 156.138 183.716 156.71V161H182.741Z" fill="#94A3B8"/>
<path d="M204.402 96C204.402 91.5817 207.984 88 212.402 88H249.801C254.219 88 257.801 91.5817 257.801 96V140H204.402V96Z" fill="#747480" fill-opacity="0.08"/>
<path d="M220.993 161L224.529 151.315H225.647L229.183 161H228.091L227.259 158.634H222.93L222.085 161H220.993ZM223.268 157.659H226.895L224.932 152.095H225.244L223.268 157.659ZM229.811 163.6V154.032H230.786V155.592L230.63 155.319C230.907 154.877 231.276 154.526 231.735 154.266C232.203 154.006 232.736 153.876 233.334 153.876C233.993 153.876 234.578 154.036 235.089 154.357C235.609 154.669 236.016 155.098 236.311 155.644C236.614 156.19 236.766 156.814 236.766 157.516C236.766 158.209 236.614 158.833 236.311 159.388C236.016 159.934 235.609 160.367 235.089 160.688C234.578 161 233.993 161.156 233.334 161.156C232.736 161.156 232.194 161.022 231.709 160.753C231.232 160.476 230.873 160.086 230.63 159.583L230.786 159.44V163.6H229.811ZM233.282 160.181C233.75 160.181 234.166 160.064 234.53 159.83C234.903 159.596 235.193 159.28 235.401 158.881C235.618 158.474 235.726 158.019 235.726 157.516C235.726 157.005 235.618 156.55 235.401 156.151C235.193 155.752 234.903 155.436 234.53 155.202C234.166 154.968 233.75 154.851 233.282 154.851C232.814 154.851 232.389 154.968 232.008 155.202C231.635 155.436 231.336 155.757 231.111 156.164C230.894 156.563 230.786 157.013 230.786 157.516C230.786 158.019 230.894 158.474 231.111 158.881C231.336 159.28 231.635 159.596 232.008 159.83C232.389 160.064 232.814 160.181 233.282 160.181ZM237.962 161V154.032H238.937V155.176L238.807 155.007C238.972 154.678 239.219 154.418 239.548 154.227C239.886 154.036 240.293 153.941 240.77 153.941H241.212V154.916H240.601C240.098 154.916 239.695 155.072 239.392 155.384C239.089 155.696 238.937 156.138 238.937 156.71V161H237.962Z" fill="#94A3B8"/>
<path d="M261.801 118C261.801 113.582 265.383 110 269.801 110H310.799C315.217 110 318.799 113.582 318.799 118V140H261.801V118Z" fill="#747480" fill-opacity="0.08"/>
<path d="M281.046 161V151.315H281.956L285.596 156.593H285.089L288.716 151.315H289.626V161H288.586V152.719L288.924 152.849L285.362 158.01H285.31L281.761 152.849L282.086 152.719V161H281.046ZM294.422 161.156C293.772 161.156 293.183 161 292.654 160.688C292.134 160.367 291.722 159.93 291.419 159.375C291.116 158.82 290.964 158.192 290.964 157.49C290.964 156.788 291.111 156.168 291.406 155.631C291.701 155.085 292.099 154.656 292.602 154.344C293.113 154.032 293.685 153.876 294.318 153.876C294.821 153.876 295.267 153.971 295.657 154.162C296.056 154.344 296.394 154.595 296.671 154.916C296.948 155.228 297.161 155.583 297.308 155.982C297.455 156.372 297.529 156.775 297.529 157.191C297.529 157.278 297.525 157.377 297.516 157.49C297.507 157.594 297.494 157.702 297.477 157.815H291.588V156.905H296.918L296.45 157.295C296.528 156.818 296.472 156.394 296.281 156.021C296.099 155.64 295.835 155.341 295.488 155.124C295.141 154.899 294.751 154.786 294.318 154.786C293.885 154.786 293.482 154.899 293.109 155.124C292.745 155.349 292.459 155.666 292.251 156.073C292.043 156.472 291.961 156.948 292.004 157.503C291.961 158.058 292.047 158.543 292.264 158.959C292.489 159.366 292.793 159.683 293.174 159.908C293.564 160.133 293.98 160.246 294.422 160.246C294.933 160.246 295.362 160.125 295.709 159.882C296.056 159.639 296.337 159.336 296.554 158.972L297.386 159.414C297.247 159.726 297.035 160.016 296.749 160.285C296.463 160.545 296.121 160.757 295.722 160.922C295.332 161.078 294.899 161.156 294.422 161.156ZM298.728 161V154.032H299.703V161H298.728ZM298.728 152.745V151.315H299.703V152.745H298.728Z" fill="#94A3B8"/>
<path d="M322.799 124C322.799 119.582 326.381 116 330.799 116H377.797C382.215 116 385.797 119.582 385.797 124V140H322.799V124Z" fill="#6282ED"/>
<path d="M345.592 161V159.96H346.112C346.598 159.96 346.979 159.817 347.256 159.531C347.534 159.236 347.672 158.838 347.672 158.335V151.315H348.712V158.335C348.712 158.881 348.604 159.353 348.387 159.752C348.179 160.151 347.88 160.458 347.49 160.675C347.1 160.892 346.641 161 346.112 161H345.592ZM352.805 161.156C352.32 161.156 351.878 161.043 351.479 160.818C351.08 160.584 350.764 160.263 350.53 159.856C350.305 159.44 350.192 158.963 350.192 158.426V154.032H351.167V158.309C351.167 158.682 351.241 159.011 351.388 159.297C351.544 159.574 351.756 159.791 352.025 159.947C352.302 160.103 352.619 160.181 352.974 160.181C353.329 160.181 353.646 160.103 353.923 159.947C354.2 159.782 354.417 159.553 354.573 159.258C354.729 158.955 354.807 158.595 354.807 158.179V154.032H355.782V161H354.807V159.648L355.028 159.7C354.863 160.151 354.582 160.506 354.183 160.766C353.784 161.026 353.325 161.156 352.805 161.156ZM357.267 161V154.032H358.242V155.384L358.021 155.332C358.194 154.881 358.476 154.526 358.866 154.266C359.265 154.006 359.724 153.876 360.244 153.876C360.738 153.876 361.18 153.989 361.57 154.214C361.969 154.439 362.281 154.751 362.506 155.15C362.74 155.54 362.857 155.982 362.857 156.476V161H361.882V156.853C361.882 156.428 361.804 156.069 361.648 155.774C361.501 155.479 361.288 155.254 361.011 155.098C360.742 154.933 360.43 154.851 360.075 154.851C359.72 154.851 359.403 154.933 359.126 155.098C358.849 155.254 358.632 155.484 358.476 155.787C358.32 156.082 358.242 156.437 358.242 156.853V161H357.267Z" fill="#94A3B8"/>
<path d="M79 198.832L84 203.832L89 198.832M84 203.832V192.165" stroke="#00C8B3" stroke-width="1.6" stroke-linecap="round" stroke-linejoin="round"/>
<path d="M96.768 205V194.936H94.464V193.08H98.944V205H96.768ZM100.549 205V203.352L103.781 199.976C104.421 199.304 104.912 198.771 105.253 198.376C105.605 197.971 105.85 197.624 105.989 197.336C106.128 197.048 106.197 196.755 106.197 196.456C106.197 195.955 106.037 195.56 105.717 195.272C105.408 194.984 105.008 194.84 104.517 194.84C104.005 194.84 103.562 194.989 103.189 195.288C102.816 195.576 102.544 196.003 102.373 196.568L100.469 195.976C100.597 195.347 100.858 194.803 101.253 194.344C101.648 193.875 102.128 193.517 102.693 193.272C103.269 193.016 103.877 192.888 104.517 192.888C105.285 192.888 105.957 193.027 106.533 193.304C107.12 193.581 107.573 193.971 107.893 194.472C108.224 194.973 108.389 195.56 108.389 196.232C108.389 196.659 108.309 197.08 108.149 197.496C107.989 197.912 107.749 198.339 107.429 198.776C107.109 199.203 106.693 199.683 106.181 200.216L103.381 203.16H108.549V205H100.549ZM111.168 205L120.832 193.08H123.072L113.408 205H111.168ZM113.04 199.128C112.443 199.128 111.904 198.989 111.424 198.712C110.955 198.424 110.581 198.045 110.304 197.576C110.027 197.107 109.888 196.584 109.888 196.008C109.888 195.432 110.027 194.909 110.304 194.44C110.581 193.96 110.955 193.581 111.424 193.304C111.904 193.027 112.437 192.888 113.024 192.888C113.621 192.888 114.155 193.027 114.624 193.304C115.093 193.581 115.467 193.96 115.744 194.44C116.021 194.909 116.16 195.432 116.16 196.008C116.16 196.584 116.021 197.107 115.744 197.576C115.467 198.045 115.093 198.424 114.624 198.712C114.155 198.989 113.627 199.128 113.04 199.128ZM113.024 197.512C113.344 197.512 113.611 197.443 113.824 197.304C114.037 197.155 114.197 196.968 114.304 196.744C114.421 196.509 114.48 196.264 114.48 196.008C114.48 195.741 114.421 195.496 114.304 195.272C114.197 195.048 114.037 194.861 113.824 194.712C113.611 194.563 113.344 194.488 113.024 194.488C112.725 194.488 112.464 194.563 112.24 194.712C112.027 194.861 111.861 195.053 111.744 195.288C111.627 195.512 111.568 195.752 111.568 196.008C111.568 196.253 111.627 196.493 111.744 196.728C111.861 196.963 112.027 197.155 112.24 197.304C112.464 197.443 112.725 197.512 113.024 197.512ZM121.152 205.192C120.565 205.192 120.032 205.053 119.552 204.776C119.083 204.488 118.709 204.109 118.432 203.64C118.155 203.171 118.016 202.648 118.016 202.072C118.016 201.496 118.155 200.973 118.432 200.504C118.709 200.024 119.083 199.645 119.552 199.368C120.032 199.091 120.565 198.952 121.152 198.952C121.749 198.952 122.283 199.091 122.752 199.368C123.221 199.645 123.595 200.024 123.872 200.504C124.149 200.973 124.288 201.496 124.288 202.072C124.288 202.648 124.149 203.171 123.872 203.64C123.595 204.109 123.221 204.488 122.752 204.776C122.283 205.053 121.749 205.192 121.152 205.192ZM121.152 203.576C121.461 203.576 121.723 203.507 121.936 203.368C122.16 203.219 122.325 203.032 122.432 202.808C122.549 202.573 122.608 202.328 122.608 202.072C122.608 201.805 122.549 201.56 122.432 201.336C122.325 201.112 122.16 200.925 121.936 200.776C121.723 200.627 121.461 200.552 121.152 200.552C120.853 200.552 120.592 200.627 120.368 200.776C120.155 200.925 119.989 201.117 119.872 201.352C119.755 201.576 119.696 201.816 119.696 202.072C119.696 202.317 119.755 202.557 119.872 202.792C119.989 203.027 120.155 203.219 120.368 203.368C120.592 203.507 120.853 203.576 121.152 203.576Z" fill="#00C8B3"/>
<path d="M81.2339 227V216.57H88.0239V217.83H82.6059V221.134H87.7439V222.394H82.6059V225.74H88.0239V227H81.2339ZM89.0101 227V219.454H90.2841V220.924L90.0741 220.798C90.2608 220.322 90.5594 219.953 90.9701 219.692C91.3901 219.421 91.8801 219.286 92.4401 219.286C92.9814 219.286 93.4621 219.407 93.8821 219.65C94.3114 219.893 94.6474 220.229 94.8901 220.658C95.1421 221.087 95.2681 221.573 95.2681 222.114V227H93.9521V222.534C93.9521 222.114 93.8774 221.759 93.7281 221.47C93.5788 221.181 93.3641 220.957 93.0841 220.798C92.8134 220.63 92.5008 220.546 92.1461 220.546C91.7914 220.546 91.4741 220.63 91.1941 220.798C90.9234 220.957 90.7088 221.185 90.5501 221.484C90.3914 221.773 90.3121 222.123 90.3121 222.534V227H89.0101ZM100.043 227.168C99.3152 227.168 98.6665 226.995 98.0972 226.65C97.5279 226.305 97.0799 225.833 96.7532 225.236C96.4265 224.629 96.2632 223.953 96.2632 223.206C96.2632 222.45 96.4219 221.778 96.7392 221.19C97.0659 220.602 97.5045 220.14 98.0552 219.804C98.6152 219.459 99.2405 219.286 99.9312 219.286C100.491 219.286 100.986 219.389 101.415 219.594C101.854 219.79 102.223 220.061 102.521 220.406C102.829 220.742 103.063 221.129 103.221 221.568C103.389 221.997 103.473 222.445 103.473 222.912C103.473 223.015 103.464 223.131 103.445 223.262C103.436 223.383 103.422 223.5 103.403 223.612H97.2152V222.492H102.647L102.031 222.996C102.115 222.511 102.069 222.077 101.891 221.694C101.714 221.311 101.453 221.008 101.107 220.784C100.762 220.56 100.37 220.448 99.9312 220.448C99.4925 220.448 99.0912 220.56 98.7272 220.784C98.3632 221.008 98.0785 221.33 97.8732 221.75C97.6772 222.161 97.5979 222.651 97.6352 223.22C97.5979 223.771 97.6819 224.256 97.8872 224.676C98.1019 225.087 98.4005 225.409 98.7832 225.642C99.1752 225.866 99.5999 225.978 100.057 225.978C100.561 225.978 100.986 225.861 101.331 225.628C101.677 225.395 101.957 225.096 102.171 224.732L103.263 225.292C103.114 225.637 102.881 225.955 102.563 226.244C102.255 226.524 101.887 226.748 101.457 226.916C101.037 227.084 100.566 227.168 100.043 227.168ZM104.611 227V219.454H105.885V220.84L105.745 220.644C105.922 220.215 106.193 219.897 106.557 219.692C106.921 219.477 107.364 219.37 107.887 219.37H108.349V220.602H107.691C107.159 220.602 106.729 220.77 106.403 221.106C106.076 221.433 105.913 221.899 105.913 222.506V227H104.611ZM112.543 230.08C112.011 230.08 111.517 229.996 111.059 229.828C110.611 229.66 110.224 229.427 109.897 229.128C109.58 228.839 109.337 228.498 109.169 228.106L110.387 227.546C110.518 227.901 110.765 228.199 111.129 228.442C111.503 228.694 111.969 228.82 112.529 228.82C112.959 228.82 113.346 228.736 113.691 228.568C114.046 228.409 114.326 228.167 114.531 227.84C114.737 227.523 114.839 227.135 114.839 226.678V224.984L115.077 225.236C114.816 225.749 114.438 226.141 113.943 226.412C113.458 226.683 112.921 226.818 112.333 226.818C111.624 226.818 110.989 226.655 110.429 226.328C109.869 225.992 109.431 225.539 109.113 224.97C108.796 224.391 108.637 223.752 108.637 223.052C108.637 222.343 108.796 221.703 109.113 221.134C109.431 220.565 109.865 220.117 110.415 219.79C110.975 219.454 111.61 219.286 112.319 219.286C112.907 219.286 113.439 219.421 113.915 219.692C114.401 219.953 114.788 220.317 115.077 220.784L114.881 221.134V219.454H116.155V226.678C116.155 227.331 116.001 227.915 115.693 228.428C115.385 228.941 114.956 229.343 114.405 229.632C113.864 229.931 113.243 230.08 112.543 230.08ZM112.445 225.558C112.893 225.558 113.295 225.446 113.649 225.222C114.013 224.998 114.303 224.699 114.517 224.326C114.732 223.943 114.839 223.519 114.839 223.052C114.839 222.595 114.732 222.175 114.517 221.792C114.303 221.409 114.013 221.106 113.649 220.882C113.295 220.658 112.893 220.546 112.445 220.546C111.988 220.546 111.573 220.658 111.199 220.882C110.826 221.106 110.532 221.409 110.317 221.792C110.112 222.165 110.009 222.585 110.009 223.052C110.009 223.519 110.112 223.943 110.317 224.326C110.532 224.699 110.821 224.998 111.185 225.222C111.559 225.446 111.979 225.558 112.445 225.558ZM117.614 227V219.454H118.916V227H117.614ZM117.614 218.25V216.57H118.916V218.25H117.614Z" fill="#94A3B8"/>
<path d="M190 198.832L195 203.832L200 198.832M195 203.832V192.165" stroke="#00C3D0" stroke-width="1.6" stroke-linecap="round" stroke-linejoin="round"/>
<path d="M206.504 205L210.552 199.784L210.92 200.168C210.76 200.285 210.605 200.381 210.456 200.456C210.307 200.531 210.147 200.584 209.976 200.616C209.805 200.648 209.624 200.664 209.432 200.664C208.707 200.664 208.061 200.499 207.496 200.168C206.931 199.837 206.483 199.389 206.152 198.824C205.832 198.248 205.672 197.597 205.672 196.872C205.672 196.104 205.848 195.421 206.2 194.824C206.563 194.227 207.053 193.757 207.672 193.416C208.301 193.064 209.016 192.888 209.816 192.888C210.627 192.888 211.341 193.059 211.96 193.4C212.579 193.741 213.064 194.211 213.416 194.808C213.779 195.395 213.96 196.072 213.96 196.84C213.96 197.224 213.917 197.608 213.832 197.992C213.747 198.376 213.592 198.787 213.368 199.224C213.155 199.651 212.845 200.136 212.44 200.68L209.112 205H206.504ZM209.816 198.84C210.189 198.84 210.52 198.76 210.808 198.6C211.107 198.429 211.341 198.195 211.512 197.896C211.683 197.587 211.768 197.24 211.768 196.856C211.768 196.451 211.677 196.099 211.496 195.8C211.325 195.501 211.096 195.267 210.808 195.096C210.52 194.925 210.189 194.84 209.816 194.84C209.453 194.84 209.123 194.925 208.824 195.096C208.525 195.267 208.285 195.501 208.104 195.8C207.933 196.099 207.848 196.451 207.848 196.856C207.848 197.24 207.933 197.587 208.104 197.896C208.285 198.195 208.525 198.429 208.824 198.6C209.123 198.76 209.453 198.84 209.816 198.84ZM216.433 205L226.097 193.08H228.337L218.673 205H216.433ZM218.305 199.128C217.708 199.128 217.169 198.989 216.689 198.712C216.22 198.424 215.846 198.045 215.569 197.576C215.292 197.107 215.153 196.584 215.153 196.008C215.153 195.432 215.292 194.909 215.569 194.44C215.846 193.96 216.22 193.581 216.689 193.304C217.169 193.027 217.702 192.888 218.289 192.888C218.886 192.888 219.42 193.027 219.889 193.304C220.358 193.581 220.732 193.96 221.009 194.44C221.286 194.909 221.425 195.432 221.425 196.008C221.425 196.584 221.286 197.107 221.009 197.576C220.732 198.045 220.358 198.424 219.889 198.712C219.42 198.989 218.892 199.128 218.305 199.128ZM218.289 197.512C218.609 197.512 218.876 197.443 219.089 197.304C219.302 197.155 219.462 196.968 219.569 196.744C219.686 196.509 219.745 196.264 219.745 196.008C219.745 195.741 219.686 195.496 219.569 195.272C219.462 195.048 219.302 194.861 219.089 194.712C218.876 194.563 218.609 194.488 218.289 194.488C217.99 194.488 217.729 194.563 217.505 194.712C217.292 194.861 217.126 195.053 217.009 195.288C216.892 195.512 216.833 195.752 216.833 196.008C216.833 196.253 216.892 196.493 217.009 196.728C217.126 196.963 217.292 197.155 217.505 197.304C217.729 197.443 217.99 197.512 218.289 197.512ZM226.417 205.192C225.83 205.192 225.297 205.053 224.817 204.776C224.348 204.488 223.974 204.109 223.697 203.64C223.42 203.171 223.281 202.648 223.281 202.072C223.281 201.496 223.42 200.973 223.697 200.504C223.974 200.024 224.348 199.645 224.817 199.368C225.297 199.091 225.83 198.952 226.417 198.952C227.014 198.952 227.548 199.091 228.017 199.368C228.486 199.645 228.86 200.024 229.137 200.504C229.414 200.973 229.553 201.496 229.553 202.072C229.553 202.648 229.414 203.171 229.137 203.64C228.86 204.109 228.486 204.488 228.017 204.776C227.548 205.053 227.014 205.192 226.417 205.192ZM226.417 203.576C226.726 203.576 226.988 203.507 227.201 203.368C227.425 203.219 227.59 203.032 227.697 202.808C227.814 202.573 227.873 202.328 227.873 202.072C227.873 201.805 227.814 201.56 227.697 201.336C227.59 201.112 227.425 200.925 227.201 200.776C226.988 200.627 226.726 200.552 226.417 200.552C226.118 200.552 225.857 200.627 225.633 200.776C225.42 200.925 225.254 201.117 225.137 201.352C225.02 201.576 224.961 201.816 224.961 202.072C224.961 202.317 225.02 202.557 225.137 202.792C225.254 203.027 225.42 203.219 225.633 203.368C225.857 203.507 226.118 203.576 226.417 203.576Z" fill="#00C3D0"/>
<path d="M190.036 227.168C189.373 227.168 188.766 227.047 188.216 226.804C187.665 226.552 187.198 226.211 186.816 225.782C186.433 225.353 186.158 224.872 185.99 224.34L187.18 223.85C187.432 224.522 187.805 225.04 188.3 225.404C188.804 225.759 189.392 225.936 190.064 225.936C190.474 225.936 190.834 225.871 191.142 225.74C191.45 225.609 191.688 225.427 191.856 225.194C192.033 224.951 192.122 224.671 192.122 224.354C192.122 223.915 191.996 223.57 191.744 223.318C191.501 223.057 191.142 222.861 190.666 222.73L188.748 222.142C187.992 221.909 187.413 221.54 187.012 221.036C186.61 220.532 186.41 219.953 186.41 219.3C186.41 218.731 186.545 218.231 186.816 217.802C187.096 217.363 187.478 217.023 187.964 216.78C188.458 216.528 189.018 216.402 189.644 216.402C190.269 216.402 190.834 216.514 191.338 216.738C191.851 216.962 192.285 217.265 192.64 217.648C192.994 218.021 193.256 218.451 193.424 218.936L192.248 219.426C192.024 218.838 191.688 218.395 191.24 218.096C190.792 217.788 190.264 217.634 189.658 217.634C189.284 217.634 188.953 217.699 188.664 217.83C188.384 217.951 188.164 218.133 188.006 218.376C187.856 218.609 187.782 218.889 187.782 219.216C187.782 219.599 187.903 219.939 188.146 220.238C188.388 220.537 188.757 220.765 189.252 220.924L191.002 221.442C191.823 221.694 192.444 222.053 192.864 222.52C193.284 222.987 193.494 223.565 193.494 224.256C193.494 224.825 193.344 225.329 193.046 225.768C192.756 226.207 192.35 226.552 191.828 226.804C191.314 227.047 190.717 227.168 190.036 227.168ZM196.795 227.168C196.301 227.168 195.862 227.079 195.479 226.902C195.106 226.715 194.812 226.463 194.597 226.146C194.383 225.819 194.275 225.446 194.275 225.026C194.275 224.625 194.359 224.265 194.527 223.948C194.705 223.621 194.975 223.346 195.339 223.122C195.713 222.898 196.179 222.739 196.739 222.646L199.539 222.184V223.276L197.033 223.696C196.548 223.78 196.193 223.934 195.969 224.158C195.755 224.382 195.647 224.657 195.647 224.984C195.647 225.292 195.769 225.549 196.011 225.754C196.263 225.959 196.576 226.062 196.949 226.062C197.425 226.062 197.836 225.964 198.181 225.768C198.536 225.563 198.811 225.287 199.007 224.942C199.213 224.597 199.315 224.214 199.315 223.794V221.876C199.315 221.465 199.161 221.134 198.853 220.882C198.555 220.621 198.158 220.49 197.663 220.49C197.234 220.49 196.851 220.602 196.515 220.826C196.189 221.041 195.946 221.33 195.787 221.694L194.653 221.106C194.793 220.761 195.017 220.453 195.325 220.182C195.633 219.902 195.993 219.683 196.403 219.524C196.814 219.365 197.243 219.286 197.691 219.286C198.27 219.286 198.779 219.398 199.217 219.622C199.656 219.837 199.997 220.14 200.239 220.532C200.491 220.915 200.617 221.363 200.617 221.876V227H199.343V225.572L199.581 225.656C199.423 225.955 199.208 226.216 198.937 226.44C198.667 226.664 198.349 226.841 197.985 226.972C197.621 227.103 197.225 227.168 196.795 227.168ZM202.076 227V219.454H203.35V220.994L203.168 220.756C203.355 220.28 203.653 219.916 204.064 219.664C204.475 219.412 204.937 219.286 205.45 219.286C206.038 219.286 206.565 219.449 207.032 219.776C207.508 220.103 207.835 220.532 208.012 221.064L207.648 221.078C207.844 220.49 208.175 220.047 208.642 219.748C209.109 219.44 209.627 219.286 210.196 219.286C210.719 219.286 211.19 219.407 211.61 219.65C212.039 219.893 212.38 220.229 212.632 220.658C212.884 221.087 213.01 221.573 213.01 222.114V227H211.694V222.534C211.694 222.114 211.619 221.759 211.47 221.47C211.321 221.181 211.115 220.957 210.854 220.798C210.602 220.63 210.303 220.546 209.958 220.546C209.622 220.546 209.319 220.63 209.048 220.798C208.787 220.957 208.577 221.185 208.418 221.484C208.269 221.773 208.194 222.123 208.194 222.534V227H206.878V222.534C206.878 222.114 206.803 221.759 206.654 221.47C206.505 221.181 206.299 220.957 206.038 220.798C205.786 220.63 205.487 220.546 205.142 220.546C204.806 220.546 204.503 220.63 204.232 220.798C203.971 220.957 203.761 221.185 203.602 221.484C203.453 221.773 203.378 222.123 203.378 222.534V227H202.076ZM214.299 229.8V219.454H215.573V221.078L215.405 220.756C215.685 220.308 216.068 219.953 216.553 219.692C217.039 219.421 217.594 219.286 218.219 219.286C218.929 219.286 219.563 219.459 220.123 219.804C220.693 220.149 221.141 220.621 221.467 221.218C221.794 221.806 221.957 222.478 221.957 223.234C221.957 223.971 221.794 224.639 221.467 225.236C221.141 225.833 220.693 226.305 220.123 226.65C219.563 226.995 218.924 227.168 218.205 227.168C217.599 227.168 217.043 227.033 216.539 226.762C216.045 226.491 215.662 226.109 215.391 225.614L215.601 225.39V229.8H214.299ZM218.107 225.908C218.583 225.908 219.008 225.791 219.381 225.558C219.755 225.325 220.044 225.007 220.249 224.606C220.464 224.195 220.571 223.738 220.571 223.234C220.571 222.711 220.464 222.254 220.249 221.862C220.044 221.461 219.755 221.143 219.381 220.91C219.008 220.667 218.583 220.546 218.107 220.546C217.631 220.546 217.202 220.663 216.819 220.896C216.446 221.129 216.147 221.451 215.923 221.862C215.709 222.263 215.601 222.721 215.601 223.234C215.601 223.738 215.709 224.195 215.923 224.606C216.147 225.007 216.446 225.325 216.819 225.558C217.202 225.791 217.631 225.908 218.107 225.908ZM225.317 227.168C224.822 227.168 224.383 227.079 224.001 226.902C223.627 226.715 223.333 226.463 223.119 226.146C222.904 225.819 222.797 225.446 222.797 225.026C222.797 224.625 222.881 224.265 223.049 223.948C223.226 223.621 223.497 223.346 223.861 223.122C224.234 222.898 224.701 222.739 225.261 222.646L228.061 222.184V223.276L225.555 223.696C225.069 223.78 224.715 223.934 224.491 224.158C224.276 224.382 224.169 224.657 224.169 224.984C224.169 225.292 224.29 225.549 224.533 225.754C224.785 225.959 225.097 226.062 225.471 226.062C225.947 226.062 226.357 225.964 226.703 225.768C227.057 225.563 227.333 225.287 227.529 224.942C227.734 224.597 227.837 224.214 227.837 223.794V221.876C227.837 221.465 227.683 221.134 227.375 220.882C227.076 220.621 226.679 220.49 226.185 220.49C225.755 220.49 225.373 220.602 225.037 220.826C224.71 221.041 224.467 221.33 224.309 221.694L223.175 221.106C223.315 220.761 223.539 220.453 223.847 220.182C224.155 219.902 224.514 219.683 224.925 219.524C225.335 219.365 225.765 219.286 226.213 219.286C226.791 219.286 227.3 219.398 227.739 219.622C228.177 219.837 228.518 220.14 228.761 220.532C229.013 220.915 229.139 221.363 229.139 221.876V227H227.865V225.572L228.103 225.656C227.944 225.955 227.729 226.216 227.459 226.44C227.188 226.664 226.871 226.841 226.507 226.972C226.143 227.103 225.746 227.168 225.317 227.168ZM230.597 227V216.402H231.899V220.924L231.661 220.798C231.848 220.322 232.147 219.953 232.557 219.692C232.977 219.421 233.467 219.286 234.027 219.286C234.569 219.286 235.049 219.407 235.469 219.65C235.899 219.893 236.235 220.229 236.477 220.658C236.729 221.087 236.855 221.573 236.855 222.114V227H235.539V222.534C235.539 222.114 235.46 221.759 235.301 221.47C235.152 221.181 234.942 220.957 234.671 220.798C234.401 220.63 234.088 220.546 233.733 220.546C233.388 220.546 233.075 220.63 232.795 220.798C232.515 220.957 232.296 221.185 232.137 221.484C231.979 221.773 231.899 222.123 231.899 222.534V227H230.597Z" fill="#94A3B8"/>
<path d="M302 198.832L307 203.832L312 198.832M307 203.832V192.165" stroke="#6282ED" stroke-width="1.6" stroke-linecap="round" stroke-linejoin="round"/>
<path d="M317.736 205V203.352L320.968 199.976C321.608 199.304 322.099 198.771 322.44 198.376C322.792 197.971 323.037 197.624 323.176 197.336C323.315 197.048 323.384 196.755 323.384 196.456C323.384 195.955 323.224 195.56 322.904 195.272C322.595 194.984 322.195 194.84 321.704 194.84C321.192 194.84 320.749 194.989 320.376 195.288C320.003 195.576 319.731 196.003 319.56 196.568L317.656 195.976C317.784 195.347 318.045 194.803 318.44 194.344C318.835 193.875 319.315 193.517 319.88 193.272C320.456 193.016 321.064 192.888 321.704 192.888C322.472 192.888 323.144 193.027 323.72 193.304C324.307 193.581 324.76 193.971 325.08 194.472C325.411 194.973 325.576 195.56 325.576 196.232C325.576 196.659 325.496 197.08 325.336 197.496C325.176 197.912 324.936 198.339 324.616 198.776C324.296 199.203 323.88 199.683 323.368 200.216L320.568 203.16H325.736V205H317.736ZM331.571 205.192C330.622 205.192 329.79 204.936 329.075 204.424C328.36 203.912 327.8 203.192 327.395 202.264C327 201.336 326.803 200.259 326.803 199.032C326.803 197.795 327 196.717 327.395 195.8C327.79 194.883 328.344 194.168 329.059 193.656C329.774 193.144 330.606 192.888 331.555 192.888C332.526 192.888 333.363 193.144 334.067 193.656C334.782 194.168 335.342 194.888 335.747 195.816C336.152 196.733 336.355 197.805 336.355 199.032C336.355 200.259 336.152 201.336 335.747 202.264C335.352 203.181 334.798 203.901 334.083 204.424C333.368 204.936 332.531 205.192 331.571 205.192ZM331.587 203.208C332.131 203.208 332.595 203.043 332.979 202.712C333.363 202.371 333.656 201.891 333.859 201.272C334.072 200.643 334.179 199.896 334.179 199.032C334.179 198.168 334.072 197.427 333.859 196.808C333.656 196.179 333.358 195.699 332.963 195.368C332.579 195.037 332.11 194.872 331.555 194.872C331.022 194.872 330.563 195.037 330.179 195.368C329.795 195.699 329.496 196.179 329.283 196.808C329.08 197.427 328.979 198.168 328.979 199.032C328.979 199.885 329.08 200.627 329.283 201.256C329.496 201.875 329.795 202.355 330.179 202.696C330.574 203.037 331.043 203.208 331.587 203.208ZM339.043 205L348.707 193.08H350.947L341.283 205H339.043ZM340.915 199.128C340.318 199.128 339.779 198.989 339.299 198.712C338.83 198.424 338.456 198.045 338.179 197.576C337.902 197.107 337.763 196.584 337.763 196.008C337.763 195.432 337.902 194.909 338.179 194.44C338.456 193.96 338.83 193.581 339.299 193.304C339.779 193.027 340.312 192.888 340.899 192.888C341.496 192.888 342.03 193.027 342.499 193.304C342.968 193.581 343.342 193.96 343.619 194.44C343.896 194.909 344.035 195.432 344.035 196.008C344.035 196.584 343.896 197.107 343.619 197.576C343.342 198.045 342.968 198.424 342.499 198.712C342.03 198.989 341.502 199.128 340.915 199.128ZM340.899 197.512C341.219 197.512 341.486 197.443 341.699 197.304C341.912 197.155 342.072 196.968 342.179 196.744C342.296 196.509 342.355 196.264 342.355 196.008C342.355 195.741 342.296 195.496 342.179 195.272C342.072 195.048 341.912 194.861 341.699 194.712C341.486 194.563 341.219 194.488 340.899 194.488C340.6 194.488 340.339 194.563 340.115 194.712C339.902 194.861 339.736 195.053 339.619 195.288C339.502 195.512 339.443 195.752 339.443 196.008C339.443 196.253 339.502 196.493 339.619 196.728C339.736 196.963 339.902 197.155 340.115 197.304C340.339 197.443 340.6 197.512 340.899 197.512ZM349.027 205.192C348.44 205.192 347.907 205.053 347.427 204.776C346.958 204.488 346.584 204.109 346.307 203.64C346.03 203.171 345.891 202.648 345.891 202.072C345.891 201.496 346.03 200.973 346.307 200.504C346.584 200.024 346.958 199.645 347.427 199.368C347.907 199.091 348.44 198.952 349.027 198.952C349.624 198.952 350.158 199.091 350.627 199.368C351.096 199.645 351.47 200.024 351.747 200.504C352.024 200.973 352.163 201.496 352.163 202.072C352.163 202.648 352.024 203.171 351.747 203.64C351.47 204.109 351.096 204.488 350.627 204.776C350.158 205.053 349.624 205.192 349.027 205.192ZM349.027 203.576C349.336 203.576 349.598 203.507 349.811 203.368C350.035 203.219 350.2 203.032 350.307 202.808C350.424 202.573 350.483 202.328 350.483 202.072C350.483 201.805 350.424 201.56 350.307 201.336C350.2 201.112 350.035 200.925 349.811 200.776C349.598 200.627 349.336 200.552 349.027 200.552C348.728 200.552 348.467 200.627 348.243 200.776C348.03 200.925 347.864 201.117 347.747 201.352C347.63 201.576 347.571 201.816 347.571 202.072C347.571 202.317 347.63 202.557 347.747 202.792C347.864 203.027 348.03 203.219 348.243 203.368C348.467 203.507 348.728 203.576 349.027 203.576Z" fill="#6282ED"/>
<path d="M317.402 227L321.14 216.57H322.764L326.502 227H325.032L324.178 224.55H319.726L318.872 227H317.402ZM320.16 223.29H323.744L321.756 217.564H322.148L320.16 223.29ZM327.103 227V219.454H328.405V227H327.103ZM327.103 218.25V216.57H328.405V218.25H327.103ZM329.865 227V219.454H331.139V220.84L330.999 220.644C331.176 220.215 331.447 219.897 331.811 219.692C332.175 219.477 332.618 219.37 333.141 219.37H333.603V220.602H332.945C332.413 220.602 331.984 220.77 331.657 221.106C331.33 221.433 331.167 221.899 331.167 222.506V227H329.865Z" fill="#94A3B8"/>
</svg>
