<svg width="32" height="32" viewBox="0 0 32 32" fill="none" xmlns="http://www.w3.org/2000/svg">
<path d="M6.66406 6.66602H23.9974C25.0583 6.66602 26.0757 7.08744 26.8258 7.83759C27.576 8.58773 27.9974 9.60515 27.9974 10.666V22.666C27.9974 23.7269 27.576 24.7443 26.8258 25.4944C26.0757 26.2446 25.0583 26.666 23.9974 26.666H6.66406C5.6032 26.666 4.58578 26.2446 3.83564 25.4944C3.08549 24.7443 2.66406 23.7269 2.66406 22.666V10.666C2.66406 9.60515 3.08549 8.58773 3.83564 7.83759C4.58578 7.08744 5.6032 6.66602 6.66406 6.66602ZM6.66406 7.99935C5.95682 7.99935 5.27854 8.2803 4.77844 8.7804C4.27835 9.28049 3.9974 9.95877 3.9974 10.666V11.9993H26.6641V10.666C26.6641 9.95877 26.3831 9.28049 25.883 8.7804C25.3829 8.2803 24.7046 7.99935 23.9974 7.99935H6.66406ZM3.9974 22.666C3.9974 23.3733 4.27835 24.0515 4.77844 24.5516C5.27854 25.0517 5.95682 25.3327 6.66406 25.3327H23.9974C24.7046 25.3327 25.3829 25.0517 25.883 24.5516C26.3831 24.0515 26.6641 23.3733 26.6641 22.666V15.9993H3.9974V22.666ZM6.66406 21.3327H11.9974V22.666H6.66406V21.3327ZM14.6641 21.3327H18.6641V22.666H14.6641V21.3327ZM3.9974 13.3327V14.666H26.6641V13.3327H3.9974Z" fill="black"/>
</svg>
