<svg width="224" height="272" viewBox="0 0 224 272" fill="none" xmlns="http://www.w3.org/2000/svg">
<g clip-path="url(#clip0_530_21)">
<mask id="mask0_530_21" style="mask-type:luminance" maskUnits="userSpaceOnUse" x="92" y="11" width="253" height="253">
<path d="M307.971 226.183C357.157 176.998 357.157 97.2523 307.971 48.0669C258.786 -1.11859 179.04 -1.11861 129.855 48.0668C80.6696 97.2523 80.6696 176.998 129.855 226.183C179.04 275.369 258.786 275.369 307.971 226.183Z" fill="white"/>
</mask>
<g mask="url(#mask0_530_21)">
<path d="M94.1883 216.363L91.9102 218.645L100.647 227.369L102.925 225.088L94.1883 216.363Z" fill="#6282ED"/>
<path d="M91.9043 225.109L94.1855 227.387L102.91 218.65L100.629 216.372L91.9043 225.109Z" fill="#6282ED"/>
<path d="M94.2195 239.445L91.9414 241.727L100.678 250.451L102.956 248.17L94.2195 239.445Z" fill="#6282ED"/>
<path d="M91.9238 248.175L94.2051 250.453L102.929 241.717L100.648 239.438L91.9238 248.175Z" fill="#6282ED"/>
<path d="M94.2312 260.902L91.9531 263.184L100.69 271.908L102.968 269.627L94.2312 260.902Z" fill="#6282ED"/>
<path d="M91.9492 269.667L94.2305 271.945L102.955 263.209L100.674 260.931L91.9492 269.667Z" fill="#6282ED"/>
<path d="M94.155 148.012L91.877 150.293L100.614 159.017L102.892 156.736L94.155 148.012Z" fill="#6282ED"/>
<path d="M91.8554 156.73L94.1367 159.008L102.861 150.271L100.58 147.993L91.8554 156.73Z" fill="#6282ED"/>
<path d="M94.155 171.082L91.877 173.363L100.614 182.088L102.892 179.806L94.155 171.082Z" fill="#6282ED"/>
<path d="M91.8789 179.827L94.1602 182.105L102.885 173.369L100.603 171.091L91.8789 179.827Z" fill="#6282ED"/>
<path d="M94.1785 192.547L91.9004 194.828L100.637 203.552L102.915 201.271L94.1785 192.547Z" fill="#6282ED"/>
<path d="M91.8906 201.292L94.1719 203.57L102.896 194.834L100.615 192.556L91.8906 201.292Z" fill="#6282ED"/>
<path d="M94.1101 79.6133L91.832 81.8945L100.569 90.6189L102.847 88.3376L94.1101 79.6133Z" fill="#6282ED"/>
<path d="M91.8203 88.3625L94.1016 90.6406L102.826 81.9041L100.545 79.626L91.8203 88.3625Z" fill="#6282ED"/>
<path d="M94.1082 102.727L91.8301 105.008L100.567 113.732L102.845 111.451L94.1082 102.727Z" fill="#6282ED"/>
<path d="M91.8496 111.445L94.1309 113.723L102.855 104.986L100.574 102.708L91.8496 111.445Z" fill="#6282ED"/>
<path d="M94.1316 124.187L91.8535 126.469L100.59 135.193L102.868 132.912L94.1316 124.187Z" fill="#6282ED"/>
<path d="M91.8633 132.905L94.1445 135.184L102.869 126.447L100.588 124.169L91.8633 132.905Z" fill="#6282ED"/>
<path d="M94.0457 11.2656L91.7676 13.5469L100.504 22.2712L102.782 19.9899L94.0457 11.2656Z" fill="#6282ED"/>
<path d="M91.7754 19.9953L94.0566 22.2734L102.781 13.5369L100.5 11.2588L91.7754 19.9953Z" fill="#6282ED"/>
<path d="M94.0769 34.3281L91.7988 36.6094L100.535 45.3337L102.813 43.0525L94.0769 34.3281Z" fill="#6282ED"/>
<path d="M91.7949 43.0657L94.0762 45.3438L102.801 36.6072L100.519 34.3291L91.7949 43.0657Z" fill="#6282ED"/>
<path d="M94.0828 55.7929L91.8047 58.0742L100.541 66.7986L102.819 64.5173L94.0828 55.7929Z" fill="#6282ED"/>
<path d="M91.8086 64.5461L94.0898 66.8242L102.814 58.0877L100.533 55.8096L91.8086 64.5461Z" fill="#6282ED"/>
<path d="M118.462 216.363L116.184 218.645L124.92 227.369L127.198 225.088L118.462 216.363Z" fill="#6282ED"/>
<path d="M116.17 225.085L118.451 227.363L127.176 218.627L124.894 216.349L116.17 225.085Z" fill="#6282ED"/>
<path d="M141.423 216.34L139.145 218.621L147.881 227.345L150.159 225.064L141.423 216.34Z" fill="#6282ED"/>
<path d="M139.141 225.066L141.422 227.344L150.146 218.607L147.865 216.329L139.141 225.066Z" fill="#6282ED"/>
<path d="M164.348 216.32L162.07 218.602L170.807 227.326L173.085 225.045L164.348 216.32Z" fill="#6282ED"/>
<path d="M162.096 225.062L164.377 227.34L173.101 218.603L170.82 216.325L162.096 225.062Z" fill="#6282ED"/>
<path d="M187.307 216.328L185.029 218.609L193.766 227.334L196.044 225.052L187.307 216.328Z" fill="#6282ED"/>
<path d="M185.004 225.042L187.285 227.32L196.01 218.584L193.728 216.306L185.004 225.042Z" fill="#6282ED"/>
<path d="M210.235 216.289L207.957 218.57L216.694 227.295L218.972 225.013L210.235 216.289Z" fill="#6282ED"/>
<path d="M207.961 225.034L210.242 227.312L218.967 218.576L216.685 216.298L207.961 225.034Z" fill="#6282ED"/>
<path d="M118.493 239.41L116.215 241.691L124.951 250.416L127.229 248.134L118.493 239.41Z" fill="#6282ED"/>
<path d="M116.189 248.175L118.471 250.453L127.195 241.717L124.914 239.438L116.189 248.175Z" fill="#6282ED"/>
<path d="M141.421 239.41L139.143 241.691L147.879 250.416L150.157 248.134L141.421 239.41Z" fill="#6282ED"/>
<path d="M139.127 248.167L141.408 250.445L150.133 241.709L147.851 239.431L139.127 248.167Z" fill="#6282ED"/>
<path d="M164.378 239.422L162.1 241.703L170.836 250.427L173.114 248.146L164.378 239.422Z" fill="#6282ED"/>
<path d="M162.096 248.148L164.377 250.426L173.101 241.689L170.82 239.411L162.096 248.148Z" fill="#6282ED"/>
<path d="M187.319 239.387L185.041 241.668L193.778 250.392L196.056 248.111L187.319 239.387Z" fill="#6282ED"/>
<path d="M185.021 248.109L187.303 250.387L196.027 241.65L193.746 239.372L185.021 248.109Z" fill="#6282ED"/>
<path d="M210.266 239.391L207.988 241.672L216.725 250.396L219.003 248.115L210.266 239.391Z" fill="#6282ED"/>
<path d="M207.961 248.105L210.242 250.383L218.967 241.646L216.685 239.368L207.961 248.105Z" fill="#6282ED"/>
<path d="M118.499 260.891L116.221 263.172L124.957 271.896L127.235 269.615L118.499 260.891Z" fill="#6282ED"/>
<path d="M116.219 269.636L118.5 271.914L127.224 263.178L124.943 260.899L116.219 269.636Z" fill="#6282ED"/>
<path d="M141.444 260.891L139.166 263.172L147.903 271.896L150.181 269.615L141.444 260.891Z" fill="#6282ED"/>
<path d="M139.141 269.632L141.422 271.91L150.146 263.174L147.865 260.896L139.141 269.632Z" fill="#6282ED"/>
<path d="M164.386 260.883L162.107 263.164L170.844 271.888L173.122 269.607L164.386 260.883Z" fill="#6282ED"/>
<path d="M162.109 269.609L164.391 271.887L173.115 263.15L170.834 260.872L162.109 269.609Z" fill="#6282ED"/>
<path d="M187.331 260.867L185.053 263.148L193.789 271.873L196.067 269.592L187.331 260.867Z" fill="#6282ED"/>
<path d="M185.047 269.605L187.328 271.883L196.052 263.146L193.771 260.868L185.047 269.605Z" fill="#6282ED"/>
<path d="M210.27 260.855L207.992 263.137L216.729 271.861L219.007 269.58L210.27 260.855Z" fill="#6282ED"/>
<path d="M207.973 269.57L210.254 271.848L218.978 263.111L216.697 260.833L207.973 269.57Z" fill="#6282ED"/>
<path d="M118.413 147.992L116.135 150.273L124.871 158.998L127.149 156.717L118.413 147.992Z" fill="#6282ED"/>
<path d="M116.141 156.722L118.422 159L127.146 150.263L124.865 147.985L116.141 156.722Z" fill="#6282ED"/>
<path d="M141.372 147.961L139.094 150.242L147.83 158.967L150.108 156.685L141.372 147.961Z" fill="#6282ED"/>
<path d="M139.084 156.702L141.365 158.98L150.09 150.244L147.808 147.966L139.084 156.702Z" fill="#6282ED"/>
<path d="M164.317 147.961L162.039 150.242L170.776 158.967L173.054 156.685L164.317 147.961Z" fill="#6282ED"/>
<path d="M162.021 156.698L164.303 158.977L173.027 150.24L170.746 147.962L162.021 156.698Z" fill="#6282ED"/>
<path d="M187.247 147.922L184.969 150.203L193.705 158.927L195.983 156.646L187.247 147.922Z" fill="#6282ED"/>
<path d="M184.98 156.671L187.262 158.949L195.986 150.213L193.705 147.935L184.98 156.671Z" fill="#6282ED"/>
<path d="M210.192 147.922L207.914 150.203L216.651 158.927L218.929 156.646L210.192 147.922Z" fill="#6282ED"/>
<path d="M207.92 156.667L210.201 158.945L218.926 150.209L216.644 147.931L207.92 156.667Z" fill="#6282ED"/>
<path d="M118.444 171.07L116.166 173.352L124.903 182.076L127.181 179.795L118.444 171.07Z" fill="#6282ED"/>
<path d="M116.158 179.788L118.439 182.066L127.164 173.33L124.883 171.052L116.158 179.788Z" fill="#6282ED"/>
<path d="M141.384 171.039L139.105 173.32L147.842 182.045L150.12 179.763L141.384 171.039Z" fill="#6282ED"/>
<path d="M139.102 179.769L141.383 182.047L150.107 173.31L147.826 171.032L139.102 179.769Z" fill="#6282ED"/>
<path d="M164.331 171.023L162.053 173.305L170.789 182.029L173.067 179.748L164.331 171.023Z" fill="#6282ED"/>
<path d="M162.041 179.765L164.322 182.043L173.047 173.306L170.765 171.028L162.041 179.765Z" fill="#6282ED"/>
<path d="M187.276 171.023L184.998 173.305L193.735 182.029L196.013 179.748L187.276 171.023Z" fill="#6282ED"/>
<path d="M184.98 179.761L187.262 182.039L195.986 173.303L193.705 171.024L184.98 179.761Z" fill="#6282ED"/>
<path d="M210.204 171.004L207.926 173.285L216.662 182.01L218.94 179.728L210.204 171.004Z" fill="#6282ED"/>
<path d="M207.936 179.753L210.217 182.031L218.941 173.295L216.66 171.017L207.936 179.753Z" fill="#6282ED"/>
<path d="M118.448 192.555L116.17 194.836L124.906 203.56L127.185 201.279L118.448 192.555Z" fill="#6282ED"/>
<path d="M116.17 201.253L118.451 203.531L127.176 194.795L124.894 192.517L116.17 201.253Z" fill="#6282ED"/>
<path d="M141.395 192.516L139.117 194.797L147.854 203.521L150.132 201.24L141.395 192.516Z" fill="#6282ED"/>
<path d="M139.127 201.245L141.408 203.523L150.133 194.787L147.851 192.509L139.127 201.245Z" fill="#6282ED"/>
<path d="M164.352 192.508L162.074 194.789L170.811 203.513L173.089 201.232L164.352 192.508Z" fill="#6282ED"/>
<path d="M162.053 201.23L164.334 203.508L173.058 194.771L170.777 192.493L162.053 201.23Z" fill="#6282ED"/>
<path d="M187.282 192.488L185.004 194.77L193.74 203.494L196.019 201.213L187.282 192.488Z" fill="#6282ED"/>
<path d="M184.992 201.226L187.273 203.504L195.998 194.767L193.717 192.489L184.992 201.226Z" fill="#6282ED"/>
<path d="M210.229 192.469L207.951 194.75L216.688 203.474L218.966 201.193L210.229 192.469Z" fill="#6282ED"/>
<path d="M207.949 201.218L210.23 203.496L218.955 194.76L216.674 192.481L207.949 201.218Z" fill="#6282ED"/>
<path d="M118.384 79.6133L116.105 81.8945L124.842 90.6189L127.12 88.3376L118.384 79.6133Z" fill="#6282ED"/>
<path d="M116.103 88.3391L118.385 90.6172L127.109 81.8806L124.828 79.6025L116.103 88.3391Z" fill="#6282ED"/>
<path d="M141.311 79.6133L139.033 81.8945L147.77 90.6189L150.048 88.3376L141.311 79.6133Z" fill="#6282ED"/>
<path d="M139.023 88.3352L141.305 90.6133L150.029 81.8767L147.748 79.5986L139.023 88.3352Z" fill="#6282ED"/>
<path d="M164.259 79.5937L161.98 81.875L170.717 90.5994L172.995 88.3181L164.259 79.5937Z" fill="#6282ED"/>
<path d="M161.982 88.3313L164.264 90.6094L172.988 81.8728L170.707 79.5947L161.982 88.3313Z" fill="#6282ED"/>
<path d="M187.196 79.5625L184.918 81.8438L193.655 90.5681L195.933 88.2868L187.196 79.5625Z" fill="#6282ED"/>
<path d="M184.906 88.3117L187.188 90.5898L195.912 81.8533L193.631 79.5752L184.906 88.3117Z" fill="#6282ED"/>
<path d="M210.157 79.5547L207.879 81.8359L216.615 90.5603L218.894 88.279L210.157 79.5547Z" fill="#6282ED"/>
<path d="M207.859 88.2883L210.141 90.5664L218.865 81.8299L216.584 79.5518L207.859 88.2883Z" fill="#6282ED"/>
<path d="M118.395 102.695L116.117 104.977L124.854 113.701L127.132 111.42L118.395 102.695Z" fill="#6282ED"/>
<path d="M116.103 111.429L118.385 113.707L127.109 104.97L124.828 102.692L116.103 111.429Z" fill="#6282ED"/>
<path d="M141.341 102.676L139.062 104.957L147.799 113.681L150.077 111.4L141.341 102.676Z" fill="#6282ED"/>
<path d="M139.061 111.421L141.342 113.699L150.066 104.963L147.785 102.685L139.061 111.421Z" fill="#6282ED"/>
<path d="M164.27 102.676L161.992 104.957L170.729 113.681L173.007 111.4L164.27 102.676Z" fill="#6282ED"/>
<path d="M161.98 111.417L164.262 113.695L172.986 104.959L170.705 102.681L161.98 111.417Z" fill="#6282ED"/>
<path d="M187.229 102.625L184.951 104.906L193.688 113.631L195.966 111.349L187.229 102.625Z" fill="#6282ED"/>
<path d="M184.926 111.378L187.207 113.656L195.931 104.92L193.65 102.642L184.926 111.378Z" fill="#6282ED"/>
<path d="M210.157 102.609L207.879 104.891L216.615 113.615L218.894 111.334L210.157 102.609Z" fill="#6282ED"/>
<path d="M207.883 111.374L210.164 113.652L218.888 104.916L216.607 102.638L207.883 111.374Z" fill="#6282ED"/>
<path d="M118.405 124.168L116.127 126.449L124.864 135.174L127.142 132.892L118.405 124.168Z" fill="#6282ED"/>
<path d="M116.127 132.902L118.408 135.18L127.133 126.443L124.851 124.165L116.127 132.902Z" fill="#6282ED"/>
<path d="M141.346 124.141L139.068 126.422L147.805 135.146L150.083 132.865L141.346 124.141Z" fill="#6282ED"/>
<path d="M139.055 132.886L141.336 135.164L150.06 126.428L147.779 124.149L139.055 132.886Z" fill="#6282ED"/>
<path d="M164.294 124.121L162.016 126.402L170.752 135.127L173.03 132.845L164.294 124.121Z" fill="#6282ED"/>
<path d="M161.994 132.878L164.275 135.156L173 126.42L170.718 124.142L161.994 132.878Z" fill="#6282ED"/>
<path d="M187.221 124.105L184.943 126.387L193.68 135.111L195.958 132.83L187.221 124.105Z" fill="#6282ED"/>
<path d="M184.969 132.859L187.25 135.137L195.974 126.4L193.693 124.122L184.969 132.859Z" fill="#6282ED"/>
<path d="M210.18 124.09L207.902 126.371L216.639 135.095L218.917 132.814L210.18 124.09Z" fill="#6282ED"/>
<path d="M207.895 132.835L210.176 135.113L218.9 126.377L216.619 124.099L207.895 132.835Z" fill="#6282ED"/>
<path d="M118.321 11.2461L116.043 13.5273L124.78 22.2517L127.058 19.9704L118.321 11.2461Z" fill="#6282ED"/>
<path d="M116.043 19.9914L118.324 22.2695L127.049 13.533L124.767 11.2549L116.043 19.9914Z" fill="#6282ED"/>
<path d="M141.262 11.2148L138.984 13.4961L147.721 22.2205L149.999 19.9392L141.262 11.2148Z" fill="#6282ED"/>
<path d="M138.986 19.9719L141.268 22.25L149.992 13.5135L147.711 11.2354L138.986 19.9719Z" fill="#6282ED"/>
<path d="M164.221 11.207L161.943 13.4883L170.68 22.2126L172.958 19.9314L164.221 11.207Z" fill="#6282ED"/>
<path d="M161.939 19.9485L164.221 22.2266L172.945 13.49L170.664 11.2119L161.939 19.9485Z" fill="#6282ED"/>
<path d="M187.167 11.207L184.889 13.4883L193.625 22.2126L195.903 19.9314L187.167 11.207Z" fill="#6282ED"/>
<path d="M184.895 19.925L187.176 22.2031L195.9 13.4666L193.619 11.1885L184.895 19.925Z" fill="#6282ED"/>
<path d="M210.096 11.1875L207.818 13.4688L216.555 22.1931L218.833 19.9118L210.096 11.1875Z" fill="#6282ED"/>
<path d="M207.836 19.9172L210.117 22.1953L218.842 13.4588L216.56 11.1807L207.836 19.9172Z" fill="#6282ED"/>
<path d="M118.335 34.3086L116.057 36.5898L124.793 45.3142L127.071 43.0329L118.335 34.3086Z" fill="#6282ED"/>
<path d="M116.061 43.0578L118.342 45.3359L127.066 36.5994L124.785 34.3213L116.061 43.0578Z" fill="#6282ED"/>
<path d="M141.28 34.3086L139.002 36.5898L147.738 45.3142L150.017 43.0329L141.28 34.3086Z" fill="#6282ED"/>
<path d="M139.018 43.05L141.299 45.3281L150.023 36.5916L147.742 34.3135L139.018 43.05Z" fill="#6282ED"/>
<path d="M164.239 34.2773L161.961 36.5586L170.697 45.283L172.976 43.0017L164.239 34.2773Z" fill="#6282ED"/>
<path d="M161.943 43.0344L164.225 45.3125L172.949 36.576L170.668 34.2979L161.943 43.0344Z" fill="#6282ED"/>
<path d="M187.178 34.2695L184.9 36.5508L193.637 45.2751L195.915 42.9939L187.178 34.2695Z" fill="#6282ED"/>
<path d="M184.895 43.011L187.176 45.2891L195.9 36.5525L193.619 34.2744L184.895 43.011Z" fill="#6282ED"/>
<path d="M210.126 34.2695L207.848 36.5508L216.584 45.2751L218.862 42.9939L210.126 34.2695Z" fill="#6282ED"/>
<path d="M207.852 43.0071L210.133 45.2852L218.857 36.5486L216.576 34.2705L207.852 43.0071Z" fill="#6282ED"/>
<path d="M118.358 55.789L116.08 58.0703L124.817 66.7947L127.095 64.5134L118.358 55.789Z" fill="#6282ED"/>
<path d="M116.074 64.5188L118.355 66.7969L127.08 58.0603L124.799 55.7822L116.074 64.5188Z" fill="#6282ED"/>
<path d="M141.303 55.7734L139.025 58.0547L147.762 66.779L150.04 64.4978L141.303 55.7734Z" fill="#6282ED"/>
<path d="M139.029 64.5149L141.311 66.793L150.035 58.0564L147.754 55.7783L139.029 64.5149Z" fill="#6282ED"/>
<path d="M164.231 55.7539L161.953 58.0352L170.69 66.7595L172.968 64.4782L164.231 55.7539Z" fill="#6282ED"/>
<path d="M161.969 64.5071L164.25 66.7852L172.974 58.0486L170.693 55.7705L161.969 64.5071Z" fill="#6282ED"/>
<path d="M187.19 55.7382L184.912 58.0195L193.649 66.7439L195.927 64.4626L187.19 55.7382Z" fill="#6282ED"/>
<path d="M184.894 64.4875L187.176 66.7656L195.9 58.0291L193.619 55.751L184.894 64.4875Z" fill="#6282ED"/>
<path d="M210.132 55.7343L207.854 58.0156L216.59 66.74L218.868 64.4587L210.132 55.7343Z" fill="#6282ED"/>
<path d="M207.865 64.4524L210.146 66.7305L218.871 57.9939L216.59 55.7158L207.865 64.4524Z" fill="#6282ED"/>
</g>
<path d="M125.061 0H120.455V11.5142H125.061V0Z" fill="#1A1F40"/>
<path d="M125.061 0H120.455V11.5142H125.061V0Z" fill="#1A1F40"/>
<path d="M125.061 190H120.455V201.514H125.061V190Z" fill="#1A1F40"/>
<path d="M33.5142 98.457H22V103.063H33.5142V98.457Z" fill="#1A1F40"/>
<path d="M33.5142 98.457H22V103.063H33.5142V98.457Z" fill="#1A1F40"/>
<path d="M223.516 98.457H212.002V103.063H223.516V98.457Z" fill="#1A1F40"/>
<path d="M53.1532 27.8839L49.8965 31.1406L58.0382 39.2824L61.2949 36.0257L53.1532 27.8839Z" fill="#1A1F40"/>
<path d="M53.1532 27.8839L49.8965 31.1406L58.0382 39.2824L61.2949 36.0257L53.1532 27.8839Z" fill="#1A1F40"/>
<path d="M187.487 162.243L184.23 165.5L192.372 173.642L195.629 170.385L187.487 162.243Z" fill="#1A1F40"/>
<path d="M58.029 162.228L49.8887 170.371L53.1459 173.627L61.2863 165.484L58.029 162.228Z" fill="#1A1F40"/>
<path d="M58.029 162.228L49.8887 170.371L53.1459 173.627L61.2863 165.484L58.029 162.228Z" fill="#1A1F40"/>
<path d="M192.375 27.8764L184.234 36.0195L187.492 39.2757L195.632 31.1325L192.375 27.8764Z" fill="#1A1F40"/>
<path d="M102.043 2.13033L97.5586 3.17969L100.182 14.391L104.667 13.3416L102.043 2.13033Z" fill="#1A1F40"/>
<path d="M102.043 2.13033L97.5586 3.17969L100.182 14.391L104.667 13.3416L102.043 2.13033Z" fill="#1A1F40"/>
<path d="M145.34 187.138L140.855 188.188L143.479 199.399L147.963 198.349L145.34 187.138Z" fill="#1A1F40"/>
<path d="M35.3471 118.849L24.1367 121.477L25.1876 125.961L36.3981 123.333L35.3471 118.849Z" fill="#1A1F40"/>
<path d="M35.3471 118.849L24.1367 121.477L25.1876 125.961L36.3981 123.333L35.3471 118.849Z" fill="#1A1F40"/>
<path d="M220.344 75.566L209.133 78.1914L210.183 82.6757L221.394 80.0504L220.344 75.566Z" fill="#1A1F40"/>
<path d="M38.3717 45.6647L35.9434 49.5781L45.727 55.649L48.1554 51.7355L38.3717 45.6647Z" fill="#1A1F40"/>
<path d="M38.3717 45.6647L35.9434 49.5781L45.727 55.649L48.1554 51.7355L38.3717 45.6647Z" fill="#1A1F40"/>
<path d="M199.797 145.852L197.369 149.766L207.153 155.836L209.581 151.923L199.797 145.852Z" fill="#1A1F40"/>
<path d="M73.7542 175.358L67.6816 185.141L71.5947 187.57L77.6673 177.787L73.7542 175.358Z" fill="#1A1F40"/>
<path d="M73.7542 175.358L67.6816 185.141L71.5947 187.57L77.6673 177.787L73.7542 175.358Z" fill="#1A1F40"/>
<path d="M173.92 13.9283L167.848 23.7109L171.761 26.14L177.833 16.3573L173.92 13.9283Z" fill="#1A1F40"/>
<path d="M87.7358 6.24221L83.4551 7.94141L87.7031 18.6433L91.9838 16.9441L87.7358 6.24221Z" fill="#1A1F40"/>
<path d="M87.7358 6.24221L83.4551 7.94141L87.7031 18.6433L91.9838 16.9441L87.7358 6.24221Z" fill="#1A1F40"/>
<path d="M157.816 182.855L153.535 184.555L157.783 195.257L162.064 193.557L157.816 182.855Z" fill="#1A1F40"/>
<path d="M38.9558 131.525L28.2539 135.773L29.9531 140.054L40.655 135.806L38.9558 131.525Z" fill="#1A1F40"/>
<path d="M38.9558 131.525L28.2539 135.773L29.9531 140.054L40.655 135.806L38.9558 131.525Z" fill="#1A1F40"/>
<path d="M215.567 61.4434L204.865 65.6914L206.564 69.9722L217.266 65.7242L215.567 61.4434Z" fill="#1A1F40"/>
<path d="M31.1758 58.6976L29.3496 62.9258L39.92 67.4912L41.7462 63.2631L31.1758 58.6976Z" fill="#1A1F40"/>
<path d="M31.1758 58.6976L29.3496 62.9258L39.92 67.4912L41.7462 63.2631L31.1758 58.6976Z" fill="#1A1F40"/>
<path d="M205.623 134.037L203.797 138.266L214.367 142.831L216.193 138.603L205.623 134.037Z" fill="#1A1F40"/>
<path d="M85.2824 181.792L80.7188 192.363L84.9472 194.189L89.5108 183.618L85.2824 181.792Z" fill="#1A1F40"/>
<path d="M85.2824 181.792L80.7188 192.363L84.9472 194.189L89.5108 183.618L85.2824 181.792Z" fill="#1A1F40"/>
<path d="M160.581 7.3429L156.018 17.9141L160.246 19.7395L164.81 9.16834L160.581 7.3429Z" fill="#1A1F40"/>
<path d="M67.1228 16.7256L63.3418 19.3555L69.9164 28.808L73.6974 26.1782L67.1228 16.7256Z" fill="#1A1F40"/>
<path d="M67.1228 16.7256L63.3418 19.3555L69.9164 28.808L73.6974 26.1782L67.1228 16.7256Z" fill="#1A1F40"/>
<path d="M175.613 172.698L171.832 175.328L178.407 184.781L182.188 182.151L175.613 172.698Z" fill="#1A1F40"/>
<path d="M48.185 149.816L38.7324 156.391L41.3623 160.172L50.8148 153.597L48.185 149.816Z" fill="#1A1F40"/>
<path d="M48.185 149.816L38.7324 156.391L41.3623 160.172L50.8148 153.597L48.185 149.816Z" fill="#1A1F40"/>
<path d="M204.169 41.3512L194.717 47.9258L197.347 51.7068L206.799 45.1322L204.169 41.3512Z" fill="#1A1F40"/>
<path d="M23.9917 80.6778L23.1777 85.2109L34.5106 87.246L35.3246 82.7128L23.9917 80.6778Z" fill="#1A1F40"/>
<path d="M23.9917 80.6778L23.1777 85.2109L34.5106 87.246L35.3246 82.7128L23.9917 80.6778Z" fill="#1A1F40"/>
<path d="M211.017 114.268L210.203 118.801L221.536 120.836L222.35 116.303L211.017 114.268Z" fill="#1A1F40"/>
<path d="M104.73 188.186L102.697 199.52L107.231 200.333L109.264 188.999L104.73 188.186Z" fill="#1A1F40"/>
<path d="M104.73 188.186L102.697 199.52L107.231 200.333L109.264 188.999L104.73 188.186Z" fill="#1A1F40"/>
<path d="M138.293 1.17065L136.26 12.5039L140.793 13.3171L142.826 1.98387L138.293 1.17065Z" fill="#1A1F40"/>
</g>
<defs>
<clipPath id="clip0_530_21">
<rect width="447.511" height="272" fill="white"/>
</clipPath>
</defs>
</svg>
