<svg width="60" height="60" viewBox="0 0 60 60" fill="none" xmlns="http://www.w3.org/2000/svg">
<path d="M17.5 45.0013H37.5C38.875 45.0013 40.0525 44.5121 41.0325 43.5338C42.0125 42.5554 42.5017 41.3779 42.5 40.0013V32.5013H12.5V40.0013C12.5 41.3763 12.99 42.5537 13.97 43.5338C14.95 44.5138 16.1267 45.0029 17.5 45.0013ZM20.7325 40.7237C21.2708 40.1787 21.54 39.5171 21.54 38.7388C21.54 37.9621 21.2675 37.3054 20.7225 36.7687C20.1775 36.2304 19.5167 35.9613 18.74 35.9613C17.9617 35.9613 17.3033 36.2338 16.765 36.7788C16.2283 37.3237 15.96 37.9846 15.96 38.7612C15.96 39.5396 16.2325 40.1979 16.7775 40.7363C17.3225 41.2729 17.9833 41.5412 18.76 41.5412C19.5383 41.5412 20.1942 41.2687 20.7325 40.7237ZM38.235 40.7237C38.77 40.1787 39.0375 39.5171 39.0375 38.7388C39.0375 37.9621 38.7658 37.3054 38.2225 36.7687C37.6775 36.2304 37.0158 35.9613 36.2375 35.9613C35.4608 35.9613 34.8042 36.2338 34.2675 36.7788C33.7292 37.3237 33.46 37.9846 33.46 38.7612C33.46 39.5396 33.7325 40.1979 34.2775 40.7363C34.8225 41.2729 35.4833 41.5412 36.26 41.5412C37.0383 41.5412 37.6967 41.2687 38.235 40.7237ZM15.095 52.5013C14.74 52.5013 14.4425 52.3813 14.2025 52.1413C13.9625 51.9013 13.8425 51.6046 13.8425 51.2513V46.5112C13.0292 46.1579 12.185 45.4071 11.31 44.2587C10.435 43.1104 9.99834 41.7871 10 40.2887V17.5013C10 14.9079 11.4033 13.0096 14.21 11.8063C17.02 10.6029 21.45 10.0013 27.5 10.0013C28.6767 10.0013 29.785 10.0196 30.825 10.0562C31.865 10.0929 32.8542 10.1529 33.7925 10.2362C33.6925 10.6446 33.6125 11.0512 33.5525 11.4562C33.4925 11.8629 33.4625 12.2854 33.4625 12.7238C32.6258 12.6488 31.7133 12.5929 30.725 12.5562C29.735 12.5196 28.67 12.5013 27.53 12.5013C22.8133 12.5013 19.3 12.8138 16.99 13.4388C14.68 14.0638 13.27 15.0338 12.76 16.3488H33.89C33.9917 16.7554 34.125 17.1587 34.29 17.5588C34.4533 17.9587 34.6358 18.3888 34.8375 18.8488H12.5V30.0013H41.9675L45 32.8138V40.2887C45 41.7871 44.5625 43.1104 43.6875 44.2587C42.8125 45.4071 41.9675 46.1571 41.1525 46.5088V51.2513C41.1525 51.6063 41.0333 51.9029 40.795 52.1413C40.5567 52.3796 40.2583 52.4996 39.9 52.5013H39.325C38.97 52.5013 38.6733 52.3813 38.435 52.1413C38.1967 51.9013 38.0767 51.6046 38.075 51.2513V47.5013H16.9225V51.2513C16.9225 51.6063 16.8025 51.9029 16.5625 52.1413C16.3225 52.3796 16.0267 52.4996 15.675 52.5013H15.095ZM46.055 14.4188C45.6717 14.0304 45.48 13.5488 45.48 12.9738C45.48 12.3988 45.675 11.9196 46.065 11.5363C46.455 11.1529 46.9358 10.9612 47.5075 10.9612C48.0792 10.9612 48.5583 11.1563 48.945 11.5463C49.3317 11.9363 49.5233 12.4179 49.52 12.9913C49.5167 13.5646 49.3225 14.0429 48.9375 14.4263C48.5525 14.8096 48.0708 15.0013 47.4925 15.0013C46.9142 15.0013 46.435 14.8071 46.055 14.4188ZM51.6475 8.89375C52.7925 10.0771 53.365 11.5046 53.365 13.1763C53.365 14.4179 52.8825 15.7763 51.9175 17.2513C50.9508 18.7263 49.4833 20.3637 47.515 22.1637C45.55 20.3571 44.0783 18.7179 43.1 17.2463C42.1233 15.7762 41.635 14.4221 41.635 13.1838C41.635 11.5204 42.2067 10.0929 43.35 8.90125C44.495 7.71125 45.8783 7.11625 47.5 7.11625C49.1217 7.11625 50.5025 7.70875 51.6475 8.89375ZM47.5 25.0987C50.2017 22.7987 52.2233 20.6546 53.565 18.6663C54.9067 16.6779 55.5775 14.8446 55.5775 13.1663C55.5775 10.8829 54.8008 8.93542 53.2475 7.32375C51.6942 5.71208 49.7783 4.90625 47.5 4.90625C45.2217 4.90625 43.3058 5.71208 41.7525 7.32375C40.1992 8.93542 39.4225 10.8829 39.4225 13.1663C39.4225 14.8446 40.0933 16.6779 41.435 18.6663C42.7767 20.6546 44.7983 22.7996 47.5 25.1012" fill="#FFFFFF"/>
</svg>
