<svg width="60" height="60" viewBox="0 0 60 60" fill="none" xmlns="http://www.w3.org/2000/svg">
<path d="M20.7325 40.7237C21.2708 40.1787 21.54 39.5171 21.54 38.7388C21.54 37.9621 21.2675 37.3054 20.7225 36.7687C20.1775 36.2304 19.5167 35.9613 18.74 35.9613C17.9617 35.9613 17.3033 36.2338 16.765 36.7788C16.2283 37.3237 15.96 37.9846 15.96 38.7612C15.96 39.5396 16.2325 40.1979 16.7775 40.7363C17.3225 41.2729 17.9833 41.5412 18.76 41.5412C19.5383 41.5412 20.1942 41.2687 20.7325 40.7237ZM38.235 40.7237C38.77 40.1787 39.0375 39.5171 39.0375 38.7388C39.0375 37.9621 38.7658 37.3054 38.2225 36.7687C37.6775 36.2304 37.0158 35.9613 36.2375 35.9613C35.4608 35.9613 34.8042 36.2338 34.2675 36.7788C33.7292 37.3237 33.46 37.9846 33.46 38.7612C33.46 39.5396 33.7325 40.1979 34.2775 40.7363C34.8225 41.2729 35.4833 41.5412 36.26 41.5412C37.0383 41.5412 37.6967 41.2687 38.235 40.7237ZM15.095 52.5013C14.74 52.5013 14.4425 52.3813 14.2025 52.1413C13.9625 51.9013 13.8425 51.6046 13.8425 51.2513V46.5112C13.0292 46.1579 12.185 45.4071 11.31 44.2587C10.435 43.1104 9.99834 41.7871 10 40.2887V17.5013C10 14.9079 11.4033 13.0096 14.21 11.8063C17.02 10.6029 21.45 10.0013 27.5 10.0013C28.6767 10.0013 29.785 10.0196 30.825 10.0562C31.865 10.0929 32.8542 10.1529 33.7925 10.2362C33.6425 10.9362 33.5583 11.6521 33.54 12.3838C33.52 13.1171 33.5517 13.8596 33.635 14.6112C33.7183 15.3629 33.8683 16.0954 34.085 16.8088C34.3017 17.5221 34.5517 18.2021 34.835 18.8488H12.5V30.0013H41.9675L45 32.7663V40.2912C45 41.7879 44.5625 43.1104 43.6875 44.2587C42.8125 45.4087 41.9675 46.1588 41.1525 46.5088V51.2513C41.1525 51.6063 41.0333 51.9029 40.795 52.1413C40.5567 52.3796 40.2583 52.4996 39.9 52.5013H39.325C38.97 52.5013 38.6733 52.3813 38.435 52.1413C38.1967 51.9013 38.0767 51.6046 38.075 51.2513V47.5013H16.9225V51.2513C16.9225 51.6063 16.8025 51.9029 16.5625 52.1413C16.3225 52.3796 16.0267 52.4996 15.675 52.5013H15.095ZM48.945 14.4188C49.3283 14.0304 49.52 13.5488 49.52 12.9738C49.52 12.3988 49.3258 11.9196 48.9375 11.5363C48.5475 11.1529 48.0658 10.9612 47.4925 10.9612C46.9175 10.9612 46.4383 11.1563 46.055 11.5463C45.6717 11.9346 45.48 12.4163 45.48 12.9913C45.48 13.5663 45.6742 14.0446 46.0625 14.4263C46.4508 14.8079 46.9325 14.9996 47.5075 15.0013C48.0825 15.0029 48.5617 14.8088 48.945 14.4188ZM47.5 25.0987C44.7983 22.7987 42.7767 20.6546 41.435 18.6663C40.0933 16.6779 39.4225 14.8446 39.4225 13.1663C39.4225 10.8829 40.1992 8.93542 41.7525 7.32375C43.3058 5.71208 45.2217 4.90625 47.5 4.90625C49.7783 4.90625 51.6942 5.71208 53.2475 7.32375C54.8008 8.93542 55.5775 10.8829 55.5775 13.1663C55.5775 14.8446 54.9067 16.6779 53.565 18.6663C52.2233 20.6546 50.2017 22.7996 47.5 25.1012" fill="#1A1F40"/>
</svg>
