<svg width="55" height="55" viewBox="0 0 55 55" fill="none" xmlns="http://www.w3.org/2000/svg">
<path fill-rule="evenodd" clip-rule="evenodd" d="M33.5348 10.7643C28.3487 11.6214 22.6746 13.7091 19.0789 17.307C15.7973 20.5887 15.096 24.5029 15.5727 28.0091C15.9737 30.9264 17.1837 33.4862 18.3342 35.0422L23.0275 30.3489L21.2262 24.952C21.1787 24.8091 21.1598 24.6582 21.1705 24.5079C21.1813 24.3576 21.2216 24.211 21.289 24.0763C21.3565 23.9416 21.4498 23.8215 21.5637 23.7228C21.6776 23.6242 21.8097 23.549 21.9527 23.5014C22.0956 23.4539 22.2466 23.4349 22.3968 23.4457C22.5471 23.4565 22.6938 23.4967 22.8285 23.5642C22.9632 23.6317 23.0833 23.725 23.1819 23.8389C23.2805 23.9527 23.3558 24.0849 23.4033 24.2279L24.8379 28.5362L29.1646 24.2118L28.2708 19.7545C28.2413 19.6069 28.2412 19.4549 28.2704 19.3073C28.2997 19.1596 28.3577 19.0191 28.4412 18.8939C28.5248 18.7687 28.6321 18.6611 28.7572 18.5774C28.8823 18.4937 29.0227 18.4354 29.1703 18.4059C29.3179 18.3764 29.4699 18.3763 29.6176 18.4055C29.7652 18.4347 29.9057 18.4928 30.0309 18.5763C30.1561 18.6598 30.2637 18.7672 30.3474 18.8923C30.4312 19.0174 30.4895 19.1577 30.5189 19.3054L31.1102 22.2639L35.6683 17.7081C35.774 17.5986 35.9005 17.5113 36.0403 17.4513C36.1801 17.3912 36.3304 17.3596 36.4825 17.3583C36.6347 17.357 36.7856 17.386 36.9264 17.4436C37.0672 17.5012 37.1951 17.5863 37.3027 17.6939C37.4103 17.8015 37.4954 17.9294 37.553 18.0702C37.6106 18.211 37.6396 18.3619 37.6383 18.5141C37.637 18.6662 37.6054 18.8165 37.5453 18.9563C37.4853 19.0961 37.398 19.2226 37.2885 19.3283L32.7327 23.8864L35.6889 24.4777C35.9768 24.5469 36.2266 24.7248 36.3861 24.9742C36.5457 25.2236 36.6025 25.525 36.5447 25.8153C36.4869 26.1056 36.3191 26.3623 36.0762 26.5316C35.8334 26.7009 35.5345 26.7697 35.2421 26.7235L30.7848 25.832L26.4581 30.1587L30.7687 31.5956C30.9167 31.6387 31.0544 31.7113 31.1737 31.8089C31.293 31.9066 31.3913 32.0273 31.4629 32.1638C31.5344 32.3003 31.5777 32.4499 31.59 32.6035C31.6024 32.7571 31.5837 32.9117 31.5349 33.0579C31.4862 33.2041 31.4085 33.339 31.3064 33.4545C31.2043 33.57 31.0799 33.6637 30.9408 33.73C30.8017 33.7963 30.6506 33.8338 30.4966 33.8404C30.3426 33.8469 30.1888 33.8223 30.0446 33.7681L24.6477 31.9691L19.9544 36.6624C21.5127 37.8129 24.0702 39.0229 26.9875 39.4216C30.4937 39.9029 34.4079 39.1993 37.6896 35.9177C41.2875 32.3197 43.3752 26.6479 44.23 21.4618C44.6562 18.886 44.7662 16.4889 44.6264 14.6097C44.5813 13.8243 44.4553 13.0456 44.2506 12.286C44.0673 11.6604 43.8748 11.351 43.7602 11.2364C43.6456 11.1218 43.3362 10.927 42.7106 10.746C41.951 10.5413 41.1723 10.4153 40.3869 10.3702C38.5077 10.2304 36.1106 10.3404 33.5348 10.7643ZM18.3181 38.2964C20.2064 39.7768 23.2589 41.2252 26.6781 41.6927C30.7344 42.2472 35.4185 41.4314 39.3098 37.5402C43.389 33.461 45.5981 27.2506 46.4919 21.8354C46.941 19.1106 47.0671 16.5279 46.9112 14.4379C46.8333 13.3929 46.6821 12.4441 46.4529 11.6489C46.2283 10.8812 45.8983 10.1341 45.3804 9.61619C44.8625 9.09828 44.1154 8.76828 43.3477 8.54599C42.4363 8.29781 41.5017 8.14422 40.5587 8.08765C38.4687 7.92724 35.8837 8.05557 33.1612 8.50474C27.7483 9.39849 21.5333 11.6099 17.4564 15.6845C13.5652 19.5781 12.7494 24.2622 13.3039 28.3208C13.7714 31.7354 15.2198 34.7902 16.7002 36.6762L8.35166 45.0224C8.1365 45.2376 8.01562 45.5294 8.01562 45.8337C8.01563 46.138 8.1365 46.4298 8.35166 46.6449C8.56681 46.8601 8.85863 46.981 9.16291 46.981C9.46718 46.981 9.759 46.8601 9.97416 46.6449L18.3181 38.2964Z" fill="#1A1F40"/>
</svg>
