<svg width="60" height="60" viewBox="0 0 60 60" fill="none" xmlns="http://www.w3.org/2000/svg">
<path d="M5 55.0001V50.0001C5 50.0001 17.5 45.0001 30 45.0001C42.5 45.0001 55 50.0001 55 50.0001V55.0001H5ZM28.25 22.7501C25.25 13.0001 10 15.2501 10 15.2501C10 15.2501 10.5 34.7501 24.75 31.7501C23.75 24.5001 20 22.5001 20 22.5001C27 22.5001 27.5 31.0001 27.5 31.0001V42.5001H32.5V32.0001C32.5 32.0001 32.5 22.2501 40 19.7501C40 19.7501 35 27.2501 35 32.2501C52.5 34.0001 52.5 10.0001 52.5 10.0001C52.5 10.0001 30.25 7.50007 28.25 22.7501Z" fill="#1A1F40"/>
</svg>
