<svg width="24" height="24" viewBox="0 0 24 24" fill="none" xmlns="http://www.w3.org/2000/svg">
<path d="M20.9485 3.75655C20.9378 3.57307 20.8601 3.39991 20.7301 3.26994C20.6001 3.13998 20.427 3.06226 20.2435 3.05155C13.1063 2.63249 7.38943 4.78124 4.95193 8.81249C4.10707 10.1915 3.69072 11.7903 3.75568 13.4062C3.80911 14.8987 4.24411 16.4062 5.04849 17.8922L3.21943 19.7203C3.0787 19.861 2.99963 20.0519 2.99963 20.2509C2.99963 20.4499 3.0787 20.6408 3.21943 20.7815C3.36016 20.9223 3.55103 21.0013 3.75005 21.0013C3.94907 21.0013 4.13995 20.9223 4.28068 20.7815L6.1088 18.9525C7.5938 19.7559 9.10224 20.1909 10.5938 20.2444C10.6982 20.2481 10.8022 20.25 10.906 20.25C12.417 20.254 13.8994 19.8379 15.1876 19.0481C19.2188 16.6106 21.3685 10.8947 20.9485 3.75655ZM14.4141 17.7656C12.2813 19.0575 9.75661 19.0781 7.22255 17.8378L15.5316 9.52967C15.6013 9.45999 15.6566 9.37727 15.6943 9.28622C15.732 9.19518 15.7514 9.0976 15.7514 8.99905C15.7514 8.9005 15.732 8.80292 15.6943 8.71188C15.6566 8.62083 15.6013 8.53811 15.5316 8.46842C15.4619 8.39874 15.3792 8.34347 15.2882 8.30575C15.1971 8.26804 15.0995 8.24863 15.001 8.24863C14.9024 8.24863 14.8049 8.26804 14.7138 8.30575C14.6228 8.34347 14.54 8.39874 14.4704 8.46842L6.16224 16.7812C4.92568 14.25 4.94349 11.7187 6.23443 9.58967C8.30536 6.17061 13.2282 4.29842 19.4822 4.52155C19.7063 10.7709 17.8332 15.6947 14.4141 17.7656Z" fill="#1A1F40"/>
</svg>
