<svg width="60" height="60" viewBox="0 0 60 60" fill="none" xmlns="http://www.w3.org/2000/svg">
<path d="M30 10L27.13 14.7825C24.875 18.5425 23.75 20.4225 23.75 22.5C23.75 24.575 24.875 26.4575 27.1325 30.2175L28.9325 33.2125C29.4075 34.0125 29.65 34.4125 30.0025 34.4125C30.355 34.4125 30.595 34.0125 31.075 33.2125L32.8725 30.2175C35.125 26.4575 36.25 24.5775 36.25 22.5C36.25 20.425 35.125 18.5425 32.8675 14.7825L30 10ZM30 10V5M50.4 31.495L44.825 31.4025C40.44 31.3275 38.25 31.29 36.45 32.3275C34.65 33.3675 33.585 35.285 31.4575 39.12L29.7625 42.1725C29.31 42.9875 29.085 43.395 29.2625 43.7C29.4375 44.0075 29.9025 44.015 30.8325 44.03L34.3275 44.09C38.71 44.165 40.9025 44.2 42.7025 43.16C44.5025 42.1225 45.565 40.205 47.695 36.3725L50.4 31.495ZM50.4 31.495L54.73 28.995" stroke="black" stroke-width="1.33333"/>
<path d="M9.60344 31.4941L15.1784 31.4016C19.5634 31.3266 21.7534 31.2891 23.5534 32.3266C25.3534 33.3666 26.4184 35.2841 28.5459 39.1191L30.2409 42.1716C30.6934 42.9866 30.9184 43.3941 30.7409 43.6991C30.5659 44.0066 30.1009 44.0141 29.1709 44.0291L25.6759 44.0891C21.2934 44.1641 19.1009 44.1991 17.3009 43.1591C15.5009 42.1216 14.4384 40.2041 12.3109 36.3716L9.60344 31.4941ZM9.60344 31.4941L5.27344 28.9941M30.0034 37.4991V56.2491" stroke="black" stroke-width="1.33333"/>
</svg>
