<svg width="500" height="500" viewBox="0 0 500 500" fill="none" xmlns="http://www.w3.org/2000/svg">
<path d="M425.6 320.52C427.191 307.768 427.439 294.884 426.34 282.08C417.34 170.08 328.17 51.53 227.73 79.01C193 88.5 167.31 114.43 152 151.68C140.76 179 132.79 211 114.51 232.85C84.51 268.75 48.35 324.91 93.84 373.95C139.33 422.99 195.15 391.15 242.7 388.62C282.7 386.49 323.07 402.14 362.92 396.51C400.77 391.16 420.45 360 425.6 320.52Z" fill="#6282ED"/>
<path opacity="0.8" d="M425.6 320.52C427.191 307.768 427.439 294.884 426.34 282.08C417.34 170.08 328.17 51.53 227.73 79.01C193 88.5 167.31 114.43 152 151.68C140.76 179 132.79 211 114.51 232.85C84.51 268.75 48.35 324.91 93.84 373.95C139.33 422.99 195.15 391.15 242.7 388.62C282.7 386.49 323.07 402.14 362.92 396.51C400.77 391.16 420.45 360 425.6 320.52Z" fill="white"/>
<path d="M414.44 160.51C409.98 158.08 407.95 160.1 406.33 158.08C404.71 156.06 410.79 150.78 398.63 145.51C398.63 145.51 397.82 134.16 381.2 133.75C364.58 133.34 369 145.1 364.57 147.94C360.14 150.78 358.9 146.32 354.44 149.16C349.98 152 352.01 157.67 348.36 158.48C344.71 159.29 339.84 154.83 335.36 157.67C330.88 160.51 330.91 162.94 328.88 162.94C326.85 162.94 322.8 161.32 320.36 162.94C317.92 164.56 315.09 166.59 315.09 166.59H417.68C417.68 166.59 418.9 162.94 414.44 160.51Z" fill="white" stroke="#263238" stroke-linecap="round" stroke-linejoin="round"/>
<path d="M157.28 220.52C155.03 219.29 154 220.31 153.18 219.29C152.36 218.27 155.44 215.6 149.29 212.94C149.29 212.94 148.88 207.21 140.49 207.01C132.1 206.81 134.35 212.74 132.09 214.17C129.83 215.6 129.23 213.35 126.98 214.79C124.73 216.23 125.75 219.09 123.9 219.5C122.05 219.91 119.6 217.65 117.35 219.09C115.1 220.53 115.1 221.75 114.08 221.75C113.06 221.75 111 220.93 109.78 221.75C108.56 222.57 107.11 223.59 107.11 223.59H158.92C158.92 223.59 159.53 221.75 157.28 220.52Z" fill="white" stroke="#263238" stroke-linecap="round" stroke-linejoin="round"/>
<path d="M251.28 131.52C249.03 130.29 248 131.31 247.18 130.29C246.36 129.27 249.44 126.6 243.29 123.94C243.29 123.94 242.88 118.21 234.49 118.01C226.1 117.81 228.35 123.74 226.09 125.17C223.83 126.6 223.23 124.35 220.98 125.79C218.73 127.23 219.75 130.09 217.9 130.5C216.05 130.91 213.6 128.65 211.35 130.09C209.1 131.53 209.1 132.75 208.08 132.75C207.06 132.75 205 131.93 203.78 132.75C202.56 133.57 201.11 134.59 201.11 134.59H252.92C252.92 134.59 253.53 132.75 251.28 131.52Z" fill="white" stroke="#263238" stroke-linecap="round" stroke-linejoin="round"/>
<path d="M385.77 402.67H434C433.08 396.78 429.29 397.82 428.79 388.67C428.54 384.07 432.79 378.38 432.43 372.34C432.12 367.34 427.21 362.26 426.83 356.56C426.49 351.42 430.68 345.72 430.27 340.18C429.89 334.95 424.91 329.92 424.47 324.48C424.03 319.04 428.14 313.41 427.66 308.05C427.18 302.69 422.11 297.74 421.58 292.45C421.05 287.16 424.99 281.16 424.39 275.95C423.74 270.43 418.53 265.65 417.82 260.56C417.03 254.89 420.73 248.84 419.82 243.95C418.76 237.95 413.18 233.61 412.01 229.19C409.82 220.95 410.09 213 407.51 212.49C404.75 211.93 404.12 219.72 402.03 228.42C401.03 232.8 395.52 237.23 394.63 243.23C393.9 248.09 397.76 253.99 397.13 259.64C396.56 264.69 391.48 269.55 390.99 275.05C390.52 280.22 394.65 285.92 394.24 291.32C393.83 296.72 388.91 301.59 388.57 306.92C388.23 312.25 392.48 317.85 392.19 323.11C391.9 328.37 387.06 333.61 386.81 338.81C386.55 344.3 390.88 349.81 390.67 354.94C390.44 360.59 385.67 365.77 385.49 370.71C385.27 376.71 389.67 382.23 389.54 386.79C389.24 396.7 384.71 394.65 384.54 402.62L385.77 402.67Z" fill="#6282ED"/>
<path opacity="0.5" d="M385.77 402.67H434C433.08 396.78 429.29 397.82 428.79 388.67C428.54 384.07 432.79 378.38 432.43 372.34C432.12 367.34 427.21 362.26 426.83 356.56C426.49 351.42 430.68 345.72 430.27 340.18C429.89 334.95 424.91 329.92 424.47 324.48C424.03 319.04 428.14 313.41 427.66 308.05C427.18 302.69 422.11 297.74 421.58 292.45C421.05 287.16 424.99 281.16 424.39 275.95C423.74 270.43 418.53 265.65 417.82 260.56C417.03 254.89 420.73 248.84 419.82 243.95C418.76 237.95 413.18 233.61 412.01 229.19C409.82 220.95 410.09 213 407.51 212.49C404.75 211.93 404.12 219.72 402.03 228.42C401.03 232.8 395.52 237.23 394.63 243.23C393.9 248.09 397.76 253.99 397.13 259.64C396.56 264.69 391.48 269.55 390.99 275.05C390.52 280.22 394.65 285.92 394.24 291.32C393.83 296.72 388.91 301.59 388.57 306.92C388.23 312.25 392.48 317.85 392.19 323.11C391.9 328.37 387.06 333.61 386.81 338.81C386.55 344.3 390.88 349.81 390.67 354.94C390.44 360.59 385.67 365.77 385.49 370.71C385.27 376.71 389.67 382.23 389.54 386.79C389.24 396.7 384.71 394.65 384.54 402.62L385.77 402.67Z" fill="white"/>
<path d="M406.46 228.34V400.45" stroke="#263238" stroke-miterlimit="10"/>
<path d="M413.98 246.38L406.14 253.15L399.72 244.59" stroke="#263238" stroke-miterlimit="10"/>
<path d="M413.98 276.34L406.14 283.11L399.72 274.55" stroke="#263238" stroke-miterlimit="10"/>
<path d="M413.98 304.51L406.14 311.29L399.72 302.73" stroke="#263238" stroke-miterlimit="10"/>
<path d="M413.98 338.04L406.14 344.81L399.72 336.25" stroke="#263238" stroke-miterlimit="10"/>
<path d="M413.98 371.92L406.14 378.69L399.72 370.13" stroke="#263238" stroke-miterlimit="10"/>
<path d="M61 402.67H109.2C108.27 396.78 104.49 397.82 103.98 388.67C103.73 384.07 107.98 378.38 107.62 372.34C107.32 367.34 102.41 362.26 102.03 356.56C101.68 351.42 105.87 345.72 105.47 340.18C105.08 334.95 100.11 329.92 99.67 324.48C99.23 319.04 103.34 313.41 102.86 308.05C102.38 302.69 97.31 297.74 96.77 292.45C96.23 287.16 100.19 281.16 99.58 275.95C98.94 270.43 93.72 265.65 93.02 260.56C92.23 254.89 95.92 248.84 95.02 243.95C93.96 237.95 88.38 233.61 87.2 229.19C85.09 221 85.36 213 82.78 212.5C80.02 211.94 79.39 219.73 77.3 228.43C76.3 232.81 70.79 237.24 69.89 243.24C69.17 248.1 73.03 254 72.39 259.65C71.83 264.7 66.75 269.56 66.25 275.06C65.79 280.23 69.91 285.93 69.51 291.33C69.11 296.73 64.18 301.6 63.84 306.93C63.5 312.26 67.75 317.86 67.46 323.12C67.17 328.38 62.32 333.62 62.07 338.82C61.81 344.31 66.15 349.82 65.94 354.95C65.7 360.6 60.94 365.78 60.75 370.72C60.54 376.72 64.94 382.24 64.75 386.8C64.46 396.71 59.92 394.66 59.75 402.63L61 402.67Z" fill="#6282ED"/>
<path opacity="0.5" d="M61 402.67H109.2C108.27 396.78 104.49 397.82 103.98 388.67C103.73 384.07 107.98 378.38 107.62 372.34C107.32 367.34 102.41 362.26 102.03 356.56C101.68 351.42 105.87 345.72 105.47 340.18C105.08 334.95 100.11 329.92 99.67 324.48C99.23 319.04 103.34 313.41 102.86 308.05C102.38 302.69 97.31 297.74 96.77 292.45C96.23 287.16 100.19 281.16 99.58 275.95C98.94 270.43 93.72 265.65 93.02 260.56C92.23 254.89 95.92 248.84 95.02 243.95C93.96 237.95 88.38 233.61 87.2 229.19C85.09 221 85.36 213 82.78 212.5C80.02 211.94 79.39 219.73 77.3 228.43C76.3 232.81 70.79 237.24 69.89 243.24C69.17 248.1 73.03 254 72.39 259.65C71.83 264.7 66.75 269.56 66.25 275.06C65.79 280.23 69.91 285.93 69.51 291.33C69.11 296.73 64.18 301.6 63.84 306.93C63.5 312.26 67.75 317.86 67.46 323.12C67.17 328.38 62.32 333.62 62.07 338.82C61.81 344.31 66.15 349.82 65.94 354.95C65.7 360.6 60.94 365.78 60.75 370.72C60.54 376.72 64.94 382.24 64.75 386.8C64.46 396.71 59.92 394.66 59.75 402.63L61 402.67Z" fill="white"/>
<path d="M81.72 228.34V400.45" stroke="#263238" stroke-miterlimit="10"/>
<path d="M89.25 246.38L81.4 253.15L74.98 244.59" stroke="#263238" stroke-miterlimit="10"/>
<path d="M89.25 276.34L81.4 283.11L74.98 274.55" stroke="#263238" stroke-miterlimit="10"/>
<path d="M89.25 304.51L81.4 311.29L74.98 302.73" stroke="#263238" stroke-miterlimit="10"/>
<path d="M89.25 338.04L81.4 344.81L74.98 336.25" stroke="#263238" stroke-miterlimit="10"/>
<path d="M89.25 371.92L81.4 378.69L74.98 370.13" stroke="#263238" stroke-miterlimit="10"/>
<path d="M314.71 402.67H350.71C350.02 398.27 347.19 399.05 346.82 392.22C346.63 388.79 349.82 384.54 349.53 380.02C349.31 376.3 345.64 372.49 345.36 368.24C345.1 364.4 348.23 360.14 347.92 356.01C347.64 352.09 343.92 348.34 343.59 344.28C343.26 340.22 346.33 336 346 332C345.67 328 341.85 324.31 341.45 320.36C341.05 316.41 344 311.92 343.55 308.03C343.07 303.9 339.17 300.34 338.65 296.54C338.06 292.3 340.82 287.78 340.17 284.13C339.38 279.65 335.17 276.41 334.33 273.13C332.67 267 332.87 261 331 260.63C329.13 260.26 328.47 266.03 326.9 272.53C326.12 275.8 322.04 279.11 321.37 283.59C320.83 287.22 323.71 291.59 323.24 295.85C322.82 299.62 319.02 303.25 318.65 307.36C318.3 311.22 321.39 315.48 321.08 319.51C320.77 323.54 317.08 327.18 316.85 331.16C316.62 335.14 319.77 339.32 319.56 343.26C319.35 347.2 315.72 351.1 315.56 354.98C315.37 359.08 318.56 363.22 318.45 366.98C318.27 371.2 314.71 375.07 314.57 378.75C314.42 383.23 317.7 387.36 317.57 390.75C317.35 398.15 313.96 396.62 313.84 402.57L314.71 402.67Z" fill="#6282ED"/>
<path opacity="0.5" d="M314.71 402.67H350.71C350.02 398.27 347.19 399.05 346.82 392.22C346.63 388.79 349.82 384.54 349.53 380.02C349.31 376.3 345.64 372.49 345.36 368.24C345.1 364.4 348.23 360.14 347.92 356.01C347.64 352.09 343.92 348.34 343.59 344.28C343.26 340.22 346.33 336 346 332C345.67 328 341.85 324.31 341.45 320.36C341.05 316.41 344 311.92 343.55 308.03C343.07 303.9 339.17 300.34 338.65 296.54C338.06 292.3 340.82 287.78 340.17 284.13C339.38 279.65 335.17 276.41 334.33 273.13C332.67 267 332.87 261 331 260.63C329.13 260.26 328.47 266.03 326.9 272.53C326.12 275.8 322.04 279.11 321.37 283.59C320.83 287.22 323.71 291.59 323.24 295.85C322.82 299.62 319.02 303.25 318.65 307.36C318.3 311.22 321.39 315.48 321.08 319.51C320.77 323.54 317.08 327.18 316.85 331.16C316.62 335.14 319.77 339.32 319.56 343.26C319.35 347.2 315.72 351.1 315.56 354.98C315.37 359.08 318.56 363.22 318.45 366.98C318.27 371.2 314.71 375.07 314.57 378.75C314.42 383.23 317.7 387.36 317.57 390.75C317.35 398.15 313.96 396.62 313.84 402.57L314.71 402.67Z" fill="white"/>
<path d="M330.16 272.46V401.01" stroke="#263238" stroke-miterlimit="10"/>
<path d="M335.78 285.94L329.92 291L325.12 284.6" stroke="#263238" stroke-miterlimit="10"/>
<path d="M335.78 308.31L329.92 313.37L325.12 306.98" stroke="#263238" stroke-miterlimit="10"/>
<path d="M335.78 329.36L329.92 334.42L325.12 328.02" stroke="#263238" stroke-miterlimit="10"/>
<path d="M335.78 354.39L329.92 359.46L325.12 353.06" stroke="#263238" stroke-miterlimit="10"/>
<path d="M335.78 379.7L329.92 384.76L325.12 378.37" stroke="#263238" stroke-miterlimit="10"/>
<path d="M429.71 402.67H465.71C465.02 398.27 462.19 399.05 461.82 392.22C461.63 388.79 464.82 384.54 464.53 380.02C464.31 376.3 460.64 372.49 460.36 368.24C460.1 364.4 463.23 360.14 462.92 356.01C462.64 352.09 458.92 348.34 458.59 344.28C458.26 340.22 461.33 336 461 332C460.67 328 456.85 324.31 456.45 320.36C456.05 316.41 459 311.92 458.55 308.03C458.07 303.9 454.17 300.34 453.65 296.54C453.06 292.3 455.82 287.78 455.17 284.13C454.38 279.65 450.17 276.41 449.33 273.13C447.67 267 447.87 261 446 260.63C444.13 260.26 443.47 266.03 441.9 272.53C441.12 275.8 437.04 279.11 436.37 283.59C435.83 287.22 438.71 291.59 438.24 295.85C437.82 299.62 434.02 303.25 433.65 307.36C433.3 311.22 436.39 315.48 436.08 319.51C435.77 323.54 432.08 327.18 431.85 331.16C431.62 335.14 434.77 339.32 434.56 343.26C434.35 347.2 430.72 351.1 430.56 354.98C430.37 359.08 433.56 363.22 433.45 366.98C433.27 371.2 429.71 375.07 429.57 378.75C429.42 383.23 432.7 387.36 432.57 390.75C432.35 398.15 428.96 396.62 428.84 402.57L429.71 402.67Z" fill="#6282ED"/>
<path opacity="0.5" d="M429.71 402.67H465.71C465.02 398.27 462.19 399.05 461.82 392.22C461.63 388.79 464.82 384.54 464.53 380.02C464.31 376.3 460.64 372.49 460.36 368.24C460.1 364.4 463.23 360.14 462.92 356.01C462.64 352.09 458.92 348.34 458.59 344.28C458.26 340.22 461.33 336 461 332C460.67 328 456.85 324.31 456.45 320.36C456.05 316.41 459 311.92 458.55 308.03C458.07 303.9 454.17 300.34 453.65 296.54C453.06 292.3 455.82 287.78 455.17 284.13C454.38 279.65 450.17 276.41 449.33 273.13C447.67 267 447.87 261 446 260.63C444.13 260.26 443.47 266.03 441.9 272.53C441.12 275.8 437.04 279.11 436.37 283.59C435.83 287.22 438.71 291.59 438.24 295.85C437.82 299.62 434.02 303.25 433.65 307.36C433.3 311.22 436.39 315.48 436.08 319.51C435.77 323.54 432.08 327.18 431.85 331.16C431.62 335.14 434.77 339.32 434.56 343.26C434.35 347.2 430.72 351.1 430.56 354.98C430.37 359.08 433.56 363.22 433.45 366.98C433.27 371.2 429.71 375.07 429.57 378.75C429.42 383.23 432.7 387.36 432.57 390.75C432.35 398.15 428.96 396.62 428.84 402.57L429.71 402.67Z" fill="white"/>
<path d="M445.16 272.46V401.01" stroke="#263238" stroke-miterlimit="10"/>
<path d="M450.78 285.94L444.92 291L440.12 284.6" stroke="#263238" stroke-miterlimit="10"/>
<path d="M450.78 308.31L444.92 313.37L440.12 306.98" stroke="#263238" stroke-miterlimit="10"/>
<path d="M450.78 329.36L444.92 334.42L440.12 328.02" stroke="#263238" stroke-miterlimit="10"/>
<path d="M450.78 354.39L444.92 359.46L440.12 353.06" stroke="#263238" stroke-miterlimit="10"/>
<path d="M450.78 379.7L444.92 384.76L440.12 378.37" stroke="#263238" stroke-miterlimit="10"/>
<path d="M275 402.67H311C310.3 398.27 307.48 399.05 307.1 392.22C306.91 388.79 310.1 384.54 309.82 380.02C309.59 376.3 305.93 372.49 305.64 368.24C305.38 364.4 308.51 360.14 308.21 356.01C307.92 352.09 304.21 348.34 303.88 344.28C303.55 340.22 306.62 336.01 306.26 332C305.9 327.99 302.12 324.31 301.71 320.36C301.3 316.41 304.27 311.92 303.81 308.03C303.33 303.9 299.44 300.34 298.91 296.54C298.32 292.3 301.08 287.78 300.43 284.13C299.64 279.65 295.48 276.41 294.6 273.13C293 267 293.19 261 291.26 260.63C289.33 260.26 288.73 266.03 287.17 272.53C286.38 275.8 282.31 279.11 281.64 283.59C281.09 287.22 283.98 291.59 283.5 295.85C283.08 299.62 279.29 303.25 278.92 307.36C278.57 311.22 281.65 315.48 281.35 319.51C281.05 323.54 277.35 327.18 277.11 331.16C276.87 335.14 280.04 339.32 279.82 343.26C279.6 347.2 275.98 351.1 275.82 354.98C275.62 359.08 278.82 363.22 278.7 366.98C278.53 371.2 274.96 375.07 274.83 378.75C274.67 383.23 277.96 387.36 277.83 390.75C277.61 398.15 274.23 396.62 274.11 402.57L275 402.67Z" fill="#6282ED"/>
<path opacity="0.5" d="M275 402.67H311C310.3 398.27 307.48 399.05 307.1 392.22C306.91 388.79 310.1 384.54 309.82 380.02C309.59 376.3 305.93 372.49 305.64 368.24C305.38 364.4 308.51 360.14 308.21 356.01C307.92 352.09 304.21 348.34 303.88 344.28C303.55 340.22 306.62 336.01 306.26 332C305.9 327.99 302.12 324.31 301.71 320.36C301.3 316.41 304.27 311.92 303.81 308.03C303.33 303.9 299.44 300.34 298.91 296.54C298.32 292.3 301.08 287.78 300.43 284.13C299.64 279.65 295.48 276.41 294.6 273.13C293 267 293.19 261 291.26 260.63C289.33 260.26 288.73 266.03 287.17 272.53C286.38 275.8 282.31 279.11 281.64 283.59C281.09 287.22 283.98 291.59 283.5 295.85C283.08 299.62 279.29 303.25 278.92 307.36C278.57 311.22 281.65 315.48 281.35 319.51C281.05 323.54 277.35 327.18 277.11 331.16C276.87 335.14 280.04 339.32 279.82 343.26C279.6 347.2 275.98 351.1 275.82 354.98C275.62 359.08 278.82 363.22 278.7 366.98C278.53 371.2 274.96 375.07 274.83 378.75C274.67 383.23 277.96 387.36 277.83 390.75C277.61 398.15 274.23 396.62 274.11 402.57L275 402.67Z" fill="white"/>
<path d="M290.47 272.46V401.01" stroke="#263238" stroke-miterlimit="10"/>
<path d="M296.09 285.94L290.23 291L285.44 284.6" stroke="#263238" stroke-miterlimit="10"/>
<path d="M296.09 308.31L290.23 313.37L285.44 306.98" stroke="#263238" stroke-miterlimit="10"/>
<path d="M296.09 329.36L290.23 334.42L285.44 328.02" stroke="#263238" stroke-miterlimit="10"/>
<path d="M296.09 354.39L290.23 359.46L285.44 353.06" stroke="#263238" stroke-miterlimit="10"/>
<path d="M296.09 379.7L290.23 384.76L285.44 378.37" stroke="#263238" stroke-miterlimit="10"/>
<path d="M205.1 402.67H241.1C240.41 398.27 237.58 399.05 237.21 392.22C237.02 388.79 240.21 384.54 239.92 380.02C239.7 376.3 236.03 372.49 235.75 368.24C235.49 364.4 238.62 360.14 238.32 356.01C238.03 352.09 234.32 348.34 233.98 344.28C233.64 340.22 236.73 336.01 236.37 332C236.01 327.99 232.22 324.31 231.82 320.36C231.42 316.41 234.37 311.92 233.92 308.03C233.44 303.9 229.54 300.34 229.02 296.54C228.43 292.3 231.19 287.78 230.54 284.13C229.75 279.65 225.54 276.41 224.7 273.13C223.07 266.98 223.27 261.04 221.35 260.66C219.28 260.25 218.82 266.06 217.25 272.56C216.47 275.83 212.39 279.14 211.72 283.62C211.18 287.25 214.06 291.62 213.59 295.88C213.17 299.65 209.37 303.28 209 307.39C208.65 311.25 211.74 315.51 211.43 319.54C211.12 323.57 207.43 327.21 207.2 331.19C206.97 335.17 210.12 339.35 209.91 343.29C209.7 347.23 206.07 351.13 205.91 355.01C205.72 359.11 208.91 363.25 208.8 367.01C208.62 371.23 205.06 375.1 204.92 378.78C204.77 383.26 208.05 387.39 207.92 390.78C207.7 398.18 204.31 396.65 204.19 402.6L205.1 402.67Z" fill="#6282ED"/>
<path opacity="0.5" d="M205.1 402.67H241.1C240.41 398.27 237.58 399.05 237.21 392.22C237.02 388.79 240.21 384.54 239.92 380.02C239.7 376.3 236.03 372.49 235.75 368.24C235.49 364.4 238.62 360.14 238.32 356.01C238.03 352.09 234.32 348.34 233.98 344.28C233.64 340.22 236.73 336.01 236.37 332C236.01 327.99 232.22 324.31 231.82 320.36C231.42 316.41 234.37 311.92 233.92 308.03C233.44 303.9 229.54 300.34 229.02 296.54C228.43 292.3 231.19 287.78 230.54 284.13C229.75 279.65 225.54 276.41 224.7 273.13C223.07 266.98 223.27 261.04 221.35 260.66C219.28 260.25 218.82 266.06 217.25 272.56C216.47 275.83 212.39 279.14 211.72 283.62C211.18 287.25 214.06 291.62 213.59 295.88C213.17 299.65 209.37 303.28 209 307.39C208.65 311.25 211.74 315.51 211.43 319.54C211.12 323.57 207.43 327.21 207.2 331.19C206.97 335.17 210.12 339.35 209.91 343.29C209.7 347.23 206.07 351.13 205.91 355.01C205.72 359.11 208.91 363.25 208.8 367.01C208.62 371.23 205.06 375.1 204.92 378.78C204.77 383.26 208.05 387.39 207.92 390.78C207.7 398.18 204.31 396.65 204.19 402.6L205.1 402.67Z" fill="white"/>
<path d="M220.55 272.46V401.01" stroke="#263238" stroke-miterlimit="10"/>
<path d="M226.17 285.94L220.31 291L215.51 284.6" stroke="#263238" stroke-miterlimit="10"/>
<path d="M226.17 308.31L220.31 313.37L215.51 306.98" stroke="#263238" stroke-miterlimit="10"/>
<path d="M226.17 329.36L220.31 334.42L215.51 328.02" stroke="#263238" stroke-miterlimit="10"/>
<path d="M226.17 354.39L220.31 359.46L215.51 353.06" stroke="#263238" stroke-miterlimit="10"/>
<path d="M226.17 379.7L220.31 384.76L215.51 378.37" stroke="#263238" stroke-miterlimit="10"/>
<path d="M117.13 391.34H147.35C146.77 387.64 144.4 388.34 144.08 382.56C143.92 379.68 146.59 376.11 146.36 372.32C146.17 369.2 143.09 366 142.85 362.43C142.64 359.2 145.27 355.63 145.01 352.16C144.77 348.87 141.65 345.72 141.37 342.31C141.09 338.9 143.68 335.37 143.37 332.01C143.06 328.65 139.9 325.55 139.56 322.23C139.22 318.91 141.7 315.15 141.32 311.88C140.92 308.42 137.65 305.42 137.2 302.23C136.71 298.68 139.03 294.88 138.48 291.81C137.82 288.05 134.32 285.33 133.58 282.56C132.21 277.39 132.38 272.41 130.76 272.09C129.14 271.77 128.64 276.62 127.33 282.09C126.67 284.83 123.25 287.61 122.69 291.37C122.23 294.42 124.69 298.12 124.25 301.66C123.9 304.83 120.71 307.88 120.4 311.33C120.11 314.57 122.7 318.14 122.4 321.53C122.1 324.92 119.06 327.96 118.85 331.31C118.64 334.66 121.3 338.16 121.12 341.46C120.94 344.76 117.9 348.05 117.74 351.31C117.58 354.75 120.3 358.23 120.16 361.42C120.02 364.96 117.02 368.21 116.91 371.31C116.78 375.06 119.54 378.53 119.45 381.39C119.27 387.61 116.45 386.32 116.32 391.32L117.13 391.34Z" fill="#6282ED"/>
<path opacity="0.5" d="M117.13 391.34H147.35C146.77 387.64 144.4 388.34 144.08 382.56C143.92 379.68 146.59 376.11 146.36 372.32C146.17 369.2 143.09 366 142.85 362.43C142.64 359.2 145.27 355.63 145.01 352.16C144.77 348.87 141.65 345.72 141.37 342.31C141.09 338.9 143.68 335.37 143.37 332.01C143.06 328.65 139.9 325.55 139.56 322.23C139.22 318.91 141.7 315.15 141.32 311.88C140.92 308.42 137.65 305.42 137.2 302.23C136.71 298.68 139.03 294.88 138.48 291.81C137.82 288.05 134.32 285.33 133.58 282.56C132.21 277.39 132.38 272.41 130.76 272.09C129.14 271.77 128.64 276.62 127.33 282.09C126.67 284.83 123.25 287.61 122.69 291.37C122.23 294.42 124.69 298.12 124.25 301.66C123.9 304.83 120.71 307.88 120.4 311.33C120.11 314.57 122.7 318.14 122.4 321.53C122.1 324.92 119.06 327.96 118.85 331.31C118.64 334.66 121.3 338.16 121.12 341.46C120.94 344.76 117.9 348.05 117.74 351.31C117.58 354.75 120.3 358.23 120.16 361.42C120.02 364.96 117.02 368.21 116.91 371.31C116.78 375.06 119.54 378.53 119.45 381.39C119.27 387.61 116.45 386.32 116.32 391.32L117.13 391.34Z" fill="white"/>
<path d="M130.1 282.02V389.94" stroke="#263238" stroke-miterlimit="10"/>
<path d="M134.82 293.33L129.9 297.58L125.88 292.21" stroke="#263238" stroke-miterlimit="10"/>
<path d="M134.82 312.12L129.9 316.37L125.88 311" stroke="#263238" stroke-miterlimit="10"/>
<path d="M134.82 329.78L129.9 334.03L125.88 328.67" stroke="#263238" stroke-miterlimit="10"/>
<path d="M134.82 350.81L129.9 355.05L125.88 349.69" stroke="#263238" stroke-miterlimit="10"/>
<path d="M134.82 372.05L129.9 376.3L125.88 370.93" stroke="#263238" stroke-miterlimit="10"/>
<path d="M162.91 402.67H207.07C206.22 397.27 202.75 398.22 202.29 389.85C202.06 385.64 205.96 380.42 205.63 374.85C205.35 370.28 200.85 365.61 200.5 360.39C200.19 355.68 204.02 350.46 203.65 345.39C203.3 340.59 198.74 335.99 198.34 331C197.94 326.01 201.7 320.86 201.26 315.94C200.82 311.02 196.18 306.51 195.68 301.66C195.18 296.81 198.82 291.31 198.26 286.54C197.67 281.47 192.89 277.1 192.26 272.44C191.54 267.24 194.93 261.69 194.13 257.21C193.13 251.72 188.05 247.74 186.97 243.69C184.97 236.14 185.22 228.86 182.85 228.38C180.33 227.88 179.75 235.01 177.85 242.99C176.85 246.99 171.85 251.05 171.07 256.55C170.4 261 173.94 266.42 173.36 271.55C172.84 276.18 168.18 280.63 167.73 285.67C167.3 290.41 171.08 295.67 170.73 300.58C170.38 305.49 165.85 309.99 165.54 314.87C165.23 319.75 169.13 324.87 168.86 329.71C168.59 334.55 164.15 339.33 163.92 344.09C163.68 349.09 167.66 354.21 167.46 358.88C167.25 364.05 162.87 368.8 162.71 373.32C162.52 378.81 166.55 383.88 166.42 388.06C166.15 397.14 162 395.26 161.85 402.56L162.91 402.67Z" fill="#6282ED"/>
<path opacity="0.5" d="M162.91 402.67H207.07C206.22 397.27 202.75 398.22 202.29 389.85C202.06 385.64 205.96 380.42 205.63 374.85C205.35 370.28 200.85 365.61 200.5 360.39C200.19 355.68 204.02 350.46 203.65 345.39C203.3 340.59 198.74 335.99 198.34 331C197.94 326.01 201.7 320.86 201.26 315.94C200.82 311.02 196.18 306.51 195.68 301.66C195.18 296.81 198.82 291.31 198.26 286.54C197.67 281.47 192.89 277.1 192.26 272.44C191.54 267.24 194.93 261.69 194.13 257.21C193.13 251.72 188.05 247.74 186.97 243.69C184.97 236.14 185.22 228.86 182.85 228.38C180.33 227.88 179.75 235.01 177.85 242.99C176.85 246.99 171.85 251.05 171.07 256.55C170.4 261 173.94 266.42 173.36 271.55C172.84 276.18 168.18 280.63 167.73 285.67C167.3 290.41 171.08 295.67 170.73 300.58C170.38 305.49 165.85 309.99 165.54 314.87C165.23 319.75 169.13 324.87 168.86 329.71C168.59 334.55 164.15 339.33 163.92 344.09C163.68 349.09 167.66 354.21 167.46 358.88C167.25 364.05 162.87 368.8 162.71 373.32C162.52 378.81 166.55 383.88 166.42 388.06C166.15 397.14 162 395.26 161.85 402.56L162.91 402.67Z" fill="white"/>
<path d="M181.87 242.93V400.64" stroke="#263238" stroke-miterlimit="10"/>
<path d="M188.76 259.46L181.57 265.67L175.69 257.83" stroke="#263238" stroke-miterlimit="10"/>
<path d="M188.76 286.91L181.57 293.12L175.69 285.28" stroke="#263238" stroke-miterlimit="10"/>
<path d="M188.76 312.73L181.57 318.94L175.69 311.09" stroke="#263238" stroke-miterlimit="10"/>
<path d="M188.76 343.45L181.57 349.65L175.69 341.81" stroke="#263238" stroke-miterlimit="10"/>
<path d="M188.76 374.49L181.57 380.7L175.69 372.86" stroke="#263238" stroke-miterlimit="10"/>
<path d="M469.94 390.05L462.44 387L454.93 390.05L447.43 387L439.92 390.05L432.42 387L424.92 390.05L417.41 387L409.91 390.05L402.4 387L394.9 390.05L387.4 387L379.89 390.05L372.39 387L364.89 390.05L357.38 387L349.88 390.05L342.37 387L334.87 390.05L327.37 387L319.86 390.05L312.36 387L304.85 390.05L297.35 387L289.85 390.05L282.34 387L274.84 390.05L267.34 387L259.83 390.05L252.33 387L244.83 390.05L237.32 387L229.82 390.05L222.32 387L214.82 390.05L207.31 387L199.81 390.05L192.31 387L184.81 390.05L177.31 387L169.8 390.05L162.3 387L154.8 390.05L147.3 387L139.8 390.05L132.3 387L124.8 390.05L117.29 387L109.79 390.05L102.29 387L94.79 390.05L87.29 387L79.79 390.05L72.29 387L64.79 390.05L57.29 387L49.79 390.05L42.29 387L36 389.56V402.68H471V389.62L469.94 390.05Z" fill="#6282ED"/>
<path d="M327 190.06C322.4 190.06 317.937 191.622 314.34 194.49C313.447 188.981 310.965 183.853 307.199 179.735C303.433 175.617 298.546 172.688 293.139 171.308C287.732 169.927 282.039 170.155 276.76 171.964C271.481 173.773 266.844 177.084 263.42 181.49C259.949 176.888 255.206 173.404 249.778 171.468C244.349 169.532 238.471 169.228 232.872 170.595C227.273 171.962 222.196 174.939 218.27 179.159C214.344 183.379 211.74 188.657 210.78 194.34C207.17 193.453 203.383 193.59 199.847 194.736C196.31 195.881 193.162 197.99 190.757 200.825C188.352 203.66 186.785 207.109 186.232 210.786C185.679 214.462 186.161 218.22 187.625 221.637C189.088 225.055 191.476 227.996 194.519 230.132C197.562 232.268 201.14 233.514 204.851 233.729C208.563 233.944 212.261 233.121 215.53 231.351C218.799 229.581 221.511 226.935 223.36 223.71C229.655 227.952 237.342 229.605 244.824 228.328C252.306 227.051 259.009 222.94 263.54 216.85C266.103 220.096 269.338 222.75 273.023 224.628C276.709 226.505 280.757 227.563 284.89 227.729C289.022 227.894 293.142 227.163 296.966 225.585C300.789 224.008 304.226 221.621 307.04 218.59C308.306 222.928 310.934 226.744 314.535 229.474C318.137 232.204 322.521 233.703 327.04 233.75C338.62 233.75 348.04 223.98 348.04 211.92C348.04 199.86 338.58 190.06 327 190.06Z" fill="#263238" stroke="#263238" stroke-linecap="round" stroke-linejoin="round"/>
<path d="M223.36 225.18C223.067 225.181 222.781 225.095 222.537 224.933C222.293 224.771 222.103 224.54 221.99 224.27L209.4 194.91C209.242 194.544 209.236 194.13 209.383 193.76C209.531 193.39 209.819 193.093 210.185 192.935C210.551 192.777 210.965 192.771 211.335 192.918C211.705 193.066 212.002 193.354 212.16 193.72L224.74 223.09C224.823 223.272 224.868 223.469 224.873 223.669C224.879 223.869 224.844 224.068 224.771 224.254C224.699 224.441 224.589 224.611 224.45 224.754C224.311 224.898 224.144 225.012 223.96 225.09C223.768 225.158 223.564 225.188 223.36 225.18Z" fill="white" stroke="#263238" stroke-miterlimit="10"/>
<path d="M263.54 218.82C263.01 218.82 262.501 218.609 262.126 218.234C261.751 217.859 261.54 217.35 261.54 216.82L261.42 181.45C261.42 180.92 261.631 180.411 262.006 180.036C262.381 179.661 262.89 179.45 263.42 179.45C263.95 179.45 264.459 179.661 264.834 180.036C265.209 180.411 265.42 180.92 265.42 181.45L265.54 216.81C265.54 217.34 265.329 217.849 264.954 218.224C264.579 218.599 264.07 218.81 263.54 218.81V218.82Z" fill="white" stroke="#263238" stroke-miterlimit="10"/>
<path d="M307 220.56C306.801 220.558 306.603 220.531 306.41 220.48C306.158 220.403 305.924 220.278 305.721 220.111C305.518 219.944 305.35 219.738 305.226 219.506C305.103 219.274 305.026 219.019 305.001 218.758C304.976 218.496 305.003 218.231 305.08 217.98L312.38 193.91C312.534 193.402 312.883 192.976 313.351 192.726C313.819 192.475 314.367 192.421 314.875 192.575C315.383 192.729 315.809 193.078 316.059 193.546C316.31 194.014 316.364 194.562 316.21 195.07L309 219.14C308.872 219.565 308.605 219.935 308.243 220.193C307.881 220.45 307.444 220.579 307 220.56Z" fill="white" stroke="#263238" stroke-miterlimit="10"/>
<path d="M316.24 202.26C316.24 202.26 339.81 192.53 345.96 192.53C352.11 192.53 348.53 194.58 345.96 197.14C343.39 199.7 342.12 202.52 343.4 205.34L316.24 202.26Z" fill="#6282ED" stroke="#263238" stroke-linecap="round" stroke-linejoin="round"/>
<path d="M176.08 209.7C176.08 209.7 236.29 196.37 354.93 209.7C354.93 209.7 356.98 208.93 355.7 207.9C354.42 206.87 303.94 197.9 256.54 198.42C209.14 198.94 177.36 203 176.08 209.7Z" fill="#6282ED" stroke="#263238" stroke-linecap="round" stroke-linejoin="round"/>
<path d="M301.63 179.97H235.02C232.612 179.97 230.66 181.922 230.66 184.33V201.23C230.66 203.638 232.612 205.59 235.02 205.59H301.63C304.038 205.59 305.99 203.638 305.99 201.23V184.33C305.99 181.922 304.038 179.97 301.63 179.97Z" fill="#6282ED" stroke="#263238" stroke-linecap="round" stroke-linejoin="round"/>
<path d="M302.47 180H234.18C233.197 180.049 232.275 180.487 231.614 181.216C230.954 181.946 230.611 182.907 230.66 183.89V187.55H306V183.89C306.024 183.403 305.952 182.915 305.788 182.456C305.623 181.997 305.37 181.574 305.042 181.213C304.714 180.851 304.318 180.558 303.877 180.35C303.435 180.142 302.957 180.023 302.47 180Z" fill="white" stroke="#263238" stroke-linecap="round" stroke-linejoin="round"/>
<path d="M310.6 204.57H226.05C223.642 204.57 221.69 206.522 221.69 208.93V228.91C221.69 231.318 223.642 233.27 226.05 233.27H310.6C313.008 233.27 314.96 231.318 314.96 228.91V208.93C314.96 206.522 313.008 204.57 310.6 204.57Z" fill="#B2B2B2" stroke="#263238" stroke-linecap="round" stroke-linejoin="round"/>
<path d="M310.6 204.57H226C224.845 204.573 223.739 205.033 222.924 205.851C222.108 206.668 221.65 207.775 221.65 208.93V213H315V208.9C314.996 208.327 314.879 207.76 314.656 207.231C314.432 206.703 314.107 206.224 313.698 205.822C313.29 205.42 312.806 205.102 312.274 204.887C311.742 204.673 311.173 204.565 310.6 204.57Z" fill="white" stroke="#263238" stroke-linecap="round" stroke-linejoin="round"/>
<path d="M255.26 215.84H259.1V217.38C259.1 219.146 259.802 220.84 261.051 222.089C262.3 223.338 263.994 224.04 265.76 224.04H271.66C273.426 224.04 275.12 223.338 276.369 222.089C277.618 220.84 278.32 219.146 278.32 217.38V215.59H281.9" stroke="#263238" stroke-width="3" stroke-linecap="round" stroke-linejoin="round"/>
<path d="M316 232H219.51C215.312 231.997 211.256 233.522 208.1 236.29C206.06 238.073 204.468 240.309 203.45 242.82L181.69 296.51C180.965 298.301 179.809 299.886 178.325 301.123C176.84 302.36 175.073 303.211 173.18 303.6L147.7 308.82C142.861 309.807 138.324 311.925 134.46 315C128.575 319.71 124.587 326.386 123.23 333.8L120.12 350.8C119.771 352.722 119.855 354.697 120.365 356.583C120.876 358.468 121.8 360.216 123.07 361.7C124.306 363.141 125.841 364.297 127.567 365.088C129.294 365.878 131.171 366.285 133.07 366.28H162.36L185.36 380.28H298.36L360.7 371.28L374.34 370.28C375.938 370.174 377.483 369.667 378.834 368.808C380.184 367.948 381.297 366.762 382.07 365.36C383.996 361.962 385.122 358.169 385.36 354.27C385.7 345.61 383.36 336.94 379.03 328.61C374.7 320.28 368.36 319.27 360.03 291.61C351.7 263.95 348 251.33 339.67 242C331.34 232.67 316 232 316 232Z" fill="#6282ED" stroke="#263238" stroke-linecap="round" stroke-linejoin="round"/>
<path d="M186.67 312.67V368.67C186.67 370.614 187.442 372.478 188.817 373.853C190.191 375.228 192.056 376 194 376H282C283.366 376 284.717 375.71 285.963 375.15C287.209 374.59 288.323 373.772 289.23 372.75C290.808 370.98 291.68 368.691 291.68 366.32V315.32" stroke="#263238" stroke-linecap="round" stroke-linejoin="round"/>
<path d="M149.5 320.5H360.5" stroke="#263238" stroke-linecap="round" stroke-linejoin="round"/>
<path d="M287.33 324.67H276.67C276.14 324.67 275.631 324.459 275.256 324.084C274.881 323.709 274.67 323.2 274.67 322.67C274.67 322.14 274.881 321.631 275.256 321.256C275.631 320.881 276.14 320.67 276.67 320.67H287.33C287.86 320.67 288.369 320.881 288.744 321.256C289.119 321.631 289.33 322.14 289.33 322.67C289.33 322.933 289.278 323.193 289.178 323.435C289.077 323.678 288.93 323.898 288.744 324.084C288.559 324.27 288.338 324.417 288.095 324.518C287.853 324.618 287.593 324.67 287.33 324.67Z" fill="#263238" stroke="#263238" stroke-linecap="round" stroke-linejoin="round"/>
<path d="M232 237H228.8C223.488 237.002 218.305 238.64 213.955 241.69C209.606 244.74 206.301 249.056 204.49 254.05L185.77 305.77C185.571 306.322 185.508 306.914 185.586 307.496C185.664 308.078 185.881 308.633 186.218 309.113C186.555 309.593 187.003 309.986 187.524 310.257C188.045 310.528 188.623 310.669 189.21 310.67H284C284.832 310.67 285.656 310.506 286.425 310.187C287.193 309.868 287.892 309.401 288.479 308.812C289.067 308.224 289.533 307.525 289.851 306.755C290.168 305.986 290.331 305.162 290.33 304.33V245.17C290.331 244.098 290.121 243.035 289.712 242.044C289.302 241.053 288.701 240.152 287.943 239.394C287.186 238.635 286.286 238.033 285.295 237.622C284.304 237.211 283.242 237 282.17 237H232Z" fill="#757575"/>
<mask id="mask0_35_919" style="mask-type:luminance" maskUnits="userSpaceOnUse" x="185" y="237" width="106" height="74">
<path d="M232 237H228.8C223.488 237.002 218.305 238.64 213.955 241.69C209.606 244.74 206.301 249.056 204.49 254.05L185.77 305.77C185.571 306.322 185.508 306.914 185.586 307.496C185.664 308.078 185.881 308.633 186.218 309.113C186.555 309.593 187.003 309.986 187.524 310.257C188.045 310.528 188.623 310.669 189.21 310.67H284C284.832 310.67 285.656 310.506 286.425 310.187C287.193 309.868 287.892 309.401 288.479 308.812C289.067 308.224 289.533 307.525 289.851 306.755C290.168 305.986 290.331 305.162 290.33 304.33V245.17C290.331 244.098 290.121 243.035 289.712 242.044C289.302 241.053 288.701 240.152 287.943 239.394C287.186 238.635 286.286 238.033 285.295 237.622C284.304 237.211 283.242 237 282.17 237H232Z" fill="white"/>
</mask>
<g mask="url(#mask0_35_919)">
<path d="M281 275.8C281 275.8 290.68 283.63 293.21 289.39C295.74 295.15 299.21 311.5 299.21 311.5H240.49C240.49 311.5 256.15 293.5 262.6 287.78C269.05 282.06 281 275.8 281 275.8Z" fill="white"/>
<mask id="mask1_35_919" style="mask-type:luminance" maskUnits="userSpaceOnUse" x="240" y="275" width="60" height="37">
<path d="M281 275.8C281 275.8 290.68 283.63 293.21 289.39C295.74 295.15 299.21 311.5 299.21 311.5H240.49C240.49 311.5 256.15 293.5 262.6 287.78C269.05 282.06 281 275.8 281 275.8Z" fill="white"/>
</mask>
<g mask="url(#mask1_35_919)">
<path d="M276.78 291.52C278.03 290.27 280.52 290.77 280.52 294.76C280.594 295.808 280.278 296.847 279.635 297.677C278.991 298.507 278.063 299.071 277.03 299.26C278.474 299.286 279.905 299.539 281.27 300.01C283.27 300.76 282.52 305.01 278.27 306.01C274.02 307.01 273.52 300.76 273.52 300.76C272.922 301.62 272.419 302.542 272.02 303.51C271.27 305.26 264.27 306.51 264.77 302.26C265.27 298.01 271.27 298.51 270.27 298.01C269.27 297.51 263.02 291.77 268.27 290.01C273.52 288.25 273.77 297.01 273.77 297.01C273.77 297.01 275.53 292.77 276.78 291.52ZM291.52 286.52C291.52 286.52 291.27 277.77 286.02 279.52C280.77 281.27 287.02 287.02 288.02 287.52C289.02 288.02 283.02 287.52 282.52 291.77C282.02 296.02 289.02 294.77 289.77 293.02C290.169 292.052 290.672 291.13 291.27 290.27C291.27 290.27 291.77 296.51 296.02 295.51C300.27 294.51 301.02 290.27 299.02 289.51C297.654 289.04 296.224 288.787 294.78 288.76C295.813 288.571 296.741 288.007 297.385 287.177C298.028 286.347 298.344 285.308 298.27 284.26C298.27 280.26 295.78 279.76 294.53 281.01C293.28 282.26 291.52 286.52 291.52 286.52ZM292.02 307.52C292.02 307.52 291.77 298.77 286.52 300.52C281.27 302.27 287.52 308.02 288.52 308.52C289.52 309.02 283.52 308.52 283.02 312.76C282.52 317 289.52 315.76 290.27 314.01C290.667 313.044 291.171 312.125 291.77 311.27C291.77 311.27 292.27 317.51 296.52 316.51C300.77 315.51 301.52 311.27 299.52 310.51C298.154 310.04 296.724 309.787 295.28 309.76C296.313 309.571 297.241 309.007 297.885 308.177C298.528 307.347 298.844 306.308 298.77 305.26C298.77 301.26 296.28 300.76 295.03 302.01C293.78 303.26 292 307.51 292 307.51L292.02 307.52ZM255.79 308.02C255.79 308.02 255.54 299.27 250.29 301.02C245.04 302.77 251.29 308.52 252.29 309.02C253.29 309.52 247.29 309.02 246.79 313.26C246.29 317.5 253.29 316.26 254.04 314.51C254.437 313.544 254.941 312.625 255.54 311.77C255.54 311.77 256.04 318.01 260.29 317.01C264.54 316.01 265.29 311.77 263.29 311.01C261.925 310.539 260.494 310.286 259.05 310.26C260.083 310.071 261.011 309.507 261.655 308.677C262.298 307.847 262.614 306.808 262.54 305.76C262.54 301.76 260.05 301.26 258.8 302.51C257.55 303.76 255.79 308 255.79 308V308.02ZM273.79 278.78C273.79 278.78 273.54 270.04 268.29 271.78C263.04 273.52 269.29 279.27 270.29 279.78C271.29 280.29 265.29 279.78 264.79 284.03C264.29 288.28 271.29 287.03 272.04 285.28C272.439 284.312 272.942 283.39 273.54 282.53C273.54 282.53 274.04 288.78 278.29 287.78C282.54 286.78 283.29 282.53 281.29 281.78C279.91 281.294 278.462 281.031 277 281C278.031 280.811 278.957 280.249 279.601 279.42C280.245 278.592 280.561 277.556 280.49 276.51C280.49 272.51 278 272.01 276.75 273.26C275.5 274.51 273.78 278.77 273.78 278.77L273.79 278.78Z" fill="#6282ED"/>
</g>
<path d="M281 275.8C281 275.8 290.68 283.63 293.21 289.39C295.74 295.15 299.21 311.5 299.21 311.5H240.49C240.49 311.5 256.15 293.5 262.6 287.78C269.05 282.06 281 275.8 281 275.8Z" stroke="#263238" stroke-linecap="round" stroke-linejoin="round"/>
<path d="M240.49 311.5H269.18C268.94 305.72 268.12 293.92 265.36 291C263.78 289.31 261.08 290.19 258.52 291.74C251.17 299.25 240.49 311.5 240.49 311.5Z" stroke="#263238" stroke-linecap="round" stroke-linejoin="round"/>
<path d="M251.31 246.09C251.31 246.09 246.71 251.62 246.71 252.77C246.782 254.204 246.286 255.609 245.33 256.68C244.17 257.84 240.72 261.29 240.72 263.13C240.72 264.97 244.4 264.51 244.4 264.51C244.4 264.51 239.8 270.51 241.18 272.57C242.56 274.63 259.84 289.62 259.84 289.62L279.84 273.73L278.46 270.73C279.478 269.197 280.182 267.477 280.53 265.67C280.76 263.36 282.38 254.84 274.53 249.31C266.68 243.78 254.77 243.1 251.31 246.09Z" fill="white" stroke="#263238" stroke-linecap="round" stroke-linejoin="round"/>
<path d="M278.49 270.73C279.508 269.197 280.212 267.477 280.56 265.67C280.79 263.36 282.41 254.84 274.56 249.31C270.728 246.74 266.341 245.115 261.76 244.57C263.48 245.57 266.76 247.73 266.96 249.77C267.19 252.54 264.2 252.77 264.2 252.77C264.2 252.77 258.67 255.07 259.36 256.22C260.05 257.37 263.05 259.45 263.05 260.14C263.05 260.83 261.21 263.59 262.82 264.05C264.43 264.51 265.35 260.6 267.66 261.05C269.97 261.5 270.88 261.28 270.19 264.96C269.5 268.64 267.43 269.57 267.43 270.26C267.43 270.95 274.43 272.2 278.79 271.38L278.49 270.73Z" fill="#263238" stroke="#263238" stroke-linecap="round" stroke-linejoin="round"/>
<path d="M252.7 244.94C252.7 244.94 268.82 230.2 270.89 230.2C272.96 230.2 286.09 237.8 286.55 240.79C287.01 243.78 283.33 264.05 283.33 264.05L252.7 244.94Z" fill="white" stroke="#263238" stroke-linecap="round" stroke-linejoin="round"/>
<path d="M252.7 244.94L283.33 264.05C283.33 264.05 284.04 260.15 284.79 255.52L257.85 240.32C254.94 242.89 252.7 244.94 252.7 244.94Z" fill="#263238" stroke="#263238" stroke-linecap="round" stroke-linejoin="round"/>
<path d="M241.64 241.48C241.64 241.48 288.16 276.48 288.85 273.73C289.54 270.98 288.39 266.82 285.17 262.9C281.95 258.98 264.17 247.7 255.92 244.02C247.67 240.34 242.1 238.72 241.64 241.48Z" fill="white" stroke="#263238" stroke-linecap="round" stroke-linejoin="round"/>
<path d="M251 256.09C250.43 258.24 249.21 259.79 248.29 259.54C247.37 259.29 247.09 257.35 247.67 255.2C248.25 253.05 249.46 251.51 250.38 251.75C251.3 251.99 251.6 254 251 256.09Z" stroke="#263238" stroke-linecap="round" stroke-linejoin="round"/>
<path d="M251.02 256.09L265.36 261.75" stroke="#263238" stroke-linecap="round" stroke-linejoin="round"/>
<path d="M243.94 265.9C245.241 266.266 246.618 266.266 247.918 265.899C249.219 265.532 250.393 264.812 251.31 263.82" stroke="#263238" stroke-linecap="round" stroke-linejoin="round"/>
<path d="M250.62 262.44L252.7 265.2" stroke="#263238" stroke-linecap="round" stroke-linejoin="round"/>
<path d="M254.5 286L255.14 295.67L281.86 275.87L279.64 271.42L254.5 286Z" fill="white" stroke="#263238" stroke-linecap="round" stroke-linejoin="round"/>
<path d="M218.34 312.17L213.69 313.48L206.86 289.2C206.772 288.893 206.745 288.571 206.782 288.253C206.819 287.936 206.918 287.629 207.074 287.35C207.231 287.071 207.441 286.826 207.692 286.628C207.944 286.431 208.232 286.285 208.54 286.2C208.846 286.112 209.168 286.085 209.485 286.121C209.802 286.157 210.108 286.256 210.387 286.411C210.666 286.566 210.912 286.775 211.109 287.025C211.307 287.276 211.453 287.563 211.54 287.87L218.34 312.17Z" fill="#263238" stroke="#263238" stroke-linecap="round" stroke-linejoin="round"/>
<path d="M224.17 299.56C224.17 299.56 217.6 290.71 215.7 288.06C213.8 285.41 211.9 285.53 210.64 286.29C209.38 287.05 203.43 291.72 203.81 293.24C204.19 294.76 207.48 302.24 207.98 303.24C208.225 303.783 208.616 304.247 209.108 304.582C209.6 304.917 210.175 305.11 210.77 305.14C212.03 305.14 213.17 302.48 213.17 302.48H215.17C215.17 302.48 217.58 307.67 220.23 308.81C222.043 309.497 223.991 309.754 225.92 309.56L228.32 312.85H238.82L224.17 299.56Z" fill="white" stroke="#263238" stroke-linecap="round" stroke-linejoin="round"/>
<path d="M208.74 304.12C208.468 303.786 208.3 303.38 208.255 302.952C208.211 302.524 208.292 302.092 208.49 301.71C209.12 300.2 211.15 297.16 211.65 297.16C212.15 297.16 216.58 296.91 216.58 296.91" stroke="#263238" stroke-linecap="round" stroke-linejoin="round"/>
<path d="M206.85 299.56C206.85 299.56 209.12 294.63 210.26 294.13C211.4 293.63 216.08 293.62 216.08 293.62" stroke="#263238" stroke-linecap="round" stroke-linejoin="round"/>
<path d="M205.2 296.15C205.2 296.15 207.98 290.84 209.63 290.59C211.184 290.413 212.746 290.326 214.31 290.33" stroke="#263238" stroke-linecap="round" stroke-linejoin="round"/>
</g>
<path d="M232 237H228.8C223.488 237.002 218.305 238.64 213.955 241.69C209.606 244.74 206.301 249.056 204.49 254.05L185.77 305.77C185.571 306.322 185.508 306.914 185.586 307.496C185.664 308.078 185.881 308.633 186.218 309.113C186.555 309.593 187.003 309.986 187.524 310.257C188.045 310.528 188.623 310.669 189.21 310.67H284C284.832 310.67 285.656 310.506 286.425 310.187C287.193 309.868 287.892 309.401 288.479 308.812C289.067 308.224 289.533 307.525 289.851 306.755C290.168 305.986 290.331 305.162 290.33 304.33V245.17C290.331 244.098 290.121 243.035 289.712 242.044C289.302 241.053 288.701 240.152 287.943 239.394C287.186 238.635 286.286 238.033 285.295 237.622C284.304 237.211 283.242 237 282.17 237H232Z" stroke="#263238" stroke-linecap="round" stroke-linejoin="round"/>
<path d="M299.67 243.4V305.67C299.67 307.084 300.232 308.439 301.231 309.439C302.231 310.438 303.586 311 305 311H356L341 260C339.462 254.76 336.507 250.047 332.46 246.38C327.205 241.611 320.414 238.883 313.32 238.69L304.72 238.46C304.062 238.445 303.408 238.562 302.796 238.804C302.184 239.046 301.626 239.407 301.156 239.867C300.685 240.328 300.311 240.877 300.056 241.484C299.801 242.09 299.67 242.742 299.67 243.4Z" fill="#757575"/>
<mask id="mask2_35_919" style="mask-type:luminance" maskUnits="userSpaceOnUse" x="299" y="238" width="57" height="73">
<path d="M299.67 243.4V305.67C299.67 307.084 300.232 308.439 301.231 309.439C302.231 310.438 303.586 311 305 311H356L341 260C339.462 254.76 336.507 250.047 332.46 246.38C327.205 241.611 320.414 238.883 313.32 238.69L304.72 238.46C304.062 238.445 303.408 238.562 302.796 238.804C302.184 239.046 301.626 239.407 301.156 239.867C300.685 240.328 300.311 240.877 300.056 241.484C299.801 242.09 299.67 242.742 299.67 243.4Z" fill="white"/>
</mask>
<g mask="url(#mask2_35_919)">
<path d="M341.49 261.62L301.71 309.84C302.645 310.585 303.804 310.993 305 311H323.6L347.73 282.85L341.49 261.62Z" fill="white"/>
<path d="M353.63 302.93L350.46 292.14L335.33 311H346.5L353.63 302.93Z" fill="white"/>
</g>
<path d="M299.67 243.4V305.67C299.67 307.084 300.232 308.439 301.231 309.439C302.231 310.438 303.586 311 305 311H356L341 260C339.462 254.76 336.507 250.047 332.46 246.38C327.205 241.611 320.414 238.883 313.32 238.69L304.72 238.46C304.062 238.445 303.408 238.562 302.796 238.804C302.184 239.046 301.626 239.407 301.156 239.867C300.685 240.328 300.311 240.877 300.056 241.484C299.801 242.09 299.67 242.742 299.67 243.4Z" stroke="#263238" stroke-linecap="round" stroke-linejoin="round"/>
<path d="M221 238.21C217.217 239.405 213.759 241.456 210.896 244.203C208.033 246.95 205.841 250.319 204.49 254.05L185.77 305.77C185.571 306.322 185.508 306.914 185.586 307.496C185.664 308.078 185.881 308.633 186.218 309.113C186.555 309.593 187.003 309.986 187.524 310.257C188.045 310.528 188.623 310.669 189.21 310.67H221V238.21Z" stroke="#263238" stroke-linecap="round" stroke-linejoin="round"/>
<path d="M120.12 350.85C120.12 350.85 116.67 353.33 116.67 356.33C116.67 359.33 118.67 363.33 120.67 364C122.67 364.67 123.07 361.75 123.07 361.75C123.07 361.75 120.25 354.69 120.12 350.85Z" fill="#263238" stroke="#263238" stroke-linecap="round" stroke-linejoin="round"/>
<path d="M127.278 321.226L124.321 320.667C122.785 320.377 121.305 321.386 121.014 322.922L117.481 341.601C117.191 343.136 118.2 344.617 119.736 344.907L122.694 345.467C124.229 345.757 125.71 344.748 126 343.212L129.533 324.533C129.824 322.997 128.814 321.517 127.278 321.226Z" fill="white" stroke="#263238" stroke-linecap="round" stroke-linejoin="round"/>
<path d="M385.33 335H383C380.421 335 378.33 337.091 378.33 339.67V353C378.33 355.579 380.421 357.67 383 357.67H385.33C387.909 357.67 390 355.579 390 353V339.67C390 337.091 387.909 335 385.33 335Z" fill="white" stroke="#263238" stroke-linecap="round" stroke-linejoin="round"/>
<path d="M154.83 402.67C172.045 402.67 186 388.715 186 371.5C186 354.285 172.045 340.33 154.83 340.33C137.615 340.33 123.66 354.285 123.66 371.5C123.66 388.715 137.615 402.67 154.83 402.67Z" fill="#263238"/>
<mask id="mask3_35_919" style="mask-type:luminance" maskUnits="userSpaceOnUse" x="123" y="340" width="63" height="63">
<path d="M154.83 402.67C172.045 402.67 186 388.715 186 371.5C186 354.285 172.045 340.33 154.83 340.33C137.615 340.33 123.66 354.285 123.66 371.5C123.66 388.715 137.615 402.67 154.83 402.67Z" fill="white"/>
</mask>
<g mask="url(#mask3_35_919)">
<path d="M153.5 332L154.83 371.5L135 339L153.5 332ZM177 402.46L154.84 371.46L159.07 410.76L177 402.46Z" fill="white"/>
</g>
<path d="M154.83 402.67C172.045 402.67 186 388.715 186 371.5C186 354.285 172.045 340.33 154.83 340.33C137.615 340.33 123.66 354.285 123.66 371.5C123.66 388.715 137.615 402.67 154.83 402.67Z" stroke="#263238" stroke-linecap="round" stroke-linejoin="round"/>
<path d="M154.83 392C166.152 392 175.33 382.822 175.33 371.5C175.33 360.178 166.152 351 154.83 351C143.508 351 134.33 360.178 134.33 371.5C134.33 382.822 143.508 392 154.83 392Z" fill="white" stroke="#263238" stroke-linecap="round" stroke-linejoin="round"/>
<path d="M154.83 386.33C163.02 386.33 169.66 379.69 169.66 371.5C169.66 363.31 163.02 356.67 154.83 356.67C146.64 356.67 140 363.31 140 371.5C140 379.69 146.64 386.33 154.83 386.33Z" fill="white" stroke="#263238" stroke-linecap="round" stroke-linejoin="round"/>
<path d="M358.24 386.401C366.446 371.268 360.831 352.348 345.698 344.141C330.565 335.935 311.645 341.55 303.439 356.683C295.233 371.816 300.848 390.736 315.981 398.942C331.114 407.149 350.034 401.533 358.24 386.401Z" fill="#263238"/>
<mask id="mask4_35_919" style="mask-type:luminance" maskUnits="userSpaceOnUse" x="299" y="340" width="64" height="63">
<path d="M358.24 386.401C366.446 371.268 360.831 352.348 345.698 344.141C330.565 335.935 311.645 341.55 303.439 356.683C295.233 371.816 300.848 390.736 315.981 398.942C331.114 407.149 350.034 401.533 358.24 386.401Z" fill="white"/>
</mask>
<g mask="url(#mask4_35_919)">
<path d="M368.07 358.25L330.83 371.5L355.83 342.74L368.07 358.25ZM308.07 402.01L330.85 371.5L294.69 387.44L308.07 402.01Z" fill="white"/>
</g>
<path d="M358.24 386.401C366.446 371.268 360.831 352.348 345.698 344.141C330.565 335.935 311.645 341.55 303.439 356.683C295.233 371.816 300.848 390.736 315.981 398.942C331.114 407.149 350.034 401.533 358.24 386.401Z" stroke="#263238" stroke-linecap="round" stroke-linejoin="round"/>
<path d="M349.42 380.131C354.19 369.864 349.734 357.673 339.466 352.902C329.198 348.132 317.007 352.588 312.237 362.856C307.466 373.124 311.923 385.315 322.191 390.085C332.458 394.856 344.649 390.399 349.42 380.131Z" fill="white" stroke="#263238" stroke-linecap="round" stroke-linejoin="round"/>
<path d="M334.945 385.725C342.817 383.46 347.362 375.244 345.097 367.373C342.833 359.501 334.616 354.956 326.745 357.221C318.874 359.485 314.329 367.702 316.593 375.573C318.858 383.444 327.074 387.989 334.945 385.725Z" fill="white" stroke="#263238" stroke-linecap="round" stroke-linejoin="round"/>
<path d="M190.47 304.42C192.88 309.75 193.47 314.71 191.69 315.5C189.91 316.29 186.58 312.6 184.17 307.27C181.76 301.94 181.17 296.97 182.95 296.18C184.73 295.39 188.05 299.08 190.47 304.42Z" fill="#263238" stroke="#263238" stroke-linecap="round" stroke-linejoin="round"/>
<path d="M27.35 402.67H477.09" stroke="#263238" stroke-linecap="round" stroke-linejoin="round"/>
</svg>
