<svg width="32" height="32" viewBox="0 0 32 32" fill="none" xmlns="http://www.w3.org/2000/svg">
<path d="M13.1119 24.1333C12.783 24.0862 12.6186 23.92 12.6186 23.6347C12.6186 23.3129 12.783 23.0453 13.1119 22.832C13.4408 22.6187 13.8404 22.512 14.3106 22.512C14.7808 22.512 15.1804 22.6204 15.5093 22.8373C15.8382 23.0542 16.0026 23.3222 16.0026 23.6413C16.0026 23.9231 15.8382 24.0876 15.5093 24.1347C15.1804 24.1818 14.7804 24.2053 14.3093 24.2053C13.8382 24.2053 13.439 24.1813 13.1119 24.1333ZM22.4453 26.5947C22.1164 26.5476 21.9519 26.3818 21.9519 26.0973C21.9519 25.7738 22.1164 25.5058 22.4453 25.2933C22.7742 25.08 23.1737 24.9733 23.6439 24.9733C24.1142 24.9733 24.5137 25.0818 24.8426 25.2987C25.1715 25.5156 25.3359 25.7836 25.3359 26.1027C25.3359 26.3844 25.1715 26.5489 24.8426 26.596C24.5137 26.6431 24.1137 26.6667 23.6426 26.6667C23.1715 26.6667 22.7724 26.6431 22.4453 26.596M16.7519 26.596C16.423 26.548 16.2586 26.3818 16.2586 26.0973C16.2586 25.7747 16.423 25.5067 16.7519 25.2933C17.0808 25.08 17.4808 24.9733 17.9519 24.9733C18.423 24.9733 18.8226 25.0818 19.1506 25.2987C19.4786 25.5156 19.643 25.7836 19.6439 26.1027C19.6439 26.3844 19.4795 26.5489 19.1506 26.596C18.8217 26.6431 18.4217 26.6667 17.9506 26.6667C17.4795 26.6667 17.079 26.6431 16.7519 26.596ZM7.1626 26.596C6.83372 26.548 6.66927 26.3818 6.66927 26.0973C6.66927 25.7738 6.83372 25.5058 7.1626 25.2933C7.49149 25.08 7.89149 24.9733 8.3626 24.9733C8.83372 24.9733 9.23283 25.0818 9.55994 25.2987C9.88705 25.5156 10.0515 25.7836 10.0533 26.1027C10.0533 26.3844 9.88883 26.5489 9.55994 26.596C9.23105 26.6431 8.83194 26.6667 8.3626 26.6667C7.89327 26.6667 7.49238 26.6431 7.1626 26.596ZM11.7279 27.9293C11.399 27.8813 11.2346 27.7151 11.2346 27.4307C11.2346 27.108 11.399 26.84 11.7279 26.6267C12.0568 26.4133 12.4568 26.3067 12.9279 26.3067C13.399 26.3067 13.7982 26.4151 14.1253 26.632C14.4524 26.8489 14.6168 27.1169 14.6186 27.436C14.6186 27.7178 14.4542 27.8822 14.1253 27.9293C13.7964 27.9764 13.3964 28 12.9253 28C12.4542 28 12.0559 27.9764 11.7279 27.9293ZM6.97727 20V21.8467C6.97727 22.0742 6.89727 22.2676 6.73727 22.4267C6.57727 22.5867 6.3826 22.6667 6.15327 22.6667C5.92483 22.6667 5.73149 22.5867 5.57327 22.4267C5.41505 22.2684 5.33594 22.0751 5.33594 21.8467V12.744C5.33594 12.5556 5.35372 12.3813 5.38927 12.2213C5.42483 12.0613 5.46749 11.8876 5.51727 11.7L7.9826 4.66667C8.04838 4.45511 8.17372 4.29067 8.3586 4.17333C8.54438 4.05778 8.75105 4 8.9786 4H23.1319C23.3337 4 23.5173 4.06133 23.6826 4.184C23.8479 4.30667 23.9622 4.46756 24.0253 4.66667L26.4893 11.7C26.5382 11.8884 26.5808 12.0622 26.6173 12.2213C26.6528 12.3813 26.6706 12.5556 26.6706 12.744V21.8467C26.6706 22.0742 26.5906 22.268 26.4306 22.428C26.2706 22.5871 26.0759 22.6667 25.8466 22.6667C25.6182 22.6667 25.4248 22.5867 25.2666 22.4267C25.1084 22.2676 25.0293 22.0742 25.0293 21.8467V20H6.97727ZM7.22394 10.872H24.7826L22.8186 5.33333H9.18794L7.22394 10.872ZM9.9066 16.9227C10.3208 16.9227 10.671 16.7778 10.9573 16.488C11.2444 16.1973 11.3879 15.8444 11.3879 15.4293C11.3879 15.0151 11.2426 14.6649 10.9519 14.3787C10.6613 14.0916 10.3088 13.948 9.8946 13.948C9.47949 13.948 9.12838 14.0933 8.84127 14.384C8.55594 14.6747 8.41327 15.0271 8.41327 15.4413C8.41327 15.8564 8.55816 16.2076 8.84794 16.4947C9.1386 16.78 9.49238 16.9227 9.9066 16.9227ZM22.1119 16.9227C22.5262 16.9227 22.8764 16.7778 23.1626 16.488C23.4488 16.1973 23.5919 15.8444 23.5919 15.4293C23.5919 15.0151 23.447 14.6649 23.1573 14.3787C22.8666 14.0916 22.5142 13.948 22.0999 13.948C21.6848 13.948 21.3337 14.0933 21.0466 14.384C20.7613 14.6747 20.6186 15.0271 20.6186 15.4413C20.6186 15.8564 20.7635 16.2076 21.0533 16.4947C21.3439 16.78 21.6968 16.9227 22.1119 16.9227ZM6.66927 18.6667H25.3359V12.2053H6.66927V18.6667Z" fill="#1A1F40"/>
</svg>
