<svg width="32" height="32" viewBox="0 0 32 32" fill="none" xmlns="http://www.w3.org/2000/svg">
<path d="M3.5 17.0759C3.5 15.2109 3.85748 13.4569 4.57245 11.814C5.28842 10.1711 6.25866 8.74176 7.48317 7.52608C8.70667 6.30839 10.1452 5.34435 11.7986 4.63396C13.4521 3.92356 15.2174 3.56836 17.0944 3.56836C20.4074 3.56836 23.2925 4.59293 25.7496 6.64208C28.2066 8.69123 29.7398 11.2677 30.349 14.3714C30.4094 14.6235 30.3918 14.8612 30.2961 15.0843C30.1995 15.3074 30.0343 15.4365 29.8007 15.4715C29.5721 15.5005 29.3767 15.439 29.2146 15.2869C29.0535 15.1348 28.9453 14.9447 28.8899 14.7166C28.5183 12.7355 27.6986 10.9625 26.4308 9.39762C25.161 7.83475 23.5593 6.6736 21.6259 5.91417V6.57004C21.6259 7.3955 21.3304 8.1024 20.7393 8.69073C20.1481 9.27906 19.4367 9.57272 18.6049 9.57172H15.5839V12.5734C15.5839 12.9986 15.4389 13.3553 15.1489 13.6435C14.8589 13.9317 14.5004 14.0752 14.0734 14.0742H11.0525V17.0759H12.6219C12.9713 17.0759 13.2618 17.191 13.4934 17.4211C13.725 17.6512 13.8408 17.9404 13.8408 18.2886V21.5784H12.563L5.31259 14.3744C5.23707 14.8247 5.16809 15.2749 5.10565 15.7252C5.04322 16.1754 5.0115 16.6257 5.01049 17.0759C5.01049 20.2437 6.08697 22.9802 8.23993 25.2855C10.3929 27.5908 13.0816 28.851 16.306 29.0661C16.5355 29.0771 16.7244 29.1542 16.8724 29.2973C17.0204 29.4413 17.0944 29.6199 17.0944 29.8331C17.0944 30.0462 17.0129 30.2248 16.8497 30.3689C16.6866 30.5129 16.4902 30.579 16.2606 30.567C12.6798 30.3449 9.65777 28.9411 7.19466 26.3556C4.73156 23.7702 3.5 20.6769 3.5 17.0759ZM30.1904 29.6485L25.5124 25.0589C25.0613 25.3791 24.5724 25.6292 24.0457 25.8093C23.5191 25.9904 22.9642 26.081 22.3812 26.081C20.8999 26.081 19.6487 25.5737 18.6276 24.5591C17.6055 23.5425 17.0944 22.2988 17.0944 20.828C17.0944 19.3572 17.6055 18.114 18.6276 17.0984C19.6497 16.0829 20.9009 15.5751 22.3812 15.5751C23.8614 15.5751 25.1131 16.0829 26.1362 17.0984C27.1593 18.114 27.6699 19.3572 27.6679 20.828C27.6679 21.4264 27.5722 21.9917 27.3809 22.524C27.1896 23.0573 26.9227 23.548 26.5803 23.9963L31.2583 28.5859C31.4194 28.7259 31.5 28.898 31.5 29.1022C31.5 29.3063 31.4194 29.4884 31.2583 29.6485C31.1173 29.7885 30.9441 29.8586 30.7387 29.8586C30.5333 29.8586 30.3515 29.7885 30.1904 29.6485ZM25.0623 23.492C25.7924 22.7666 26.1574 21.8786 26.1574 20.828C26.1574 19.7774 25.7924 18.8894 25.0623 18.164C24.3322 17.4386 23.4385 17.0759 22.3812 17.0759C21.3238 17.0759 20.4301 17.4386 19.7 18.164C18.97 18.8894 18.6049 19.7774 18.6049 20.828C18.6049 21.8786 18.97 22.7666 19.7 23.492C20.4301 24.2174 21.3238 24.5801 22.3812 24.5801C23.4385 24.5801 24.3322 24.2174 25.0623 23.492Z" fill="#1A1F40"/>
</svg>
