<svg width="22" height="36" viewBox="0 0 22 36" fill="none" xmlns="http://www.w3.org/2000/svg">
<path d="M9.7731 0C8.5462 0 6.0924 1.24138 4.8655 2.48276C4.8655 3.49138 4.8655 4.5 5.52358 5.50862H16.4764C17.1345 4.5 17.1345 3.49138 17.1345 2.48276C15.9076 1.24138 13.4538 0 12.2269 0H9.7731ZM6.3936 6.90517C7.16103 8.9467 7.21402 11.5141 6.55341 12.9569H15.4466C14.786 11.5141 14.839 8.9467 15.6064 6.90517H6.3936ZM5.13059 14.3534C2.3009 16.5564 0.370984 19.4436 0.0171765 21.6466H21.9828C21.629 19.4436 19.6991 16.5564 16.8694 14.3534H5.13059ZM0 23.0431C0.413695 26.5252 3.79212 29.8707 6.0924 31.0345C6.74151 31.6912 7.04555 32.346 7.18948 32.819H14.8105C14.9545 32.346 15.2585 31.6912 15.9076 31.0345C18.2079 29.8707 21.5863 26.5252 22 23.0431H0ZM6.44928 34.2155C5.57235 34.7581 4.8655 34.7586 4.8655 34.7586C3.6386 34.7586 3.6386 36 4.8655 36H17.1345C18.3614 36 18.3614 34.7586 17.1345 34.7586C17.1345 34.7586 16.4277 34.7581 15.5507 34.2155H6.44928Z" fill="#635ADB"/>
</svg>
