<svg width="36" height="36" viewBox="0 0 36 36" fill="none" xmlns="http://www.w3.org/2000/svg">
<path d="M32.6553 0L27.779 14.7402H25.332L29.8386 1.13386L26.4939 0.0177167L23.3956 9.35433C21.3888 5.20866 17.1814 2.33858 12.3227 2.33858C5.52763 2.33858 0 7.90157 0 14.7402V16.5118C0 22.9075 3.34474 28.6831 8.80196 31.8543V34.2283C8.80196 35.2028 9.59413 36 10.5623 36H24.6455C25.6137 36 26.4059 35.2028 26.4059 34.2283V31.8543C31.8631 28.7008 35.2078 22.9075 35.2078 16.5118C35.2078 15.5374 34.4156 14.7402 33.4474 14.7402H31.4934L36 1.13386L32.6553 0.0177167V0ZM9.68215 14.7402C9.68215 13.2697 10.8616 12.0827 12.3227 12.0827C13.7839 12.0827 14.9633 13.2697 14.9633 14.7402H9.68215ZM12.3227 5.88189C17.1814 5.88189 21.1247 9.85039 21.1247 14.7402H18.4841C18.4841 11.3209 15.7203 8.53937 12.3227 8.53937C8.92518 8.53937 6.16137 11.3209 6.16137 14.7402H3.52078C3.52078 9.85039 7.46406 5.88189 12.3227 5.88189Z" fill="#FF2D55"/>
</svg>
