<svg width="216" height="60" viewBox="0 0 216 60" fill="none" xmlns="http://www.w3.org/2000/svg">
<path d="M66.8346 40.8979C64.9434 40.8979 63.2387 40.5379 61.7205 39.8179C60.2289 39.0979 58.977 38.1513 57.9648 36.9779C56.9793 35.8046 56.2735 34.5379 55.8473 33.1779L58.1646 32.3379C58.9104 34.3646 60.0158 35.9113 61.4808 36.9779C62.9724 38.0446 64.7437 38.5779 66.7946 38.5779C68.153 38.5779 69.3383 38.3513 70.3505 37.8979C71.3893 37.4446 72.2017 36.8046 72.7877 35.9779C73.3737 35.1513 73.6667 34.1779 73.6667 33.0579C73.6667 31.5113 73.2272 30.3113 72.3482 29.4579C71.4958 28.6046 70.3771 27.9913 68.9921 27.6179L63.5584 26.0179C61.3476 25.3779 59.7095 24.3513 58.6441 22.9379C57.6053 21.4979 57.0859 19.8713 57.0859 18.0579C57.0859 16.4846 57.4588 15.1113 58.2046 13.9379C58.977 12.7379 60.0158 11.8046 61.321 11.1379C62.6261 10.4713 64.1044 10.1379 65.7558 10.1379C67.4872 10.1379 69.032 10.4713 70.3905 11.1379C71.7755 11.7779 72.9342 12.6313 73.8664 13.6979C74.8253 14.7379 75.5045 15.8979 75.9041 17.1779L73.6267 18.0179C72.9608 16.1779 71.9353 14.7913 70.5503 13.8579C69.1652 12.8979 67.5804 12.4179 65.7958 12.4179C64.6238 12.4179 63.5717 12.6446 62.6394 13.0979C61.7072 13.5513 60.9747 14.1913 60.442 15.0179C59.9093 15.8446 59.6429 16.8179 59.6429 17.9379C59.6429 19.2979 60.0291 20.4579 60.8016 21.4179C61.574 22.3779 62.8658 23.1379 64.6771 23.6979L69.5514 25.1379C71.6823 25.7779 73.3204 26.7646 74.4657 28.0979C75.6377 29.4046 76.2237 31.0179 76.2237 32.9379C76.2237 34.5113 75.8242 35.8979 75.0251 37.0979C74.226 38.2713 73.1073 39.2046 71.669 39.8979C70.2573 40.5646 68.6458 40.8979 66.8346 40.8979ZM89.9112 40.8979C88.4729 40.8979 87.1411 40.5646 85.9158 39.8979C84.7172 39.2313 83.7583 38.2979 83.0392 37.0979C82.32 35.8713 81.9604 34.4179 81.9604 32.7379V19.1779H84.3576V32.5379C84.3576 33.7913 84.6107 34.8713 85.1167 35.7779C85.6495 36.6579 86.3553 37.3379 87.2343 37.8179C88.1399 38.2979 89.1521 38.5379 90.2708 38.5379C91.496 38.5379 92.5481 38.2579 93.4271 37.6979C94.3328 37.1379 95.0253 36.3646 95.5047 35.3779C95.9842 34.3646 96.2239 33.2179 96.2239 31.9379V19.1779H98.6211V40.4179H96.2239V36.0979L96.8232 36.2979C96.3438 37.6846 95.4914 38.8046 94.2662 39.6579C93.0409 40.4846 91.5893 40.8979 89.9112 40.8979ZM112.416 40.8979C110.445 40.8979 108.713 40.4046 107.222 39.4179C105.73 38.4313 104.638 37.0846 103.945 35.3779L106.023 34.4179C106.689 35.7246 107.581 36.7646 108.7 37.5379C109.819 38.2846 111.057 38.6579 112.416 38.6579C113.801 38.6579 114.959 38.3246 115.892 37.6579C116.85 36.9646 117.33 36.0579 117.33 34.9379C117.33 34.2446 117.143 33.6579 116.771 33.1779C116.424 32.6979 115.971 32.3113 115.412 32.0179C114.853 31.6979 114.253 31.4579 113.614 31.2979L110.338 30.3779C108.5 29.8713 107.142 29.1246 106.263 28.1379C105.41 27.1513 104.984 25.9913 104.984 24.6579C104.984 23.4579 105.29 22.4179 105.903 21.5379C106.516 20.6313 107.341 19.9379 108.38 19.4579C109.419 18.9513 110.564 18.6979 111.816 18.6979C113.574 18.6979 115.172 19.1513 116.611 20.0579C118.049 20.9646 119.061 22.1913 119.647 23.7379L117.49 24.7379C116.93 23.5379 116.145 22.6046 115.132 21.9379C114.12 21.2446 113.002 20.8979 111.776 20.8979C110.498 20.8979 109.459 21.2446 108.66 21.9379C107.861 22.6046 107.461 23.4579 107.461 24.4979C107.461 25.1646 107.621 25.7246 107.941 26.1779C108.26 26.6046 108.673 26.9646 109.179 27.2579C109.712 27.5246 110.258 27.7379 110.817 27.8979L114.373 28.9379C116.105 29.4179 117.436 30.1779 118.369 31.2179C119.328 32.2579 119.807 33.4846 119.807 34.8979C119.807 36.0446 119.487 37.0713 118.848 37.9779C118.209 38.8846 117.33 39.6046 116.211 40.1379C115.092 40.6446 113.827 40.8979 112.416 40.8979ZM133.264 40.6579C131.506 40.6579 130.148 40.1646 129.189 39.1779C128.23 38.1646 127.75 36.6979 127.75 34.7779V21.4579H123.755V19.1779H125.273C126.072 19.1779 126.685 18.9379 127.111 18.4579C127.537 17.9779 127.75 17.3246 127.75 16.4979V14.2179H130.148V19.1779H134.782V21.4579H130.148V34.7779C130.148 35.3646 130.227 35.9379 130.387 36.4979C130.574 37.0579 130.92 37.5113 131.426 37.8579C131.932 38.2046 132.665 38.3779 133.624 38.3779C133.837 38.3779 134.09 38.3646 134.383 38.3379C134.702 38.3113 134.955 38.2846 135.142 38.2579V40.4179C134.849 40.4979 134.516 40.5513 134.143 40.5779C133.77 40.6313 133.477 40.6579 133.264 40.6579ZM146.375 40.8979C145.043 40.8979 143.858 40.6446 142.819 40.1379C141.78 39.6313 140.954 38.9246 140.342 38.0179C139.729 37.1113 139.423 36.0713 139.423 34.8979C139.423 33.8579 139.649 32.8846 140.102 31.9779C140.555 31.0713 141.287 30.2979 142.299 29.6579C143.311 28.9913 144.63 28.5246 146.255 28.2579L154.845 26.8179V29.0579L146.894 30.3779C145.083 30.6713 143.804 31.2179 143.058 32.0179C142.313 32.8179 141.94 33.7513 141.94 34.8179C141.94 35.9646 142.366 36.8979 143.218 37.6179C144.097 38.3379 145.203 38.6979 146.534 38.6979C148.079 38.6979 149.424 38.3513 150.57 37.6579C151.715 36.9379 152.607 36.0046 153.247 34.8579C153.886 33.6846 154.206 32.4046 154.206 31.0179V25.7379C154.206 24.3246 153.699 23.1779 152.687 22.2979C151.675 21.4179 150.357 20.9779 148.732 20.9779C147.4 20.9779 146.201 21.3113 145.136 21.9779C144.071 22.6446 143.258 23.5113 142.699 24.5779L140.541 23.4179C140.941 22.5646 141.554 21.7779 142.379 21.0579C143.205 20.3379 144.164 19.7646 145.256 19.3379C146.348 18.9113 147.507 18.6979 148.732 18.6979C150.277 18.6979 151.635 19.0046 152.807 19.6179C154.006 20.2046 154.938 21.0313 155.604 22.0979C156.27 23.1379 156.603 24.3513 156.603 25.7379V40.4179H154.206V35.9779L154.485 36.1779C154.139 37.0313 153.566 37.8179 152.767 38.5379C151.968 39.2313 151.023 39.8046 149.93 40.2579C148.865 40.6846 147.68 40.8979 146.375 40.8979ZM173.113 49.2179C171.702 49.2179 170.396 48.9913 169.198 48.5379C167.999 48.0846 166.96 47.4713 166.081 46.6979C165.202 45.9246 164.51 45.0446 164.004 44.0579L166.161 42.8979C166.747 44.0446 167.626 44.9913 168.798 45.7379C169.997 46.4846 171.422 46.8579 173.073 46.8579C174.405 46.8579 175.644 46.5913 176.789 46.0579C177.934 45.5513 178.867 44.7513 179.586 43.6579C180.332 42.5913 180.704 41.2446 180.704 39.6179V34.2179L181.144 34.7779C180.398 36.4313 179.266 37.7379 177.748 38.6979C176.23 39.6313 174.538 40.0979 172.674 40.0979C170.703 40.0979 168.931 39.6179 167.36 38.6579C165.788 37.6979 164.55 36.4046 163.644 34.7779C162.765 33.1513 162.326 31.3513 162.326 29.3779C162.326 27.4046 162.765 25.6179 163.644 24.0179C164.55 22.3913 165.775 21.0979 167.32 20.1379C168.891 19.1779 170.676 18.6979 172.674 18.6979C174.538 18.6979 176.216 19.1646 177.708 20.0979C179.2 21.0046 180.345 22.2313 181.144 23.7779L180.704 24.5379V19.1779H183.102V39.6179C183.102 41.4579 182.676 43.0979 181.823 44.5379C180.971 46.0046 179.786 47.1513 178.267 47.9779C176.776 48.8046 175.058 49.2179 173.113 49.2179ZM172.754 37.6979C174.245 37.6979 175.577 37.3246 176.749 36.5779C177.948 35.8313 178.893 34.8313 179.586 33.5779C180.278 32.2979 180.625 30.8979 180.625 29.3779C180.625 27.8579 180.278 26.4713 179.586 25.2179C178.893 23.9646 177.948 22.9646 176.749 22.2179C175.577 21.4713 174.245 21.0979 172.754 21.0979C171.235 21.0979 169.877 21.4713 168.678 22.2179C167.48 22.9646 166.548 23.9646 165.882 25.2179C165.216 26.4713 164.883 27.8579 164.883 29.3779C164.883 30.8979 165.216 32.2979 165.882 33.5779C166.548 34.8313 167.466 35.8313 168.638 36.5779C169.837 37.3246 171.209 37.6979 172.754 37.6979ZM199.566 40.8979C197.542 40.8979 195.717 40.4179 194.092 39.4579C192.467 38.4979 191.176 37.1779 190.217 35.4979C189.285 33.7913 188.818 31.8846 188.818 29.7779C188.818 27.6713 189.285 25.7779 190.217 24.0979C191.176 22.4179 192.454 21.0979 194.052 20.1379C195.677 19.1779 197.515 18.6979 199.566 18.6979C201.59 18.6979 203.415 19.1779 205.04 20.1379C206.664 21.0979 207.943 22.4179 208.875 24.0979C209.807 25.7513 210.274 27.6446 210.274 29.7779C210.274 31.9113 209.794 33.8179 208.835 35.4979C207.876 37.1779 206.585 38.4979 204.96 39.4579C203.362 40.4179 201.564 40.8979 199.566 40.8979ZM199.566 38.5379C201.084 38.5379 202.456 38.1646 203.681 37.4179C204.933 36.6446 205.919 35.5913 206.638 34.2579C207.357 32.9246 207.717 31.4313 207.717 29.7779C207.717 28.1246 207.357 26.6446 206.638 25.3379C205.919 24.0313 204.946 22.9913 203.721 22.2179C202.496 21.4446 201.111 21.0579 199.566 21.0579C198.021 21.0579 196.623 21.4446 195.371 22.2179C194.146 22.9646 193.173 24.0046 192.454 25.3379C191.735 26.6446 191.375 28.1246 191.375 29.7779C191.375 31.4313 191.735 32.9246 192.454 34.2579C193.2 35.5913 194.186 36.6446 195.411 37.4179C196.636 38.1646 198.021 38.5379 199.566 38.5379Z" fill="#1A1F40"/>
<mask id="mask0_26_94" style="mask-type:luminance" maskUnits="userSpaceOnUse" x="7" y="10" width="35" height="22">
<path d="M7.66479 17.5989C17.178 -7.05946 28.889 36.7809 41.5568 29.9479C28.8904 40.7342 17.282 -2.65664 7.66479 17.5989Z" fill="white"/>
</mask>
<g mask="url(#mask0_26_94)">
<path d="M7.66481 17.5989L8.75605 18.0449L6.61699 17.0519L7.66481 17.5989ZM41.5568 29.9478L40.8647 28.934L42.0275 31.1137L41.5568 29.9478ZM5.0461 26.4472L6.19676 26.701C7.03975 23.1248 7.89497 20.2768 8.75605 18.0449L7.66481 17.5989L6.57358 17.153C5.64948 19.5482 4.75822 22.5334 3.89547 26.1934L5.0461 26.4472ZM41.5568 29.9478L42.0275 31.1137C45.3579 29.3174 48.4239 24.7234 51.3888 16.5687L50.2876 16.1496L49.1859 15.7305C46.2518 23.8017 43.4879 27.4866 41.0861 28.7819L41.5568 29.9478ZM4.05736 28.8129L5.20799 29.0667C6.36474 24.1596 7.53929 20.6172 8.71264 18.1459L7.66481 17.5989L6.61699 17.0519C5.31828 19.7872 4.08654 23.5541 2.90674 28.5591L4.05736 28.8129ZM41.5568 29.9478L42.2494 30.9617C44.9558 28.6571 47.5258 24.3121 50.0462 17.3796L48.945 16.9605L47.8433 16.5414C45.3699 23.3454 43.0102 27.1068 40.8647 28.934L41.5568 29.9478ZM7.66481 17.5989L5.48234 16.707L9.76047 18.6929L7.66481 17.5989ZM41.5568 29.9478L42.9415 31.9755L40.6154 27.6161L41.5568 29.9478ZM7.66481 17.5989L9.84729 18.4908C10.9712 15.5777 12.001 14.0321 12.8104 13.2749C13.493 12.6364 14.0252 12.5352 14.6223 12.6567C15.3828 12.8114 16.3811 13.3785 17.6491 14.5276C18.889 15.6513 20.1995 17.1553 21.6093 18.8924C24.3281 22.2424 27.4748 26.5684 30.6691 29.484C33.8201 32.3602 37.9535 34.7311 42.4982 32.2796L41.5568 29.9478L40.6154 27.6161C38.8265 28.5811 36.7456 28.0343 33.8406 25.3828C30.9789 22.7707 28.2281 18.959 25.2465 15.2852C23.8061 13.5105 22.3157 11.7812 20.8089 10.4157C19.33 9.07549 17.6357 7.89745 15.7626 7.51649C13.726 7.10224 11.6836 7.67499 9.85536 9.38532C8.15391 10.9771 6.73681 13.4555 5.48234 16.707L7.66481 17.5989ZM7.66481 17.5989L9.76047 18.6929C10.8557 16.3862 11.7909 15.4068 12.4224 15.0201C12.9302 14.7092 13.4776 14.6326 14.3065 14.9627C15.2241 15.3282 16.3205 16.1422 17.6203 17.4338C18.8999 18.7053 20.2309 20.2891 21.653 22.0312C24.3989 25.395 27.5567 29.4712 30.8593 31.915C32.543 33.1609 34.4531 34.1346 36.5545 34.2902C38.7395 34.4519 40.9034 33.7113 42.9415 31.9755L41.5568 29.9478L40.1722 27.9202C39.044 28.881 38.0743 29.144 37.1624 29.0765C36.1671 29.0028 35.017 28.5145 33.6809 27.5258C30.9439 25.5005 28.2235 22.0174 25.2819 18.4137C23.8602 16.6721 22.3951 14.92 20.9298 13.4639C19.4847 12.0279 17.8876 10.7227 16.1665 10.0372C14.3568 9.31641 12.3206 9.25732 10.3032 10.4927C8.40962 11.6522 6.87827 13.7477 5.56916 16.5049L7.66481 17.5989Z" fill="#1A1F40"/>
</g>
<mask id="mask1_26_94" style="mask-type:luminance" maskUnits="userSpaceOnUse" x="6" y="15" width="34" height="23">
<path d="M6 23.4322C15.5132 -1.22622 27.2242 42.6141 39.892 35.7812C27.2256 46.5674 15.6172 3.17661 6 23.4322Z" fill="white"/>
</mask>
<g mask="url(#mask1_26_94)">
<path d="M6.00002 23.4322L7.09126 23.8782L4.95219 22.8852L6.00002 23.4322ZM39.892 35.7812L39.1999 34.7673L40.3628 36.9471L39.892 35.7812ZM3.3813 32.2805L4.53197 32.5343C5.37496 28.9581 6.23017 26.1101 7.09126 23.8782L6.00002 23.4322L4.90879 22.9863C3.98469 25.3815 3.09343 28.3668 2.23068 32.0267L3.3813 32.2805ZM39.892 35.7812L40.3628 36.9471C43.6931 35.1507 46.7591 30.5567 49.724 22.402L48.6228 21.9829L47.5211 21.5638C44.587 29.635 41.8231 33.3199 39.4213 34.6153L39.892 35.7812ZM2.39257 34.6462L3.5432 34.9C4.69994 29.9929 5.8745 26.4505 7.04785 23.9792L6.00002 23.4322L4.95219 22.8852C3.65349 25.6206 2.42175 29.3874 1.24194 34.3924L2.39257 34.6462ZM39.892 35.7812L40.5846 36.795C43.291 34.4904 45.861 30.1454 48.3814 23.2129L47.2802 22.7938L46.1785 22.3747C43.7051 29.1788 41.3454 32.9401 39.1999 34.7673L39.892 35.7812ZM6.00002 23.4322L3.81755 22.5403L8.09568 24.5262L6.00002 23.4322ZM39.892 35.7812L41.2767 37.8087L38.9508 33.4494L39.892 35.7812ZM6.00002 23.4322L8.1825 24.3241C9.30636 21.411 10.3362 19.8654 11.1456 19.1083C11.8282 18.4697 12.3604 18.3685 12.9575 18.49C13.718 18.6447 14.7163 19.2118 15.9843 20.3609C17.2242 21.4846 18.5347 22.9886 19.9445 24.7258C22.6633 28.0757 25.81 32.4017 29.0043 35.3173C32.1553 38.1933 36.2887 40.5646 40.8335 38.1129L39.892 35.7812L38.9508 33.4494C37.1617 34.4144 35.0808 33.8676 32.1759 31.2161C29.3141 28.6041 26.5633 24.7923 23.5817 21.1186C22.1413 19.3438 20.6509 17.6146 19.1441 16.249C17.6652 14.9088 15.9709 13.7308 14.0978 13.3498C12.0612 12.9356 10.0188 13.5083 8.19057 15.2186C6.48912 16.8104 5.07201 19.2888 3.81755 22.5403L6.00002 23.4322ZM6.00002 23.4322L8.09568 24.5262C9.19087 22.2195 10.1261 21.2401 10.7576 20.8534C11.2654 20.5425 11.8128 20.4659 12.6418 20.7961C13.5593 21.1615 14.6558 21.9756 15.9555 23.2671C17.2351 24.5386 18.5661 26.1224 19.9882 27.8645C22.7341 31.2283 25.8919 35.3045 29.1945 37.7483C30.8782 38.9941 32.7883 39.9679 34.8898 40.1233C37.0747 40.2854 39.2386 39.5446 41.2767 37.8087L39.892 35.7812L38.5075 33.7535C37.3792 34.7143 36.4095 34.9773 35.4976 34.9098C34.5023 34.8361 33.3522 34.3478 32.0161 33.3591C29.2791 31.3338 26.5587 27.8507 23.6171 24.2471C22.1954 22.5054 20.7303 20.7533 19.265 19.2973C17.8199 17.8613 16.2228 16.556 14.5017 15.8705C12.692 15.1497 10.6558 15.0906 8.63839 16.326C6.74483 17.4855 5.21348 19.5811 3.90437 22.3383L6.00002 23.4322Z" fill="#1A1F40"/>
</g>
</svg>
