<svg width="21" height="16" viewBox="0 0 21 16" fill="none" xmlns="http://www.w3.org/2000/svg">
<mask id="mask0_308_102" style="mask-type:luminance" maskUnits="userSpaceOnUse" x="0" y="0" width="21" height="13">
<path d="M0.949219 4.36921C6.41911 -9.80879 13.1526 15.3984 20.4363 11.4695C13.1535 17.6714 6.47891 -7.27727 0.949219 4.36921Z" fill="white"/>
</mask>
<g mask="url(#mask0_308_102)">
<path d="M0.950626 4.36744L1.57806 4.62386L0.348149 4.05293L0.950626 4.36744ZM20.4377 11.4678L20.0398 10.8848L20.7084 12.1381L20.4377 11.4678ZM-0.555076 9.455L0.106531 9.60092C0.591226 7.54469 1.08296 5.90718 1.57806 4.62386L0.950626 4.36744L0.32319 4.11105C-0.208144 5.48824 -0.720598 7.20469 -1.21666 9.30905L-0.555076 9.455ZM20.4377 11.4678L20.7084 12.1381C22.6232 11.1053 24.3861 8.46386 26.0909 3.77507L25.4577 3.53411L24.8243 3.29314C23.1372 7.93388 21.5481 10.0526 20.1671 10.7974L20.4377 11.4678ZM-1.12357 10.8152L-0.46199 10.9612C0.203111 8.13969 0.878454 6.10289 1.5531 4.68195L0.950626 4.36744L0.348149 4.05293C-0.398576 5.62568 -1.1068 7.79152 -1.78516 10.6693L-1.12357 10.8152ZM20.4377 11.4678L20.8359 12.0507C22.3921 10.7256 23.8697 8.22735 25.3189 4.24133L24.6857 4.00037L24.0523 3.7594C22.6302 7.67157 21.2734 9.83427 20.0398 10.8848L20.4377 11.4678ZM0.950626 4.36744L-0.304245 3.85463L2.15558 4.99646L0.950626 4.36744ZM20.4377 11.4678L21.2339 12.6336L19.8965 10.1271L20.4377 11.4678ZM0.950626 4.36744L2.2055 4.88025C2.85169 3.20529 3.44383 2.31662 3.90919 1.88127C4.30169 1.5141 4.6077 1.45593 4.95099 1.52576C5.38831 1.61472 5.96229 1.94082 6.69133 2.6015C7.40426 3.2476 8.15776 4.11239 8.96838 5.1112C10.5316 7.03732 12.3409 9.52467 14.1775 11.2011C15.9893 12.8548 18.3659 14.218 20.979 12.8085L20.4377 11.4678L19.8965 10.1271C18.8679 10.6819 17.6714 10.3676 16.0011 8.84301C14.3557 7.34112 12.774 5.14946 11.0597 3.03714C10.2315 2.01672 9.37451 1.02242 8.50814 0.237265C7.65785 -0.533323 6.68362 -1.21067 5.60667 -1.42971C4.43567 -1.6679 3.26134 -1.33858 2.21014 -0.355177C1.23185 0.560042 0.417042 1.9851 -0.304245 3.85463L0.950626 4.36744ZM0.950626 4.36744L2.15558 4.99646C2.78529 3.67016 3.32301 3.10704 3.68614 2.8847C3.97809 2.70593 4.29286 2.66187 4.76946 2.85171C5.29702 3.06181 5.92747 3.52989 6.67481 4.27252C7.41051 5.0036 8.17585 5.91422 8.9935 6.91588C10.5723 8.85001 12.388 11.1937 14.2869 12.5989C15.255 13.3152 16.3532 13.8751 17.5615 13.9645C18.8178 14.0575 20.062 13.6317 21.2339 12.6336L20.4377 11.4678L19.6416 10.3019C18.9929 10.8544 18.4354 11.0056 17.9111 10.9668C17.3388 10.9244 16.6775 10.6436 15.9092 10.0752C14.3356 8.91066 12.7714 6.90795 11.08 4.83595C10.2626 3.83453 9.42017 2.82715 8.57765 1.98994C7.74677 1.16427 6.82849 0.413758 5.83888 0.0196121C4.79835 -0.394802 3.62756 -0.428774 2.46762 0.281514C1.37887 0.948199 0.498379 2.15311 -0.254328 3.73844L0.950626 4.36744Z" fill="#1A1F40"/>
</g>
<mask id="mask1_308_102" style="mask-type:luminance" maskUnits="userSpaceOnUse" x="0" y="3" width="20" height="13">
<path d="M0 7.72468C5.46989 -6.45333 12.2034 18.7538 19.4871 14.8251C12.2042 21.0269 5.52969 -3.9218 0 7.72468Z" fill="white"/>
</mask>
<g mask="url(#mask1_308_102)">
<path d="M-0.00249743 7.72291L0.624938 7.97933L-0.604974 7.4084L-0.00249743 7.72291ZM19.4846 14.8233L19.0866 14.2403L19.7553 15.4936L19.4846 14.8233ZM-1.5082 12.8105L-0.846592 12.9564C-0.361897 10.9002 0.129834 9.26265 0.624938 7.97933L-0.00249743 7.72291L-0.629933 7.46652C-1.16127 8.84371 -1.67372 10.5602 -2.16978 12.6645L-1.5082 12.8105ZM19.4846 14.8233L19.7553 15.4936C21.6701 14.4607 23.433 11.8193 25.1378 7.13054L24.5046 6.88958L23.8712 6.64861C22.1841 11.2893 20.595 13.4081 19.214 14.1529L19.4846 14.8233ZM-2.0767 14.1707L-1.41511 14.3166C-0.750012 11.4952 -0.0746691 9.45836 0.59998 8.03742L-0.00249743 7.72291L-0.604974 7.4084C-1.3517 8.98115 -2.05992 11.147 -2.73828 14.0247L-2.0767 14.1707ZM19.4846 14.8233L19.8828 15.4062C21.439 14.0811 22.9166 11.5828 24.3658 7.5968L23.7326 7.35583L23.0992 7.11487C21.6771 11.027 20.3202 13.1897 19.0866 14.2403L19.4846 14.8233ZM-0.00249743 7.72291L-1.25737 7.2101L1.20246 8.35193L-0.00249743 7.72291ZM19.4846 14.8233L20.2808 15.9891L18.9434 13.4826L19.4846 14.8233ZM-0.00249743 7.72291L1.25237 8.23572C1.89857 6.56076 2.49071 5.67209 2.95607 5.23673C3.34856 4.86956 3.65458 4.8114 3.99787 4.88123C4.43518 4.97019 5.00916 5.29629 5.7382 5.95696C6.45114 6.60307 7.20464 7.46786 8.01525 8.46666C9.57848 10.3928 11.3878 12.8801 13.2244 14.5566C15.0362 16.2102 17.4128 17.5736 20.0259 16.1639L19.4846 14.8233L18.9434 13.4826C17.9148 14.0374 16.7183 13.723 15.048 12.1985C13.4026 10.6966 11.8209 8.50493 10.1065 6.39261C9.27838 5.37219 8.42139 4.37789 7.55501 3.59273C6.70472 2.82215 5.7305 2.1448 4.65354 1.92576C3.48255 1.68757 2.30822 2.01689 1.25702 3.00029C0.278724 3.91551 -0.536081 5.34057 -1.25737 7.2101L-0.00249743 7.72291ZM-0.00249743 7.72291L1.20246 8.35193C1.83217 7.02563 2.36989 6.46251 2.73302 6.24017C3.02496 6.0614 3.33973 6.01734 3.81634 6.20718C4.34389 6.41728 4.97434 6.88536 5.72169 7.62799C6.45738 8.35907 7.22273 9.26969 8.04038 10.2713C9.61921 12.2055 11.4348 14.5492 13.3338 15.9543C14.3019 16.6706 15.4001 17.2305 16.6084 17.3199C17.8647 17.4131 19.1089 16.9871 20.2808 15.9891L19.4846 14.8233L18.6885 13.6574C18.0398 14.2099 17.4823 14.3611 16.9579 14.3222C16.3856 14.2799 15.7244 13.9991 14.9561 13.4306C13.3824 12.2661 11.8183 10.2634 10.1269 8.19142C9.30944 7.19 8.46705 6.18262 7.62453 5.34541C6.79364 4.51974 5.87537 3.76923 4.88576 3.37508C3.84522 2.96067 2.67444 2.9267 1.5145 3.63698C0.425748 4.30367 -0.454744 5.50858 -1.20745 7.09391L-0.00249743 7.72291Z" fill="#1A1F40"/>
</g>
</svg>
