<svg width="50" height="50" viewBox="0 0 50 50" fill="none" xmlns="http://www.w3.org/2000/svg">
<path d="M13.4296 18.6875C13.7451 15.8405 15.0996 13.2098 17.2338 11.2991C19.3679 9.38848 22.1317 8.33203 24.9962 8.33203C27.8607 8.33203 30.6245 9.38848 32.7587 11.2991C34.8928 13.2098 36.2473 15.8405 36.5629 18.6875L37.0879 23.4083L37.1004 23.5271C37.3694 25.8688 38.132 28.1268 39.3379 30.1521L39.4004 30.2562L40.6025 32.2625C41.6962 34.0833 42.2421 34.9937 42.1233 35.7417C42.0449 36.2381 41.7896 36.6894 41.4045 37.0125C40.8233 37.5 39.7608 37.5 37.6379 37.5H12.3546C10.2296 37.5 9.16705 37.5 8.58789 37.0146C8.20164 36.6913 7.94557 36.2391 7.86705 35.7417C7.75039 34.9937 8.29622 34.0833 9.38788 32.2625L10.5941 30.2542L10.6566 30.15C11.8615 28.1252 12.6234 25.8679 12.8921 23.5271L12.9046 23.4083L13.4296 18.6875Z" stroke="black" stroke-width="1.33333"/>
<path d="M18.9609 38.3457C19.3172 39.8957 20.1026 41.2665 21.1943 42.2415C22.2859 43.2207 23.6234 43.7499 24.9984 43.7499C26.3734 43.7499 27.7109 43.2207 28.8026 42.2436C29.8943 41.2645 30.6776 39.8957 31.0359 38.3457" stroke="black" stroke-width="1.33333" stroke-linecap="round"/>
</svg>
