<svg width="60" height="60" viewBox="0 0 60 60" fill="none" xmlns="http://www.w3.org/2000/svg">
<path d="M30 3.75C26.519 3.75 23.1806 5.13281 20.7192 7.59422C18.2578 10.0556 16.875 13.394 16.875 16.875C16.875 20.356 18.2578 23.6944 20.7192 26.1558C23.1806 28.6172 26.519 30 30 30C33.481 30 36.8194 28.6172 39.2808 26.1558C41.7422 23.6944 43.125 20.356 43.125 16.875C43.125 13.394 41.7422 10.0556 39.2808 7.59422C36.8194 5.13281 33.481 3.75 30 3.75ZM18.75 16.875C18.75 13.8913 19.9353 11.0298 22.045 8.92005C24.1548 6.81026 27.0163 5.625 30 5.625C32.9837 5.625 35.8452 6.81026 37.955 8.92005C40.0647 11.0298 41.25 13.8913 41.25 16.875C41.25 19.8587 40.0647 22.7202 37.955 24.83C35.8452 26.9397 32.9837 28.125 30 28.125C27.0163 28.125 24.1548 26.9397 22.045 24.83C19.9353 22.7202 18.75 19.8587 18.75 16.875ZM14.0625 33.75C12.322 33.75 10.6528 34.4414 9.42211 35.6721C8.1914 36.9028 7.5 38.572 7.5 40.3125V41.5631C7.5 45.5944 12.6862 56.25 30 56.25C47.3138 56.25 52.5 45.5925 52.5 41.5631V40.3125C52.5 38.572 51.8086 36.9028 50.5779 35.6721C49.3472 34.4414 47.678 33.75 45.9375 33.75H14.0625ZM9.375 40.3125C9.375 39.0693 9.86886 37.877 10.7479 36.9979C11.627 36.1189 12.8193 35.625 14.0625 35.625H45.9375C47.1807 35.625 48.373 36.1189 49.2521 36.9979C50.1311 37.877 50.625 39.0693 50.625 40.3125V41.5631C50.625 44.4075 46.4344 54.375 30 54.375C13.5656 54.375 9.375 44.4075 9.375 41.5631V40.3125Z" fill="#1A1F40"/>
</svg>
