<svg width="34" height="36" viewBox="0 0 34 36" fill="none" xmlns="http://www.w3.org/2000/svg">
<path d="M23.5859 20.0532C23.4152 20.0532 23.4152 19.8807 23.2445 19.8807C25.8053 17.9832 27.1711 15.0507 27.1711 11.7732V10.5657L27.6833 6.42566C28.0247 3.66565 26.1467 1.25063 23.5859 0.733129L22.0494 0.388127C18.6349 -0.129376 15.2205 -0.129376 11.806 0.388127L10.4402 0.733129C7.70868 1.25063 5.83072 3.66565 6.17217 6.42566L6.68434 10.5657V11.7732C6.68434 14.8782 8.05012 17.9832 10.611 19.8807C10.4402 19.8807 10.4402 20.0532 10.2695 20.0532C4.63566 22.4683 0.709037 27.8158 0.0261451 34.0258C-0.144578 34.8883 0.538314 35.7508 1.56265 35.9233C2.58699 36.0958 31.4392 35.9233 32.2928 35.9233H32.4635C33.3171 35.7508 34 34.8883 34 34.0258C33.1464 27.8158 29.2198 22.4683 23.5859 20.0532ZM16.9277 25.4008L14.0254 22.4683C15.9034 22.1233 17.7813 22.1233 19.6593 22.4683L16.9277 25.4008ZM16.9277 18.6732C13.1718 18.6732 10.2695 15.7407 10.0988 11.9457H23.7566C23.5859 15.7407 20.6836 18.6732 16.9277 18.6732Z" fill="#D64DE9"/>
</svg>
