<svg width="36" height="36" viewBox="0 0 36 36" fill="none" xmlns="http://www.w3.org/2000/svg">
<path d="M19.2722 0.527021L35.4692 16.7272C36.603 17.8612 35.8003 19.7998 34.1968 19.7998H32.3971V30.5999C32.3971 32.0321 31.8283 33.4057 30.8158 34.4184C29.8033 35.4311 28.43 36 26.9981 36H25.1985V23.3999C25.1986 22.0225 24.6724 20.6971 23.7276 19.695C22.7829 18.6928 21.491 18.0896 20.1162 18.0088L19.7995 17.9998H16.2001C14.7682 17.9998 13.395 18.5687 12.3825 19.5814C11.37 20.5942 10.8011 21.9677 10.8011 23.3999V36H9.00148C7.56957 36 6.19632 35.4311 5.18381 34.4184C4.1713 33.4057 3.60248 32.0321 3.60248 30.5999V19.7998H1.80281C0.201109 19.7998 -0.603342 17.8612 0.530448 16.7272L16.7274 0.527021C17.0649 0.18957 17.5226 0 17.9998 0C18.477 0 18.9347 0.18957 19.2722 0.527021ZM19.7995 21.5998C20.2768 21.5998 20.7345 21.7895 21.072 22.1271C21.4095 22.4646 21.5991 22.9225 21.5991 23.3999V36H14.4005V23.3999C14.4005 22.959 14.5624 22.5334 14.8553 22.204C15.1482 21.8745 15.5518 21.664 15.9896 21.6124L16.2001 21.5998H19.7995Z" fill="#65E184"/>
</svg>
