<svg width="33" height="30" viewBox="0 0 33 30" fill="none" xmlns="http://www.w3.org/2000/svg">
<path d="M23.25 18.4375H9.5C9.30383 18.4375 9.14021 18.372 9.00912 18.2409C8.87804 18.1098 8.8125 17.9462 8.8125 17.75C8.8125 17.5538 8.87804 17.3902 9.00912 17.2591C9.14021 17.128 9.30383 17.0625 9.5 17.0625H23.25C23.4453 17.0625 23.6089 17.128 23.7409 17.2591C23.8729 17.3902 23.9384 17.5538 23.9375 17.75C23.9366 17.9462 23.871 18.1098 23.7409 18.2409C23.6107 18.372 23.4471 18.4375 23.25 18.4375ZM23.25 14.3125H9.5C9.30383 14.3125 9.14021 14.247 9.00912 14.1159C8.87804 13.9848 8.8125 13.8212 8.8125 13.625C8.8125 13.4288 8.87804 13.2652 9.00912 13.1341C9.14021 13.003 9.30383 12.9375 9.5 12.9375H23.25C23.4453 12.9375 23.6089 13.003 23.7409 13.1341C23.8729 13.2652 23.9384 13.4288 23.9375 13.625C23.9366 13.8212 23.871 13.9848 23.7409 14.1159C23.6107 14.247 23.4471 14.3125 23.25 14.3125ZM23.25 10.1875H9.5C9.30383 10.1875 9.14021 10.122 9.00912 9.99088C8.87804 9.85979 8.8125 9.69617 8.8125 9.5C8.8125 9.30384 8.87804 9.14021 9.00912 9.00913C9.14021 8.87804 9.30383 8.8125 9.5 8.8125H23.25C23.4453 8.8125 23.6089 8.87804 23.7409 9.00913C23.8729 9.14021 23.9384 9.30384 23.9375 9.5C23.9366 9.69617 23.871 9.85979 23.7409 9.99088C23.6107 10.122 23.4471 10.1875 23.25 10.1875ZM26.528 23.25C27.1614 23.25 27.6899 23.0383 28.1134 22.6148C28.5369 22.1913 28.7491 21.6628 28.75 21.0294V6.22063C28.75 5.58813 28.5378 5.05967 28.1134 4.63525C27.689 4.21084 27.161 3.99909 26.5294 4H6.22062C5.58813 4 5.06012 4.21175 4.63662 4.63525C4.21312 5.05875 4.00092 5.58721 4 6.22063V24.8079C4 25.3029 4.22779 25.6443 4.68337 25.8323C5.13896 26.0202 5.54046 25.9404 5.88787 25.593L8.23088 23.25H26.528ZM7.64375 21.875L5.375 24.1355V6.222C5.375 6.01025 5.463 5.81592 5.639 5.639C5.815 5.46209 6.00887 5.37409 6.22062 5.375H26.5294C26.7402 5.375 26.9341 5.463 27.111 5.639C27.2879 5.815 27.3759 6.00888 27.375 6.22063V21.0294C27.375 21.2402 27.287 21.4341 27.111 21.611C26.935 21.7879 26.7411 21.8759 26.5294 21.875H7.64375Z" fill="#FFFFFF"/>
</svg>
