<svg width="32" height="32" viewBox="0 0 32 32" fill="none" xmlns="http://www.w3.org/2000/svg">
<path d="M30.4537 6.015C30.4463 5.8929 30.3944 5.77776 30.3077 5.69138C30.2211 5.60499 30.1059 5.55336 29.9837 5.54625C23.7025 5.17125 18.6787 7.05875 16.5437 10.5825C15.0887 12.985 15.1475 15.8225 16.6987 18.6087C15.604 19.8113 14.8811 21.3053 14.6175 22.91L11.6812 19.9737C12.76 17.9737 12.7825 15.9325 11.7337 14.2C10.1812 11.6362 6.54374 10.2662 1.99999 10.5325C1.87852 10.5402 1.76401 10.5919 1.67794 10.6779C1.59188 10.764 1.54016 10.8785 1.53249 11C1.26624 15.5412 2.63624 19.1787 5.19999 20.7312C6.02277 21.2365 6.96946 21.5039 7.93499 21.5037C9.00073 21.4856 10.0451 21.202 10.9737 20.6787L14.5 24.2087V28C14.5 28.1326 14.5527 28.2598 14.6464 28.3535C14.7402 28.4473 14.8674 28.5 15 28.5C15.1326 28.5 15.2598 28.4473 15.3535 28.3535C15.4473 28.2598 15.5 28.1326 15.5 28V24.3137C15.4953 22.4678 16.1764 20.6859 17.4112 19.3137C18.8475 20.1087 20.295 20.5087 21.6912 20.5087C23.0065 20.509 24.2962 20.1451 25.4175 19.4575C28.94 17.3212 30.8237 12.2975 30.4537 6.015ZM5.71749 19.875C3.55874 18.57 2.37499 15.4612 2.50999 11.51C6.46124 11.3737 9.56999 12.5587 10.885 14.7175C11.695 16.0562 11.7087 17.6387 10.9425 19.2287L7.35249 15.6462C7.25738 15.5601 7.13277 15.5138 7.00446 15.5169C6.87615 15.5201 6.75397 15.5725 6.66321 15.6632C6.57246 15.754 6.52008 15.8762 6.51692 16.0045C6.51376 16.1328 6.56006 16.2574 6.64624 16.3525L10.23 19.9362C8.63874 20.7025 7.05624 20.6887 5.71749 19.875ZM24.8987 18.6C22.8925 19.815 20.5125 19.7987 18.1387 18.5687L25.3537 11.3525C25.4436 11.258 25.4931 11.1322 25.4915 11.0018C25.49 10.8714 25.4375 10.7468 25.3454 10.6545C25.2533 10.5623 25.1288 10.5096 24.9984 10.5078C24.868 10.506 24.7421 10.5553 24.6475 10.645L17.4312 17.8612C16.2012 15.4862 16.1812 13.1112 17.4 11.1012C19.2887 7.97625 23.785 6.285 29.4787 6.52125C29.7162 12.215 28.0187 16.7112 24.8987 18.6Z" fill="#1A1F40"/>
</svg>
