<svg width="428" height="154" viewBox="0 0 428 154" fill="none" xmlns="http://www.w3.org/2000/svg">
<rect width="112" height="106" rx="16" fill="#9999FF" fill-opacity="0.08"/>
<path d="M38.5966 25.5114C40.1875 25.5114 41.7074 25.7718 43.1562 26.2926C44.6051 26.804 45.8977 27.6231 47.0341 28.75C48.1705 29.8674 49.0653 31.34 49.7188 33.1676C50.3722 34.9953 50.6989 37.2254 50.6989 39.858C50.7083 42.2822 50.4242 44.4555 49.8466 46.3778C49.2689 48.2907 48.4403 49.9195 47.3608 51.2642C46.2907 52.6089 45.0028 53.6364 43.4972 54.3466C41.9915 55.0473 40.3106 55.3977 38.4545 55.3977C36.4091 55.3977 34.6051 55.0047 33.0426 54.2188C31.4896 53.4233 30.2443 52.3532 29.3068 51.0085C28.3788 49.6638 27.8248 48.1581 27.6449 46.4915H34.5625C34.7803 47.4574 35.2396 48.1866 35.9403 48.679C36.6411 49.1619 37.4792 49.4034 38.4545 49.4034C40.2348 49.4034 41.5653 48.6316 42.446 47.0881C43.3267 45.5445 43.767 43.447 43.767 40.7955H43.5966C43.1894 41.6667 42.6117 42.4148 41.8636 43.0398C41.125 43.6648 40.268 44.143 39.2926 44.4744C38.3172 44.8059 37.2898 44.9716 36.2102 44.9716C34.4678 44.9716 32.929 44.5739 31.5938 43.7784C30.268 42.983 29.2263 41.8892 28.4688 40.4972C27.7206 39.1051 27.3419 37.5142 27.3324 35.7244C27.3229 33.7169 27.7917 31.946 28.7386 30.4119C29.6856 28.8684 31.0066 27.6657 32.7017 26.804C34.3968 25.9328 36.3617 25.5019 38.5966 25.5114ZM38.6392 30.9091C37.768 30.9091 36.9915 31.1127 36.3097 31.5199C35.6373 31.9271 35.107 32.4763 34.7188 33.1676C34.3305 33.8589 34.1411 34.6354 34.1506 35.4972C34.16 36.3589 34.3542 37.1354 34.733 37.8267C35.1212 38.518 35.6468 39.0672 36.3097 39.4744C36.982 39.8816 37.7491 40.0852 38.6108 40.0852C39.2547 40.0852 39.8513 39.9669 40.4006 39.7301C40.9498 39.4934 41.428 39.1667 41.8352 38.75C42.2424 38.3239 42.5597 37.8314 42.7869 37.2727C43.0237 36.714 43.1373 36.1174 43.1278 35.483C43.1184 34.6402 42.9195 33.8731 42.5312 33.1818C42.143 32.4905 41.608 31.9413 40.9261 31.5341C40.2538 31.1174 39.4915 30.9091 38.6392 30.9091ZM55.672 55.4119C54.6493 55.4119 53.7733 55.0521 53.0442 54.3324C52.3245 53.6127 51.9694 52.7415 51.9788 51.7188C51.9694 50.715 52.3245 49.858 53.0442 49.1477C53.7733 48.428 54.6493 48.0682 55.672 48.0682C56.6379 48.0682 57.4902 48.428 58.2288 49.1477C58.9769 49.858 59.3557 50.715 59.3652 51.7188C59.3557 52.4006 59.1758 53.0208 58.8254 53.5795C58.4845 54.1383 58.0347 54.5833 57.476 54.9148C56.9268 55.2462 56.3254 55.4119 55.672 55.4119ZM72.5024 55.3977C70.2865 55.3977 68.3215 55.0189 66.6075 54.2614C64.903 53.4943 63.5583 52.4384 62.5734 51.0938C61.5886 49.7491 61.0867 48.2008 61.0678 46.4489H68.1416C68.17 47.0833 68.3736 47.6468 68.7524 48.1392C69.1312 48.6222 69.6473 49.0009 70.3007 49.2756C70.9541 49.5502 71.6975 49.6875 72.5308 49.6875C73.3642 49.6875 74.0981 49.5407 74.7325 49.2472C75.3765 48.9441 75.8784 48.5322 76.2382 48.0114C76.5981 47.4811 76.7732 46.875 76.7638 46.1932C76.7732 45.5114 76.5791 44.9053 76.1814 44.375C75.7837 43.8447 75.2202 43.4328 74.4911 43.1392C73.7714 42.8456 72.9191 42.6989 71.9342 42.6989H69.1075V37.6989H71.9342C72.796 37.6989 73.5536 37.5568 74.207 37.2727C74.8698 36.9886 75.3859 36.5909 75.7553 36.0795C76.1246 35.5587 76.3045 34.9621 76.295 34.2898C76.3045 33.6364 76.1482 33.0634 75.8263 32.571C75.5138 32.0691 75.0734 31.6809 74.5053 31.4062C73.9465 31.1316 73.2979 30.9943 72.5592 30.9943C71.7827 30.9943 71.0772 31.1316 70.4428 31.4062C69.8178 31.6809 69.3206 32.0691 68.9513 32.571C68.582 33.0729 68.3878 33.6553 68.3689 34.3182H61.6501C61.6691 32.5852 62.152 31.0606 63.099 29.7443C64.046 28.4186 65.3339 27.3816 66.9626 26.6335C68.6009 25.8854 70.4664 25.5114 72.5592 25.5114C74.6426 25.5114 76.475 25.8759 78.0564 26.6051C79.6378 27.3343 80.8689 28.3286 81.7496 29.5881C82.6303 30.8381 83.0706 32.2538 83.0706 33.8352C83.0801 35.4735 82.545 36.8229 81.4655 37.8835C80.3954 38.9441 79.0176 39.5975 77.332 39.8438V40.071C79.5857 40.3362 81.2856 41.0653 82.4314 42.2585C83.5867 43.4517 84.1596 44.9432 84.1501 46.733C84.1501 48.4186 83.653 49.9148 82.6587 51.2216C81.6738 52.5189 80.3007 53.5417 78.5393 54.2898C76.7875 55.0284 74.7751 55.3977 72.5024 55.3977Z" fill="#6282ED"/>
<path d="M17.4 87V76.57H24.274V78.04H19.052V81.036H23.994V82.506H19.052V85.53H24.274V87H17.4ZM30.1062 87.168C29.3689 87.168 28.6829 87.0327 28.0482 86.762C27.4229 86.4913 26.8769 86.118 26.4102 85.642C25.9529 85.1567 25.5936 84.5873 25.3322 83.934C25.0709 83.2807 24.9402 82.562 24.9402 81.778C24.9402 81.0033 25.0662 80.2893 25.3182 79.636C25.5796 78.9733 25.9436 78.404 26.4102 77.928C26.8769 77.4427 27.4229 77.0693 28.0482 76.808C28.6736 76.5373 29.3596 76.402 30.1062 76.402C30.8436 76.402 31.5016 76.528 32.0802 76.78C32.6682 77.032 33.1629 77.3633 33.5642 77.774C33.9656 78.1753 34.2549 78.614 34.4322 79.09L32.9482 79.79C32.7242 79.23 32.3649 78.7773 31.8702 78.432C31.3849 78.0773 30.7969 77.9 30.1062 77.9C29.4156 77.9 28.8042 78.0633 28.2722 78.39C27.7402 78.7167 27.3249 79.1693 27.0262 79.748C26.7369 80.3267 26.5922 81.0033 26.5922 81.778C26.5922 82.5527 26.7369 83.234 27.0262 83.822C27.3249 84.4007 27.7402 84.8533 28.2722 85.18C28.8042 85.4973 29.4156 85.656 30.1062 85.656C30.7969 85.656 31.3849 85.4833 31.8702 85.138C32.3649 84.7927 32.7242 84.34 32.9482 83.78L34.4322 84.48C34.2549 84.9467 33.9656 85.3853 33.5642 85.796C33.1629 86.2067 32.6682 86.538 32.0802 86.79C31.5016 87.042 30.8436 87.168 30.1062 87.168ZM40.639 87.168C39.883 87.168 39.1784 87.0327 38.525 86.762C37.881 86.4913 37.3117 86.1133 36.817 85.628C36.3317 85.1427 35.949 84.5733 35.669 83.92C35.3984 83.2667 35.263 82.5527 35.263 81.778C35.263 81.0033 35.3984 80.2893 35.669 79.636C35.949 78.9733 36.3317 78.404 36.817 77.928C37.3024 77.4427 37.8717 77.0693 38.525 76.808C39.1784 76.5373 39.883 76.402 40.639 76.402C41.4044 76.402 42.109 76.5373 42.753 76.808C43.4064 77.0693 43.9757 77.4427 44.461 77.928C44.9557 78.4133 45.3384 78.9827 45.609 79.636C45.8797 80.2893 46.015 81.0033 46.015 81.778C46.015 82.5527 45.875 83.2667 45.595 83.92C45.3244 84.5733 44.9464 85.1427 44.461 85.628C43.9757 86.1133 43.4064 86.4913 42.753 86.762C42.0997 87.0327 41.395 87.168 40.639 87.168ZM40.639 85.656C41.1804 85.656 41.675 85.558 42.123 85.362C42.5804 85.166 42.977 84.8953 43.313 84.55C43.649 84.1953 43.9104 83.7847 44.097 83.318C44.2837 82.842 44.377 82.3287 44.377 81.778C44.377 81.2273 44.2837 80.7187 44.097 80.252C43.9104 79.7853 43.649 79.3747 43.313 79.02C42.977 78.6653 42.5804 78.39 42.123 78.194C41.675 77.998 41.1804 77.9 40.639 77.9C40.0977 77.9 39.5984 77.998 39.141 78.194C38.693 78.39 38.301 78.6653 37.965 79.02C37.629 79.3747 37.3677 79.7853 37.181 80.252C37.0037 80.7187 36.915 81.2273 36.915 81.778C36.915 82.3287 37.0037 82.842 37.181 83.318C37.3677 83.7847 37.629 84.1953 37.965 84.55C38.301 84.8953 38.6977 85.166 39.155 85.362C39.6124 85.558 40.107 85.656 40.639 85.656ZM52.8433 87.168C52.19 87.168 51.5833 87.0467 51.0233 86.804C50.4633 86.552 49.9873 86.2113 49.5953 85.782C49.2033 85.3527 48.914 84.858 48.7273 84.298L50.1273 83.71C50.3793 84.354 50.748 84.8487 51.2333 85.194C51.7187 85.5393 52.2787 85.712 52.9133 85.712C53.2867 85.712 53.6133 85.656 53.8933 85.544C54.1733 85.4227 54.388 85.2547 54.5373 85.04C54.696 84.8253 54.7753 84.578 54.7753 84.298C54.7753 83.9153 54.668 83.612 54.4533 83.388C54.2387 83.164 53.9213 82.9867 53.5013 82.856L51.5413 82.24C50.7573 81.9973 50.16 81.6287 49.7493 81.134C49.3387 80.63 49.1333 80.042 49.1333 79.37C49.1333 78.782 49.278 78.2687 49.5673 77.83C49.8567 77.382 50.2533 77.032 50.7573 76.78C51.2707 76.528 51.854 76.402 52.5073 76.402C53.1327 76.402 53.702 76.514 54.2153 76.738C54.7287 76.9527 55.1673 77.2513 55.5313 77.634C55.9047 78.0167 56.1753 78.46 56.3433 78.964L54.9713 79.566C54.766 79.0153 54.444 78.5907 54.0053 78.292C53.576 77.9933 53.0767 77.844 52.5073 77.844C52.162 77.844 51.8587 77.9047 51.5973 78.026C51.336 78.138 51.1307 78.306 50.9813 78.53C50.8413 78.7447 50.7713 78.9967 50.7713 79.286C50.7713 79.622 50.8787 79.9207 51.0933 80.182C51.308 80.4433 51.6347 80.6393 52.0733 80.77L53.8933 81.344C54.724 81.596 55.3493 81.96 55.7693 82.436C56.1893 82.9027 56.3993 83.486 56.3993 84.186C56.3993 84.7647 56.2453 85.278 55.9373 85.726C55.6387 86.174 55.2233 86.5287 54.6913 86.79C54.1593 87.042 53.5433 87.168 52.8433 87.168ZM62.5518 87.168C61.8145 87.168 61.1285 87.0327 60.4938 86.762C59.8685 86.4913 59.3225 86.118 58.8558 85.642C58.3985 85.1567 58.0391 84.5873 57.7778 83.934C57.5165 83.2807 57.3858 82.562 57.3858 81.778C57.3858 81.0033 57.5118 80.2893 57.7638 79.636C58.0251 78.9733 58.3891 78.404 58.8558 77.928C59.3225 77.4427 59.8685 77.0693 60.4938 76.808C61.1191 76.5373 61.8051 76.402 62.5518 76.402C63.2891 76.402 63.9471 76.528 64.5258 76.78C65.1138 77.032 65.6085 77.3633 66.0098 77.774C66.4111 78.1753 66.7005 78.614 66.8778 79.09L65.3938 79.79C65.1698 79.23 64.8105 78.7773 64.3158 78.432C63.8305 78.0773 63.2425 77.9 62.5518 77.9C61.8611 77.9 61.2498 78.0633 60.7178 78.39C60.1858 78.7167 59.7705 79.1693 59.4718 79.748C59.1825 80.3267 59.0378 81.0033 59.0378 81.778C59.0378 82.5527 59.1825 83.234 59.4718 83.822C59.7705 84.4007 60.1858 84.8533 60.7178 85.18C61.2498 85.4973 61.8611 85.656 62.5518 85.656C63.2425 85.656 63.8305 85.4833 64.3158 85.138C64.8105 84.7927 65.1698 84.34 65.3938 83.78L66.8778 84.48C66.7005 84.9467 66.4111 85.3853 66.0098 85.796C65.6085 86.2067 65.1138 86.538 64.5258 86.79C63.9471 87.042 63.2891 87.168 62.5518 87.168ZM73.0846 87.168C72.3286 87.168 71.6239 87.0327 70.9706 86.762C70.3266 86.4913 69.7573 86.1133 69.2626 85.628C68.7773 85.1427 68.3946 84.5733 68.1146 83.92C67.8439 83.2667 67.7086 82.5527 67.7086 81.778C67.7086 81.0033 67.8439 80.2893 68.1146 79.636C68.3946 78.9733 68.7773 78.404 69.2626 77.928C69.7479 77.4427 70.3173 77.0693 70.9706 76.808C71.6239 76.5373 72.3286 76.402 73.0846 76.402C73.8499 76.402 74.5546 76.5373 75.1986 76.808C75.8519 77.0693 76.4213 77.4427 76.9066 77.928C77.4013 78.4133 77.7839 78.9827 78.0546 79.636C78.3253 80.2893 78.4606 81.0033 78.4606 81.778C78.4606 82.5527 78.3206 83.2667 78.0406 83.92C77.7699 84.5733 77.3919 85.1427 76.9066 85.628C76.4213 86.1133 75.8519 86.4913 75.1986 86.762C74.5453 87.0327 73.8406 87.168 73.0846 87.168ZM73.0846 85.656C73.6259 85.656 74.1206 85.558 74.5686 85.362C75.0259 85.166 75.4226 84.8953 75.7586 84.55C76.0946 84.1953 76.3559 83.7847 76.5426 83.318C76.7293 82.842 76.8226 82.3287 76.8226 81.778C76.8226 81.2273 76.7293 80.7187 76.5426 80.252C76.3559 79.7853 76.0946 79.3747 75.7586 79.02C75.4226 78.6653 75.0259 78.39 74.5686 78.194C74.1206 77.998 73.6259 77.9 73.0846 77.9C72.5433 77.9 72.0439 77.998 71.5866 78.194C71.1386 78.39 70.7466 78.6653 70.4106 79.02C70.0746 79.3747 69.8133 79.7853 69.6266 80.252C69.4493 80.7187 69.3606 81.2273 69.3606 81.778C69.3606 82.3287 69.4493 82.842 69.6266 83.318C69.8133 83.7847 70.0746 84.1953 70.4106 84.55C70.7466 84.8953 71.1433 85.166 71.6006 85.362C72.0579 85.558 72.5526 85.656 73.0846 85.656ZM79.7476 87V76.57H83.5416C84.2416 76.57 84.8576 76.7007 85.3896 76.962C85.9216 77.214 86.3369 77.5873 86.6356 78.082C86.9436 78.5673 87.0976 79.1507 87.0976 79.832C87.0976 80.5507 86.9156 81.1667 86.5516 81.68C86.1969 82.1933 85.7163 82.5667 85.1096 82.8L87.5176 87H85.6416L83.0796 82.45L84.1576 83.08H81.3996V87H79.7476ZM81.3996 81.61H83.5696C83.9523 81.61 84.2836 81.5353 84.5636 81.386C84.8436 81.2367 85.0583 81.0313 85.2076 80.77C85.3663 80.4993 85.4456 80.182 85.4456 79.818C85.4456 79.454 85.3663 79.1413 85.2076 78.88C85.0583 78.6093 84.8436 78.404 84.5636 78.264C84.2836 78.1147 83.9523 78.04 83.5696 78.04H81.3996V81.61ZM88.3478 87V76.57H95.2218V78.04H89.9998V81.036H94.9418V82.506H89.9998V85.53H95.2218V87H88.3478Z" fill="#94A3B8"/>
<path d="M215.51 20V9.57H217.162V18.53H221.67V20H215.51ZM222.343 20V12.426H223.925V20H222.343ZM222.343 11.39V9.57H223.925V11.39H222.343ZM225.215 20V12.426H226.727V13.91L226.545 13.714C226.731 13.238 227.03 12.8787 227.441 12.636C227.851 12.384 228.327 12.258 228.869 12.258C229.429 12.258 229.923 12.3793 230.353 12.622C230.782 12.8647 231.118 13.2007 231.361 13.63C231.603 14.0593 231.725 14.554 231.725 15.114V20H230.157V15.534C230.157 15.1513 230.087 14.8293 229.947 14.568C229.807 14.2973 229.606 14.092 229.345 13.952C229.093 13.8027 228.803 13.728 228.477 13.728C228.15 13.728 227.856 13.8027 227.595 13.952C227.343 14.092 227.147 14.2973 227.007 14.568C226.867 14.8387 226.797 15.1607 226.797 15.534V20H225.215ZM236.512 23.08C235.961 23.08 235.452 22.9913 234.986 22.814C234.519 22.6367 234.118 22.3893 233.782 22.072C233.446 21.764 233.194 21.4 233.026 20.98L234.482 20.378C234.612 20.7327 234.85 21.0267 235.196 21.26C235.55 21.4933 235.984 21.61 236.498 21.61C236.899 21.61 237.258 21.5307 237.576 21.372C237.893 21.2227 238.145 20.9987 238.332 20.7C238.518 20.4107 238.612 20.0607 238.612 19.65V17.942L238.892 18.264C238.63 18.7493 238.266 19.118 237.8 19.37C237.342 19.622 236.824 19.748 236.246 19.748C235.546 19.748 234.916 19.5847 234.356 19.258C233.796 18.9313 233.352 18.4833 233.026 17.914C232.708 17.3447 232.55 16.7053 232.55 15.996C232.55 15.2773 232.708 14.638 233.026 14.078C233.352 13.518 233.791 13.0747 234.342 12.748C234.892 12.4213 235.522 12.258 236.232 12.258C236.81 12.258 237.324 12.384 237.772 12.636C238.229 12.8787 238.602 13.2333 238.892 13.7L238.682 14.092V12.426H240.18V19.65C240.18 20.3033 240.021 20.8867 239.704 21.4C239.396 21.9227 238.966 22.3333 238.416 22.632C237.865 22.9307 237.23 23.08 236.512 23.08ZM236.428 18.278C236.848 18.278 237.221 18.18 237.548 17.984C237.874 17.7787 238.131 17.508 238.318 17.172C238.514 16.8267 238.612 16.4393 238.612 16.01C238.612 15.5807 238.514 15.1933 238.318 14.848C238.122 14.5027 237.86 14.232 237.534 14.036C237.207 13.8307 236.838 13.728 236.428 13.728C235.998 13.728 235.616 13.8307 235.28 14.036C234.944 14.232 234.678 14.5027 234.482 14.848C234.295 15.184 234.202 15.5713 234.202 16.01C234.202 16.43 234.295 16.8127 234.482 17.158C234.678 17.5033 234.944 17.7787 235.28 17.984C235.616 18.18 235.998 18.278 236.428 18.278ZM241.472 20V9.402H243.054V16.5L242.438 16.346L246.232 12.426H248.206L245.35 15.464L248.332 20H246.512L243.852 15.982L244.79 15.856L242.55 18.236L243.054 17.186V20H241.472ZM251.557 20.168C250.988 20.168 250.488 20.042 250.059 19.79C249.63 19.5287 249.294 19.1693 249.051 18.712C248.818 18.2453 248.701 17.7087 248.701 17.102V12.426H250.283V16.962C250.283 17.3073 250.353 17.6107 250.493 17.872C250.633 18.1333 250.829 18.3387 251.081 18.488C251.333 18.628 251.622 18.698 251.949 18.698C252.285 18.698 252.579 18.6233 252.831 18.474C253.083 18.3247 253.279 18.1147 253.419 17.844C253.568 17.5733 253.643 17.256 253.643 16.892V12.426H255.211V20H253.713V18.516L253.881 18.712C253.704 19.1787 253.41 19.538 252.999 19.79C252.588 20.042 252.108 20.168 251.557 20.168ZM256.498 20V12.426H258.01V13.91L257.828 13.714C258.015 13.238 258.313 12.8787 258.724 12.636C259.135 12.384 259.611 12.258 260.152 12.258C260.712 12.258 261.207 12.3793 261.636 12.622C262.065 12.8647 262.401 13.2007 262.644 13.63C262.887 14.0593 263.008 14.554 263.008 15.114V20H261.44V15.534C261.44 15.1513 261.37 14.8293 261.23 14.568C261.09 14.2973 260.889 14.092 260.628 13.952C260.376 13.8027 260.087 13.728 259.76 13.728C259.433 13.728 259.139 13.8027 258.878 13.952C258.626 14.092 258.43 14.2973 258.29 14.568C258.15 14.8387 258.08 15.1607 258.08 15.534V20H256.498ZM267.795 23.08C267.245 23.08 266.736 22.9913 266.269 22.814C265.803 22.6367 265.401 22.3893 265.065 22.072C264.729 21.764 264.477 21.4 264.309 20.98L265.765 20.378C265.896 20.7327 266.134 21.0267 266.479 21.26C266.834 21.4933 267.268 21.61 267.781 21.61C268.183 21.61 268.542 21.5307 268.859 21.372C269.177 21.2227 269.429 20.9987 269.615 20.7C269.802 20.4107 269.895 20.0607 269.895 19.65V17.942L270.175 18.264C269.914 18.7493 269.55 19.118 269.083 19.37C268.626 19.622 268.108 19.748 267.529 19.748C266.829 19.748 266.199 19.5847 265.639 19.258C265.079 18.9313 264.636 18.4833 264.309 17.914C263.992 17.3447 263.833 16.7053 263.833 15.996C263.833 15.2773 263.992 14.638 264.309 14.078C264.636 13.518 265.075 13.0747 265.625 12.748C266.176 12.4213 266.806 12.258 267.515 12.258C268.094 12.258 268.607 12.384 269.055 12.636C269.513 12.8787 269.886 13.2333 270.175 13.7L269.965 14.092V12.426H271.463V19.65C271.463 20.3033 271.305 20.8867 270.987 21.4C270.679 21.9227 270.25 22.3333 269.699 22.632C269.149 22.9307 268.514 23.08 267.795 23.08ZM267.711 18.278C268.131 18.278 268.505 18.18 268.831 17.984C269.158 17.7787 269.415 17.508 269.601 17.172C269.797 16.8267 269.895 16.4393 269.895 16.01C269.895 15.5807 269.797 15.1933 269.601 14.848C269.405 14.5027 269.144 14.232 268.817 14.036C268.491 13.8307 268.122 13.728 267.711 13.728C267.282 13.728 266.899 13.8307 266.563 14.036C266.227 14.232 265.961 14.5027 265.765 14.848C265.579 15.184 265.485 15.5713 265.485 16.01C265.485 16.43 265.579 16.8127 265.765 17.158C265.961 17.5033 266.227 17.7787 266.563 17.984C266.899 18.18 267.282 18.278 267.711 18.278ZM275.023 20.168C274.51 20.168 274.057 20.0793 273.665 19.902C273.282 19.7153 272.984 19.4633 272.769 19.146C272.554 18.8193 272.447 18.4367 272.447 17.998C272.447 17.5873 272.536 17.2187 272.713 16.892C272.9 16.5653 273.184 16.29 273.567 16.066C273.95 15.842 274.43 15.6833 275.009 15.59L277.641 15.156V16.402L275.317 16.808C274.897 16.8827 274.589 17.018 274.393 17.214C274.197 17.4007 274.099 17.6433 274.099 17.942C274.099 18.2313 274.206 18.4693 274.421 18.656C274.645 18.8333 274.93 18.922 275.275 18.922C275.704 18.922 276.078 18.8287 276.395 18.642C276.722 18.4553 276.974 18.208 277.151 17.9C277.328 17.5827 277.417 17.2327 277.417 16.85V14.904C277.417 14.5307 277.277 14.2273 276.997 13.994C276.726 13.7513 276.362 13.63 275.905 13.63C275.485 13.63 275.116 13.742 274.799 13.966C274.491 14.1807 274.262 14.4607 274.113 14.806L272.797 14.148C272.937 13.7747 273.166 13.448 273.483 13.168C273.8 12.8787 274.169 12.6547 274.589 12.496C275.018 12.3373 275.471 12.258 275.947 12.258C276.544 12.258 277.072 12.37 277.529 12.594C277.996 12.818 278.355 13.1307 278.607 13.532C278.868 13.924 278.999 14.3813 278.999 14.904V20H277.487V18.628L277.809 18.67C277.632 18.978 277.403 19.244 277.123 19.468C276.852 19.692 276.54 19.8647 276.185 19.986C275.84 20.1073 275.452 20.168 275.023 20.168ZM280.289 20V12.426H281.801V13.91L281.619 13.714C281.805 13.238 282.104 12.8787 282.515 12.636C282.925 12.384 283.401 12.258 283.943 12.258C284.503 12.258 284.997 12.3793 285.427 12.622C285.856 12.8647 286.192 13.2007 286.435 13.63C286.677 14.0593 286.799 14.554 286.799 15.114V20H285.231V15.534C285.231 15.1513 285.161 14.8293 285.021 14.568C284.881 14.2973 284.68 14.092 284.419 13.952C284.167 13.8027 283.877 13.728 283.551 13.728C283.224 13.728 282.93 13.8027 282.669 13.952C282.417 14.092 282.221 14.2973 282.081 14.568C281.941 14.8387 281.871 15.1607 281.871 15.534V20H280.289Z" fill="#94A3B8"/>
<rect x="310" y="10.5" width="70" height="7" rx="3.5" fill="#787880" fill-opacity="0.16"/>
<path d="M407.403 19.6591C406.498 19.6591 405.689 19.5152 404.977 19.2273C404.269 18.9356 403.712 18.5417 403.307 18.0455C402.905 17.5455 402.705 16.9811 402.705 16.3523C402.705 15.8712 402.82 15.4299 403.051 15.0284C403.282 14.6269 403.595 14.2936 403.989 14.0284C404.386 13.7595 404.83 13.5871 405.318 13.5114V13.4205C404.678 13.303 404.153 13.0057 403.744 12.5284C403.339 12.0511 403.136 11.4924 403.136 10.8523C403.136 10.2462 403.32 9.70644 403.688 9.23295C404.059 8.75947 404.564 8.38636 405.205 8.11364C405.848 7.84091 406.581 7.70455 407.403 7.70455C408.225 7.70455 408.956 7.84091 409.597 8.11364C410.241 8.38636 410.746 8.75947 411.114 9.23295C411.485 9.70644 411.67 10.2462 411.67 10.8523C411.67 11.4962 411.464 12.0568 411.051 12.5341C410.642 13.0076 410.121 13.303 409.489 13.4205V13.5114C409.973 13.5871 410.413 13.7595 410.807 14.0284C411.205 14.2936 411.519 14.6269 411.75 15.0284C411.985 15.4299 412.102 15.8712 412.102 16.3523C412.102 16.9811 411.9 17.5455 411.494 18.0455C411.089 18.5417 410.532 18.9356 409.824 19.2273C409.119 19.5152 408.313 19.6591 407.403 19.6591ZM407.403 17.6648C407.748 17.6648 408.051 17.6004 408.312 17.4716C408.574 17.339 408.778 17.1553 408.926 16.9205C409.078 16.6856 409.153 16.4205 409.153 16.125C409.153 15.822 409.078 15.553 408.926 15.3182C408.775 15.0833 408.566 14.8996 408.301 14.767C408.04 14.6307 407.741 14.5625 407.403 14.5625C407.07 14.5625 406.771 14.6307 406.506 14.767C406.241 14.8996 406.032 15.0833 405.881 15.3182C405.729 15.553 405.653 15.822 405.653 16.125C405.653 16.4205 405.727 16.6856 405.875 16.9205C406.027 17.1515 406.233 17.3333 406.494 17.4659C406.759 17.5985 407.063 17.6648 407.403 17.6648ZM407.403 12.5795C407.699 12.5795 407.96 12.5189 408.188 12.3977C408.419 12.2765 408.598 12.108 408.727 11.892C408.86 11.6761 408.926 11.4318 408.926 11.1591C408.926 10.8864 408.86 10.6458 408.727 10.4375C408.598 10.2292 408.42 10.0663 408.193 9.94886C407.966 9.82765 407.703 9.76705 407.403 9.76705C407.108 9.76705 406.845 9.82765 406.614 9.94886C406.383 10.0663 406.203 10.2292 406.074 10.4375C405.945 10.6458 405.881 10.8864 405.881 11.1591C405.881 11.4318 405.945 11.6761 406.074 11.892C406.206 12.1042 406.388 12.2727 406.619 12.3977C406.85 12.5189 407.112 12.5795 407.403 12.5795ZM414.288 19.6648C413.878 19.6648 413.528 19.5208 413.236 19.233C412.949 18.9451 412.806 18.5966 412.81 18.1875C412.806 17.786 412.949 17.4432 413.236 17.1591C413.528 16.8712 413.878 16.7273 414.288 16.7273C414.674 16.7273 415.015 16.8712 415.31 17.1591C415.61 17.4432 415.761 17.786 415.765 18.1875C415.761 18.4602 415.689 18.7083 415.549 18.9318C415.413 19.1553 415.233 19.3333 415.009 19.4659C414.789 19.5985 414.549 19.6648 414.288 19.6648ZM420.983 19.6591C420.077 19.6591 419.269 19.5152 418.557 19.2273C417.848 18.9356 417.291 18.5417 416.886 18.0455C416.485 17.5455 416.284 16.9811 416.284 16.3523C416.284 15.8712 416.399 15.4299 416.631 15.0284C416.862 14.6269 417.174 14.2936 417.568 14.0284C417.966 13.7595 418.409 13.5871 418.898 13.5114V13.4205C418.257 13.303 417.733 13.0057 417.324 12.5284C416.918 12.0511 416.716 11.4924 416.716 10.8523C416.716 10.2462 416.899 9.70644 417.267 9.23295C417.638 8.75947 418.144 8.38636 418.784 8.11364C419.428 7.84091 420.161 7.70455 420.983 7.70455C421.805 7.70455 422.536 7.84091 423.176 8.11364C423.82 8.38636 424.326 8.75947 424.693 9.23295C425.064 9.70644 425.25 10.2462 425.25 10.8523C425.25 11.4962 425.043 12.0568 424.631 12.5341C424.221 13.0076 423.701 13.303 423.068 13.4205V13.5114C423.553 13.5871 423.992 13.7595 424.386 14.0284C424.784 14.2936 425.098 14.6269 425.329 15.0284C425.564 15.4299 425.682 15.8712 425.682 16.3523C425.682 16.9811 425.479 17.5455 425.074 18.0455C424.668 18.5417 424.112 18.9356 423.403 19.2273C422.699 19.5152 421.892 19.6591 420.983 19.6591ZM420.983 17.6648C421.327 17.6648 421.631 17.6004 421.892 17.4716C422.153 17.339 422.358 17.1553 422.506 16.9205C422.657 16.6856 422.733 16.4205 422.733 16.125C422.733 15.822 422.657 15.553 422.506 15.3182C422.354 15.0833 422.146 14.8996 421.881 14.767C421.619 14.6307 421.32 14.5625 420.983 14.5625C420.649 14.5625 420.35 14.6307 420.085 14.767C419.82 14.8996 419.612 15.0833 419.46 15.3182C419.309 15.553 419.233 15.822 419.233 16.125C419.233 16.4205 419.307 16.6856 419.454 16.9205C419.606 17.1515 419.812 17.3333 420.074 17.4659C420.339 17.5985 420.642 17.6648 420.983 17.6648ZM420.983 12.5795C421.278 12.5795 421.54 12.5189 421.767 12.3977C421.998 12.2765 422.178 12.108 422.307 11.892C422.439 11.6761 422.506 11.4318 422.506 11.1591C422.506 10.8864 422.439 10.6458 422.307 10.4375C422.178 10.2292 422 10.0663 421.773 9.94886C421.545 9.82765 421.282 9.76705 420.983 9.76705C420.687 9.76705 420.424 9.82765 420.193 9.94886C419.962 10.0663 419.782 10.2292 419.653 10.4375C419.524 10.6458 419.46 10.8864 419.46 11.1591C419.46 11.4318 419.524 11.6761 419.653 11.892C419.786 12.1042 419.968 12.2727 420.199 12.3977C420.43 12.5189 420.691 12.5795 420.983 12.5795Z" fill="#6282ED"/>
<rect x="308" y="10.5" width="57" height="7" rx="3.5" fill="#6282ED"/>
<path d="M215.179 63V52.57H216.831V58.226L216.397 58.058L221.115 52.57H223.173L219.001 57.456L219.085 56.28L223.341 63H221.395L218.343 58.226L216.831 59.99V63H215.179ZM227.14 63.168C226.384 63.168 225.712 62.9953 225.124 62.65C224.546 62.2953 224.093 61.8193 223.766 61.222C223.44 60.6153 223.276 59.9387 223.276 59.192C223.276 58.4267 223.44 57.75 223.766 57.162C224.102 56.574 224.55 56.112 225.11 55.776C225.67 55.4307 226.305 55.258 227.014 55.258C227.584 55.258 228.092 55.356 228.54 55.552C228.988 55.748 229.366 56.0187 229.674 56.364C229.982 56.7 230.216 57.0873 230.374 57.526C230.542 57.9647 230.626 58.4313 230.626 58.926C230.626 59.0473 230.622 59.1733 230.612 59.304C230.603 59.4347 230.584 59.556 230.556 59.668H224.522V58.408H229.66L228.904 58.982C228.998 58.5247 228.965 58.1187 228.806 57.764C228.657 57.4 228.424 57.1153 228.106 56.91C227.798 56.6953 227.434 56.588 227.014 56.588C226.594 56.588 226.221 56.6953 225.894 56.91C225.568 57.1153 225.316 57.414 225.138 57.806C224.961 58.1887 224.891 58.6553 224.928 59.206C224.882 59.7193 224.952 60.1673 225.138 60.55C225.334 60.9327 225.605 61.2313 225.95 61.446C226.305 61.6607 226.706 61.768 227.154 61.768C227.612 61.768 227.999 61.6653 228.316 61.46C228.643 61.2547 228.9 60.9887 229.086 60.662L230.374 61.292C230.225 61.6467 229.992 61.9687 229.674 62.258C229.366 62.538 228.993 62.762 228.554 62.93C228.125 63.0887 227.654 63.168 227.14 63.168ZM235.656 63.168C235.068 63.168 234.531 63.0467 234.046 62.804C233.57 62.5613 233.201 62.2113 232.94 61.754L233.122 61.46V63H231.61V52.402H233.192V56.994L232.94 56.63C233.22 56.2007 233.593 55.8647 234.06 55.622C234.527 55.3793 235.059 55.258 235.656 55.258C236.375 55.258 237.019 55.4307 237.588 55.776C238.167 56.1213 238.619 56.5927 238.946 57.19C239.282 57.7873 239.45 58.4593 239.45 59.206C239.45 59.9527 239.282 60.6247 238.946 61.222C238.619 61.8193 238.171 62.2953 237.602 62.65C237.033 62.9953 236.384 63.168 235.656 63.168ZM235.502 61.698C235.95 61.698 236.347 61.5907 236.692 61.376C237.037 61.1613 237.308 60.8673 237.504 60.494C237.709 60.1113 237.812 59.682 237.812 59.206C237.812 58.73 237.709 58.3053 237.504 57.932C237.308 57.5587 237.037 57.2647 236.692 57.05C236.347 56.8353 235.95 56.728 235.502 56.728C235.063 56.728 234.667 56.8353 234.312 57.05C233.967 57.2647 233.691 57.5587 233.486 57.932C233.29 58.3053 233.192 58.73 233.192 59.206C233.192 59.682 233.29 60.1113 233.486 60.494C233.691 60.8673 233.967 61.1613 234.312 61.376C234.667 61.5907 235.063 61.698 235.502 61.698ZM243.985 63.168C243.229 63.168 242.557 62.9953 241.969 62.65C241.39 62.2953 240.938 61.8193 240.611 61.222C240.284 60.6153 240.121 59.9387 240.121 59.192C240.121 58.4267 240.284 57.75 240.611 57.162C240.947 56.574 241.395 56.112 241.955 55.776C242.515 55.4307 243.15 55.258 243.859 55.258C244.428 55.258 244.937 55.356 245.385 55.552C245.833 55.748 246.211 56.0187 246.519 56.364C246.827 56.7 247.06 57.0873 247.219 57.526C247.387 57.9647 247.471 58.4313 247.471 58.926C247.471 59.0473 247.466 59.1733 247.457 59.304C247.448 59.4347 247.429 59.556 247.401 59.668H241.367V58.408H246.505L245.749 58.982C245.842 58.5247 245.81 58.1187 245.651 57.764C245.502 57.4 245.268 57.1153 244.951 56.91C244.643 56.6953 244.279 56.588 243.859 56.588C243.439 56.588 243.066 56.6953 242.739 56.91C242.412 57.1153 242.16 57.414 241.983 57.806C241.806 58.1887 241.736 58.6553 241.773 59.206C241.726 59.7193 241.796 60.1673 241.983 60.55C242.179 60.9327 242.45 61.2313 242.795 61.446C243.15 61.6607 243.551 61.768 243.999 61.768C244.456 61.768 244.844 61.6653 245.161 61.46C245.488 61.2547 245.744 60.9887 245.931 60.662L247.219 61.292C247.07 61.6467 246.836 61.9687 246.519 62.258C246.211 62.538 245.838 62.762 245.399 62.93C244.97 63.0887 244.498 63.168 243.985 63.168ZM248.455 63V55.426H249.967V56.952L249.827 56.728C249.995 56.2333 250.266 55.8787 250.639 55.664C251.012 55.44 251.46 55.328 251.983 55.328H252.445V56.77H251.787C251.264 56.77 250.84 56.9333 250.513 57.26C250.196 57.5773 250.037 58.0347 250.037 58.632V63H248.455ZM255.767 63.168C254.993 63.168 254.311 62.9767 253.723 62.594C253.145 62.2113 252.739 61.698 252.505 61.054L253.723 60.48C253.929 60.9093 254.209 61.25 254.563 61.502C254.927 61.754 255.329 61.88 255.767 61.88C256.141 61.88 256.444 61.796 256.677 61.628C256.911 61.46 257.027 61.2313 257.027 60.942C257.027 60.7553 256.976 60.606 256.873 60.494C256.771 60.3727 256.64 60.2747 256.481 60.2C256.332 60.1253 256.178 60.0693 256.019 60.032L254.829 59.696C254.176 59.5093 253.686 59.2293 253.359 58.856C253.042 58.4733 252.883 58.03 252.883 57.526C252.883 57.0687 253 56.672 253.233 56.336C253.467 55.9907 253.789 55.7247 254.199 55.538C254.61 55.3513 255.072 55.258 255.585 55.258C256.276 55.258 256.892 55.4307 257.433 55.776C257.975 56.112 258.357 56.5833 258.581 57.19L257.363 57.764C257.214 57.4 256.976 57.1107 256.649 56.896C256.332 56.6813 255.973 56.574 255.571 56.574C255.226 56.574 254.951 56.658 254.745 56.826C254.54 56.9847 254.437 57.1947 254.437 57.456C254.437 57.6333 254.484 57.7827 254.577 57.904C254.671 58.016 254.792 58.1093 254.941 58.184C255.091 58.2493 255.245 58.3053 255.403 58.352L256.635 58.716C257.261 58.8933 257.741 59.1733 258.077 59.556C258.413 59.9293 258.581 60.3773 258.581 60.9C258.581 61.348 258.46 61.7447 258.217 62.09C257.984 62.426 257.657 62.692 257.237 62.888C256.817 63.0747 256.327 63.168 255.767 63.168ZM259.571 63V55.426H261.153V63H259.571ZM259.571 54.39V52.57H261.153V54.39H259.571ZM262.443 63V52.402H264.025V56.91L263.773 56.714C263.96 56.238 264.258 55.8787 264.669 55.636C265.08 55.384 265.556 55.258 266.097 55.258C266.657 55.258 267.152 55.3793 267.581 55.622C268.01 55.8647 268.346 56.2007 268.589 56.63C268.832 57.0593 268.953 57.5493 268.953 58.1V63H267.385V58.534C267.385 58.1513 267.31 57.8293 267.161 57.568C267.021 57.2973 266.825 57.092 266.573 56.952C266.321 56.8027 266.032 56.728 265.705 56.728C265.388 56.728 265.098 56.8027 264.837 56.952C264.585 57.092 264.384 57.2973 264.235 57.568C264.095 57.8387 264.025 58.1607 264.025 58.534V63H262.443ZM272.354 63.168C271.841 63.168 271.388 63.0793 270.996 62.902C270.613 62.7153 270.315 62.4633 270.1 62.146C269.885 61.8193 269.778 61.4367 269.778 60.998C269.778 60.5873 269.867 60.2187 270.044 59.892C270.231 59.5653 270.515 59.29 270.898 59.066C271.281 58.842 271.761 58.6833 272.34 58.59L274.972 58.156V59.402L272.648 59.808C272.228 59.8827 271.92 60.018 271.724 60.214C271.528 60.4007 271.43 60.6433 271.43 60.942C271.43 61.2313 271.537 61.4693 271.752 61.656C271.976 61.8333 272.261 61.922 272.606 61.922C273.035 61.922 273.409 61.8287 273.726 61.642C274.053 61.4553 274.305 61.208 274.482 60.9C274.659 60.5827 274.748 60.2327 274.748 59.85V57.904C274.748 57.5307 274.608 57.2273 274.328 56.994C274.057 56.7513 273.693 56.63 273.236 56.63C272.816 56.63 272.447 56.742 272.13 56.966C271.822 57.1807 271.593 57.4607 271.444 57.806L270.128 57.148C270.268 56.7747 270.497 56.448 270.814 56.168C271.131 55.8787 271.5 55.6547 271.92 55.496C272.349 55.3373 272.802 55.258 273.278 55.258C273.875 55.258 274.403 55.37 274.86 55.594C275.327 55.818 275.686 56.1307 275.938 56.532C276.199 56.924 276.33 57.3813 276.33 57.904V63H274.818V61.628L275.14 61.67C274.963 61.978 274.734 62.244 274.454 62.468C274.183 62.692 273.871 62.8647 273.516 62.986C273.171 63.1073 272.783 63.168 272.354 63.168ZM277.62 63V55.426H279.132V56.91L278.95 56.714C279.136 56.238 279.435 55.8787 279.846 55.636C280.256 55.384 280.732 55.258 281.274 55.258C281.834 55.258 282.328 55.3793 282.758 55.622C283.187 55.8647 283.523 56.2007 283.766 56.63C284.008 57.0593 284.13 57.554 284.13 58.114V63H282.562V58.534C282.562 58.1513 282.492 57.8293 282.352 57.568C282.212 57.2973 282.011 57.092 281.75 56.952C281.498 56.8027 281.208 56.728 280.882 56.728C280.555 56.728 280.261 56.8027 280 56.952C279.748 57.092 279.552 57.2973 279.412 57.568C279.272 57.8387 279.202 58.1607 279.202 58.534V63H277.62Z" fill="#94A3B8"/>
<rect x="308.5" y="53.5" width="70" height="7" rx="3.5" fill="#787880" fill-opacity="0.16"/>
<path d="M407.739 50.7045C408.375 50.7045 408.983 50.8087 409.562 51.017C410.142 51.2216 410.659 51.5492 411.114 52C411.568 52.447 411.926 53.036 412.188 53.767C412.449 54.4981 412.58 55.3902 412.58 56.4432C412.583 57.4129 412.47 58.2822 412.239 59.0511C412.008 59.8163 411.676 60.4678 411.244 61.0057C410.816 61.5436 410.301 61.9545 409.699 62.2386C409.097 62.5189 408.424 62.6591 407.682 62.6591C406.864 62.6591 406.142 62.5019 405.517 62.1875C404.896 61.8693 404.398 61.4413 404.023 60.9034C403.652 60.3655 403.43 59.7633 403.358 59.0966H406.125C406.212 59.483 406.396 59.7746 406.676 59.9716C406.956 60.1648 407.292 60.2614 407.682 60.2614C408.394 60.2614 408.926 59.9527 409.278 59.3352C409.631 58.7178 409.807 57.8788 409.807 56.8182H409.739C409.576 57.1667 409.345 57.4659 409.045 57.7159C408.75 57.9659 408.407 58.1572 408.017 58.2898C407.627 58.4223 407.216 58.4886 406.784 58.4886C406.087 58.4886 405.472 58.3295 404.938 58.0114C404.407 57.6932 403.991 57.2557 403.688 56.6989C403.388 56.142 403.237 55.5057 403.233 54.7898C403.229 53.9867 403.417 53.2784 403.795 52.6648C404.174 52.0473 404.703 51.5663 405.381 51.2216C406.059 50.8731 406.845 50.7008 407.739 50.7045ZM407.756 52.8636C407.407 52.8636 407.097 52.9451 406.824 53.108C406.555 53.2708 406.343 53.4905 406.188 53.767C406.032 54.0436 405.956 54.3542 405.96 54.6989C405.964 55.0436 406.042 55.3542 406.193 55.6307C406.348 55.9072 406.559 56.1269 406.824 56.2898C407.093 56.4527 407.4 56.5341 407.744 56.5341C408.002 56.5341 408.241 56.4867 408.46 56.392C408.68 56.2973 408.871 56.1667 409.034 56C409.197 55.8295 409.324 55.6326 409.415 55.4091C409.509 55.1856 409.555 54.947 409.551 54.6932C409.547 54.3561 409.468 54.0492 409.312 53.7727C409.157 53.4962 408.943 53.2765 408.67 53.1136C408.402 52.947 408.097 52.8636 407.756 52.8636ZM414.569 62.6648C414.16 62.6648 413.809 62.5208 413.518 62.233C413.23 61.9451 413.088 61.5966 413.092 61.1875C413.088 60.786 413.23 60.4432 413.518 60.1591C413.809 59.8712 414.16 59.7273 414.569 59.7273C414.955 59.7273 415.296 59.8712 415.592 60.1591C415.891 60.4432 416.042 60.786 416.046 61.1875C416.042 61.4602 415.97 61.7083 415.83 61.9318C415.694 62.1553 415.514 62.3333 415.29 62.4659C415.071 62.5985 414.83 62.6648 414.569 62.6648ZM421.383 62.6591C420.747 62.6591 420.137 62.5568 419.554 62.3523C418.97 62.1439 418.452 61.8144 417.997 61.3636C417.542 60.9091 417.184 60.3144 416.923 59.5795C416.662 58.8409 416.533 57.9413 416.537 56.8807C416.541 55.9223 416.658 55.0625 416.889 54.3011C417.12 53.536 417.45 52.8864 417.878 52.3523C418.309 51.8182 418.825 51.411 419.423 51.1307C420.025 50.8466 420.698 50.7045 421.44 50.7045C422.255 50.7045 422.972 50.8636 423.594 51.1818C424.219 51.4962 424.719 51.9205 425.094 52.4545C425.469 52.9848 425.69 53.5758 425.758 54.2273H422.991C422.908 53.8598 422.724 53.5814 422.44 53.392C422.16 53.1989 421.827 53.1023 421.44 53.1023C420.728 53.1023 420.196 53.411 419.844 54.0284C419.495 54.6458 419.317 55.4716 419.309 56.5057H419.383C419.542 56.1572 419.772 55.858 420.071 55.608C420.37 55.358 420.713 55.1667 421.099 55.0341C421.489 54.8977 421.902 54.8295 422.338 54.8295C423.035 54.8295 423.65 54.9905 424.184 55.3125C424.719 55.6345 425.137 56.0758 425.44 56.6364C425.743 57.1932 425.893 57.8314 425.889 58.5511C425.893 59.3617 425.703 60.0777 425.321 60.6989C424.938 61.3163 424.408 61.7973 423.73 62.142C423.056 62.4867 422.274 62.6591 421.383 62.6591ZM421.366 60.5C421.711 60.5 422.02 60.4186 422.292 60.2557C422.565 60.0928 422.779 59.8712 422.934 59.5909C423.09 59.3106 423.166 58.9943 423.162 58.642C423.166 58.286 423.09 57.9697 422.934 57.6932C422.783 57.4167 422.571 57.197 422.298 57.0341C422.029 56.8712 421.72 56.7898 421.372 56.7898C421.118 56.7898 420.881 56.8371 420.662 56.9318C420.442 57.0265 420.251 57.1591 420.088 57.3295C419.929 57.4962 419.804 57.6932 419.713 57.9205C419.622 58.1439 419.575 58.3864 419.571 58.6477C419.575 58.9924 419.654 59.3049 419.809 59.5852C419.965 59.8655 420.177 60.089 420.446 60.2557C420.715 60.4186 421.022 60.5 421.366 60.5Z" fill="#6282ED"/>
<rect x="308" y="53.5" width="65" height="7" rx="3.5" fill="#6282ED"/>
<rect x="309" y="92" width="70" height="7" rx="3.5" fill="#787880" fill-opacity="0.16"/>
<path d="M218.966 102.168C218.313 102.168 217.706 102.047 217.146 101.804C216.586 101.552 216.11 101.211 215.718 100.782C215.326 100.353 215.037 99.858 214.85 99.298L216.25 98.71C216.502 99.354 216.871 99.8487 217.356 100.194C217.841 100.539 218.401 100.712 219.036 100.712C219.409 100.712 219.736 100.656 220.016 100.544C220.296 100.423 220.511 100.255 220.66 100.04C220.819 99.8253 220.898 99.578 220.898 99.298C220.898 98.9153 220.791 98.612 220.576 98.388C220.361 98.164 220.044 97.9867 219.624 97.856L217.664 97.24C216.88 96.9973 216.283 96.6287 215.872 96.134C215.461 95.63 215.256 95.042 215.256 94.37C215.256 93.782 215.401 93.2687 215.69 92.83C215.979 92.382 216.376 92.032 216.88 91.78C217.393 91.528 217.977 91.402 218.63 91.402C219.255 91.402 219.825 91.514 220.338 91.738C220.851 91.9527 221.29 92.2513 221.654 92.634C222.027 93.0167 222.298 93.46 222.466 93.964L221.094 94.566C220.889 94.0153 220.567 93.5907 220.128 93.292C219.699 92.9933 219.199 92.844 218.63 92.844C218.285 92.844 217.981 92.9047 217.72 93.026C217.459 93.138 217.253 93.306 217.104 93.53C216.964 93.7447 216.894 93.9967 216.894 94.286C216.894 94.622 217.001 94.9207 217.216 95.182C217.431 95.4433 217.757 95.6393 218.196 95.77L220.016 96.344C220.847 96.596 221.472 96.96 221.892 97.436C222.312 97.9027 222.522 98.486 222.522 99.186C222.522 99.7647 222.368 100.278 222.06 100.726C221.761 101.174 221.346 101.529 220.814 101.79C220.282 102.042 219.666 102.168 218.966 102.168ZM227.316 102.168C226.588 102.168 225.921 101.995 225.314 101.65C224.717 101.305 224.241 100.833 223.886 100.236C223.532 99.6387 223.354 98.962 223.354 98.206C223.354 97.4407 223.532 96.764 223.886 96.176C224.241 95.5787 224.717 95.112 225.314 94.776C225.912 94.4307 226.579 94.258 227.316 94.258C228.063 94.258 228.73 94.4307 229.318 94.776C229.916 95.112 230.387 95.5787 230.732 96.176C231.087 96.764 231.264 97.4407 231.264 98.206C231.264 98.9713 231.087 99.6527 230.732 100.25C230.378 100.847 229.902 101.319 229.304 101.664C228.707 102 228.044 102.168 227.316 102.168ZM227.316 100.698C227.764 100.698 228.161 100.591 228.506 100.376C228.852 100.161 229.122 99.8673 229.318 99.494C229.524 99.1113 229.626 98.682 229.626 98.206C229.626 97.73 229.524 97.3053 229.318 96.932C229.122 96.5587 228.852 96.2647 228.506 96.05C228.161 95.8353 227.764 95.728 227.316 95.728C226.878 95.728 226.481 95.8353 226.126 96.05C225.781 96.2647 225.506 96.5587 225.3 96.932C225.104 97.3053 225.006 97.73 225.006 98.206C225.006 98.682 225.104 99.1113 225.3 99.494C225.506 99.8673 225.781 100.161 226.126 100.376C226.481 100.591 226.878 100.698 227.316 100.698ZM235.049 102.168C234.274 102.168 233.593 101.977 233.005 101.594C232.426 101.211 232.02 100.698 231.787 100.054L233.005 99.48C233.21 99.9093 233.49 100.25 233.845 100.502C234.209 100.754 234.61 100.88 235.049 100.88C235.422 100.88 235.726 100.796 235.959 100.628C236.192 100.46 236.309 100.231 236.309 99.942C236.309 99.7553 236.258 99.606 236.155 99.494C236.052 99.3727 235.922 99.2747 235.763 99.2C235.614 99.1253 235.46 99.0693 235.301 99.032L234.111 98.696C233.458 98.5093 232.968 98.2293 232.641 97.856C232.324 97.4733 232.165 97.03 232.165 96.526C232.165 96.0687 232.282 95.672 232.515 95.336C232.748 94.9907 233.07 94.7247 233.481 94.538C233.892 94.3513 234.354 94.258 234.867 94.258C235.558 94.258 236.174 94.4307 236.715 94.776C237.256 95.112 237.639 95.5833 237.863 96.19L236.645 96.764C236.496 96.4 236.258 96.1107 235.931 95.896C235.614 95.6813 235.254 95.574 234.853 95.574C234.508 95.574 234.232 95.658 234.027 95.826C233.822 95.9847 233.719 96.1947 233.719 96.456C233.719 96.6333 233.766 96.7827 233.859 96.904C233.952 97.016 234.074 97.1093 234.223 97.184C234.372 97.2493 234.526 97.3053 234.685 97.352L235.917 97.716C236.542 97.8933 237.023 98.1733 237.359 98.556C237.695 98.9293 237.863 99.3773 237.863 99.9C237.863 100.348 237.742 100.745 237.499 101.09C237.266 101.426 236.939 101.692 236.519 101.888C236.099 102.075 235.609 102.168 235.049 102.168ZM238.853 102V94.426H240.435V102H238.853ZM238.853 93.39V91.57H240.435V93.39H238.853ZM243.993 102.168C243.479 102.168 243.027 102.079 242.635 101.902C242.252 101.715 241.953 101.463 241.739 101.146C241.524 100.819 241.417 100.437 241.417 99.998C241.417 99.5873 241.505 99.2187 241.683 98.892C241.869 98.5653 242.154 98.29 242.537 98.066C242.919 97.842 243.4 97.6833 243.979 97.59L246.611 97.156V98.402L244.287 98.808C243.867 98.8827 243.559 99.018 243.363 99.214C243.167 99.4007 243.069 99.6433 243.069 99.942C243.069 100.231 243.176 100.469 243.391 100.656C243.615 100.833 243.899 100.922 244.245 100.922C244.674 100.922 245.047 100.829 245.365 100.642C245.691 100.455 245.943 100.208 246.121 99.9C246.298 99.5827 246.387 99.2327 246.387 98.85V96.904C246.387 96.5307 246.247 96.2273 245.967 95.994C245.696 95.7513 245.332 95.63 244.875 95.63C244.455 95.63 244.086 95.742 243.769 95.966C243.461 96.1807 243.232 96.4607 243.083 96.806L241.767 96.148C241.907 95.7747 242.135 95.448 242.453 95.168C242.77 94.8787 243.139 94.6547 243.559 94.496C243.988 94.3373 244.441 94.258 244.917 94.258C245.514 94.258 246.041 94.37 246.499 94.594C246.965 94.818 247.325 95.1307 247.577 95.532C247.838 95.924 247.969 96.3813 247.969 96.904V102H246.457V100.628L246.779 100.67C246.601 100.978 246.373 101.244 246.093 101.468C245.822 101.692 245.509 101.865 245.155 101.986C244.809 102.107 244.422 102.168 243.993 102.168ZM249.258 102V91.402H250.84V102H249.258Z" fill="#94A3B8"/>
<rect x="308" y="92" width="62" height="7" rx="3.5" fill="#6282ED"/>
<path d="M407.239 89.7045C407.875 89.7045 408.483 89.8087 409.062 90.017C409.642 90.2216 410.159 90.5492 410.614 91C411.068 91.447 411.426 92.036 411.688 92.767C411.949 93.4981 412.08 94.3902 412.08 95.4432C412.083 96.4129 411.97 97.2822 411.739 98.0511C411.508 98.8163 411.176 99.4678 410.744 100.006C410.316 100.544 409.801 100.955 409.199 101.239C408.597 101.519 407.924 101.659 407.182 101.659C406.364 101.659 405.642 101.502 405.017 101.188C404.396 100.869 403.898 100.441 403.523 99.9034C403.152 99.3655 402.93 98.7633 402.858 98.0966H405.625C405.712 98.483 405.896 98.7746 406.176 98.9716C406.456 99.1648 406.792 99.2614 407.182 99.2614C407.894 99.2614 408.426 98.9527 408.778 98.3352C409.131 97.7178 409.307 96.8788 409.307 95.8182H409.239C409.076 96.1667 408.845 96.4659 408.545 96.7159C408.25 96.9659 407.907 97.1572 407.517 97.2898C407.127 97.4223 406.716 97.4886 406.284 97.4886C405.587 97.4886 404.972 97.3295 404.438 97.0114C403.907 96.6932 403.491 96.2557 403.188 95.6989C402.888 95.142 402.737 94.5057 402.733 93.7898C402.729 92.9867 402.917 92.2784 403.295 91.6648C403.674 91.0473 404.203 90.5663 404.881 90.2216C405.559 89.8731 406.345 89.7008 407.239 89.7045ZM407.256 91.8636C406.907 91.8636 406.597 91.9451 406.324 92.108C406.055 92.2708 405.843 92.4905 405.688 92.767C405.532 93.0436 405.456 93.3542 405.46 93.6989C405.464 94.0436 405.542 94.3542 405.693 94.6307C405.848 94.9072 406.059 95.1269 406.324 95.2898C406.593 95.4527 406.9 95.5341 407.244 95.5341C407.502 95.5341 407.741 95.4867 407.96 95.392C408.18 95.2973 408.371 95.1667 408.534 95C408.697 94.8295 408.824 94.6326 408.915 94.4091C409.009 94.1856 409.055 93.947 409.051 93.6932C409.047 93.3561 408.968 93.0492 408.812 92.7727C408.657 92.4962 408.443 92.2765 408.17 92.1136C407.902 91.947 407.597 91.8636 407.256 91.8636ZM414.069 101.665C413.66 101.665 413.309 101.521 413.018 101.233C412.73 100.945 412.588 100.597 412.592 100.188C412.588 99.786 412.73 99.4432 413.018 99.1591C413.309 98.8712 413.66 98.7273 414.069 98.7273C414.455 98.7273 414.796 98.8712 415.092 99.1591C415.391 99.4432 415.542 99.786 415.546 100.188C415.542 100.46 415.47 100.708 415.33 100.932C415.194 101.155 415.014 101.333 414.79 101.466C414.571 101.598 414.33 101.665 414.069 101.665ZM421.031 101.784C420.016 101.784 419.141 101.544 418.406 101.062C417.671 100.578 417.105 99.8826 416.707 98.9773C416.309 98.0682 416.113 96.9754 416.116 95.6989C416.12 94.4223 416.319 93.339 416.713 92.4489C417.111 91.5549 417.675 90.875 418.406 90.4091C419.141 89.9394 420.016 89.7045 421.031 89.7045C422.046 89.7045 422.921 89.9394 423.656 90.4091C424.395 90.875 424.963 91.5549 425.361 92.4489C425.758 93.3428 425.955 94.4261 425.952 95.6989C425.952 96.9792 425.753 98.0739 425.355 98.983C424.957 99.892 424.391 100.587 423.656 101.068C422.925 101.545 422.05 101.784 421.031 101.784ZM421.031 99.483C421.637 99.483 422.128 99.1742 422.503 98.5568C422.878 97.9356 423.063 96.983 423.059 95.6989C423.059 94.858 422.974 94.1648 422.804 93.6193C422.633 93.0701 422.397 92.661 422.094 92.392C421.791 92.1231 421.436 91.9886 421.031 91.9886C420.429 91.9886 419.942 92.2936 419.571 92.9034C419.2 93.5095 419.012 94.4413 419.008 95.6989C419.005 96.5511 419.086 97.2576 419.253 97.8182C419.423 98.3788 419.662 98.7973 419.969 99.0739C420.275 99.3466 420.63 99.483 421.031 99.483Z" fill="#6282ED"/>
<rect x="0.25" y="134.25" width="51.5" height="19.5" rx="9.75" stroke="#3C3C43" stroke-opacity="0.3" stroke-width="0.5"/>
<path d="M8.752 147V141.04H12.392V141.52H9.272V143.768H12.112V144.248H9.272V147H8.752ZM14.3871 147.096C14.0991 147.096 13.8324 147.029 13.5871 146.896C13.3471 146.763 13.1551 146.576 13.0111 146.336C12.8671 146.091 12.7951 145.8 12.7951 145.464V142.752H13.2751V145.424C13.2751 145.675 13.3257 145.891 13.4271 146.072C13.5337 146.248 13.6751 146.384 13.8511 146.48C14.0324 146.576 14.2351 146.624 14.4591 146.624C14.7044 146.624 14.9151 146.568 15.0911 146.456C15.2724 146.344 15.4111 146.189 15.5071 145.992C15.6031 145.789 15.6511 145.56 15.6511 145.304V142.752H16.1311V147H15.6511V146.136L15.7711 146.176C15.6751 146.453 15.5044 146.677 15.2591 146.848C15.0137 147.013 14.7231 147.096 14.3871 147.096ZM16.7012 147V146.616L19.3412 142.976L19.4532 143.208H16.8452V142.752H19.8212V143.128L17.1812 146.776L17.0612 146.536H19.8372V147H16.7012ZM19.9202 147V146.616L22.5603 142.976L22.6723 143.208H20.0642V142.752H23.0403V143.128L20.4003 146.776L20.2803 146.536H23.0563V147H19.9202ZM23.5953 148.76C23.5206 148.76 23.438 148.752 23.3473 148.736C23.262 148.725 23.1793 148.707 23.0993 148.68V148.232C23.1633 148.248 23.2353 148.261 23.3153 148.272C23.4006 148.283 23.478 148.288 23.5473 148.288C23.8086 148.283 24.014 148.219 24.1633 148.096C24.3126 147.973 24.4486 147.771 24.5713 147.488L24.8753 146.776V147.224L23.0753 142.752H23.6033L25.1473 146.608H24.9553L26.5073 142.752H27.0433L25.0593 147.592C24.9846 147.768 24.886 147.947 24.7633 148.128C24.6406 148.309 24.4833 148.459 24.2913 148.576C24.1046 148.699 23.8726 148.76 23.5953 148.76ZM27.9972 147L30.1892 141.04H30.7253L32.9173 147H32.3573L31.8133 145.48H29.1012L28.5492 147H27.9972ZM29.2693 145H31.6373L30.3572 141.44H30.5493L29.2693 145ZM33.4808 147V141.04H34.0008V143.752H37.3608V141.04H37.8808V147H37.3608V144.232H34.0008V147H33.4808ZM39.0592 147V141.04H41.0592C41.4379 141.04 41.7712 141.115 42.0592 141.264C42.3472 141.413 42.5712 141.624 42.7312 141.896C42.8965 142.168 42.9792 142.483 42.9792 142.84C42.9792 143.197 42.8965 143.512 42.7312 143.784C42.5712 144.051 42.3472 144.261 42.0592 144.416C41.7765 144.565 41.4432 144.64 41.0592 144.64H39.5792V147H39.0592ZM39.5792 144.16H41.0752C41.3472 144.16 41.5872 144.107 41.7952 144C42.0032 143.888 42.1659 143.733 42.2832 143.536C42.4005 143.333 42.4592 143.099 42.4592 142.832C42.4592 142.565 42.4005 142.336 42.2832 142.144C42.1659 141.947 42.0032 141.795 41.7952 141.688C41.5872 141.576 41.3472 141.52 41.0752 141.52H39.5792V144.16Z" fill="#6282ED"/>
<rect x="59.25" y="134.25" width="58.5" height="19.5" rx="9.75" stroke="#3C3C43" stroke-opacity="0.3" stroke-width="0.5"/>
<path d="M67.252 147V141.04H67.692L69.916 144.352H69.7L71.932 141.04H72.372V147H71.852V141.8L71.98 141.872L69.82 145.096H69.796L67.636 141.872L67.772 141.8V147H67.252ZM74.9652 147.096C74.6772 147.096 74.4105 147.029 74.1652 146.896C73.9252 146.763 73.7332 146.576 73.5892 146.336C73.4452 146.091 73.3732 145.8 73.3732 145.464V142.752H73.8532V145.424C73.8532 145.675 73.9039 145.891 74.0052 146.072C74.1119 146.248 74.2532 146.384 74.4292 146.48C74.6105 146.576 74.8132 146.624 75.0372 146.624C75.2825 146.624 75.4932 146.568 75.6692 146.456C75.8505 146.344 75.9892 146.189 76.0852 145.992C76.1812 145.789 76.2292 145.56 76.2292 145.304V142.752H76.7092V147H76.2292V146.136L76.3492 146.176C76.2532 146.453 76.0825 146.677 75.8372 146.848C75.5919 147.013 75.3012 147.096 74.9652 147.096ZM77.7193 147V140.944H78.1993V147H77.7193ZM80.7402 147.048C80.3882 147.048 80.1162 146.949 79.9242 146.752C79.7322 146.549 79.6362 146.256 79.6362 145.872V143.208H78.8362V142.752H79.1402C79.3002 142.752 79.4229 142.704 79.5082 142.608C79.5935 142.512 79.6362 142.381 79.6362 142.216V141.76H80.1162V142.752H81.0442V143.208H80.1162V145.872C80.1162 145.989 80.1322 146.104 80.1642 146.216C80.2015 146.328 80.2709 146.419 80.3722 146.488C80.4735 146.557 80.6202 146.592 80.8122 146.592C80.8549 146.592 80.9055 146.589 80.9642 146.584C81.0282 146.579 81.0789 146.573 81.1162 146.568V147C81.0575 147.016 80.9909 147.027 80.9162 147.032C80.8415 147.043 80.7829 147.048 80.7402 147.048ZM81.9465 147V142.752H82.4265V147H81.9465ZM81.9465 141.92V141.04H82.4265V141.92H81.9465ZM83.3514 145.104V144.64H86.0314V145.104H83.3514ZM86.9706 147V140.944H87.4506V145.272L87.2026 145.248L89.7146 142.752H90.3706L88.6586 144.464L90.5306 147H89.9306L88.1546 144.616L88.4746 144.624L87.3226 145.808L87.4506 145.48V147H86.9706ZM91.0021 147V142.752H91.4821V143.544L91.3941 143.472C91.4848 143.232 91.6395 143.043 91.8581 142.904C92.0821 142.765 92.3461 142.696 92.6501 142.696H92.9221V143.176H92.5941C92.2475 143.176 91.9755 143.288 91.7781 143.512C91.5808 143.731 91.4821 144.027 91.4821 144.4V147H91.0021ZM93.3931 147V142.752H93.8731V147H93.3931ZM93.3931 141.92V141.04H93.8731V141.92H93.3931ZM96.4139 147.048C96.0619 147.048 95.7899 146.949 95.5979 146.752C95.4059 146.549 95.3099 146.256 95.3099 145.872V143.208H94.5099V142.752H94.8139C94.9739 142.752 95.0966 142.704 95.1819 142.608C95.2673 142.512 95.3099 142.381 95.3099 142.216V141.76H95.7899V142.752H96.7179V143.208H95.7899V145.872C95.7899 145.989 95.8059 146.104 95.8379 146.216C95.8753 146.328 95.9446 146.419 96.0459 146.488C96.1473 146.557 96.2939 146.592 96.4859 146.592C96.5286 146.592 96.5793 146.589 96.6379 146.584C96.7019 146.579 96.7526 146.573 96.7899 146.568V147C96.7313 147.016 96.6646 147.027 96.5899 147.032C96.5153 147.043 96.4566 147.048 96.4139 147.048ZM99.408 147.096C99.008 147.096 98.648 147 98.328 146.808C98.008 146.611 97.7547 146.344 97.568 146.008C97.3813 145.667 97.288 145.285 97.288 144.864C97.288 144.443 97.3787 144.067 97.56 143.736C97.7413 143.4 97.9867 143.136 98.296 142.944C98.6053 142.752 98.952 142.656 99.336 142.656C99.6293 142.656 99.8933 142.709 100.128 142.816C100.368 142.923 100.573 143.072 100.744 143.264C100.92 143.451 101.053 143.667 101.144 143.912C101.24 144.152 101.288 144.405 101.288 144.672C101.288 144.725 101.285 144.781 101.28 144.84C101.275 144.899 101.267 144.96 101.256 145.024H97.568V144.584H100.984L100.768 144.752C100.8 144.443 100.755 144.165 100.632 143.92C100.509 143.669 100.333 143.472 100.104 143.328C99.88 143.179 99.624 143.104 99.336 143.104C99.048 143.104 98.784 143.181 98.544 143.336C98.304 143.485 98.1147 143.693 97.976 143.96C97.8373 144.221 97.7733 144.525 97.784 144.872C97.7733 145.219 97.84 145.525 97.984 145.792C98.128 146.059 98.3253 146.269 98.576 146.424C98.8267 146.573 99.104 146.648 99.408 146.648C99.7173 146.648 99.9867 146.576 100.216 146.432C100.445 146.283 100.632 146.085 100.776 145.84L101.184 146.056C101.088 146.253 100.952 146.432 100.776 146.592C100.6 146.747 100.395 146.869 100.16 146.96C99.9307 147.051 99.68 147.096 99.408 147.096ZM102.113 147V142.752H102.593V143.544L102.505 143.472C102.595 143.232 102.75 143.043 102.969 142.904C103.193 142.765 103.457 142.696 103.761 142.696H104.033V143.176H103.705C103.358 143.176 103.086 143.288 102.889 143.512C102.691 143.731 102.593 144.027 102.593 144.4V147H102.113ZM104.504 147V142.752H104.984V147H104.504ZM104.504 141.92V141.04H104.984V141.92H104.504ZM107.197 147.096C106.93 147.096 106.693 147.045 106.485 146.944C106.277 146.843 106.111 146.701 105.989 146.52C105.866 146.339 105.805 146.131 105.805 145.896C105.805 145.688 105.85 145.493 105.941 145.312C106.031 145.131 106.178 144.976 106.381 144.848C106.583 144.715 106.847 144.621 107.173 144.568L108.893 144.28V144.728L107.301 144.992C106.938 145.051 106.682 145.16 106.533 145.32C106.383 145.48 106.309 145.667 106.309 145.88C106.309 146.109 106.394 146.296 106.565 146.44C106.741 146.584 106.962 146.656 107.229 146.656C107.538 146.656 107.807 146.587 108.037 146.448C108.266 146.304 108.445 146.117 108.573 145.888C108.701 145.653 108.765 145.397 108.765 145.12V144.064C108.765 143.781 108.663 143.552 108.461 143.376C108.258 143.2 107.994 143.112 107.669 143.112C107.402 143.112 107.162 143.179 106.949 143.312C106.735 143.445 106.573 143.619 106.461 143.832L106.029 143.6C106.109 143.429 106.231 143.272 106.397 143.128C106.562 142.984 106.754 142.869 106.973 142.784C107.191 142.699 107.423 142.656 107.669 142.656C107.978 142.656 108.25 142.717 108.485 142.84C108.725 142.957 108.911 143.123 109.045 143.336C109.178 143.544 109.245 143.787 109.245 144.064V147H108.765V146.112L108.821 146.152C108.751 146.323 108.637 146.48 108.477 146.624C108.317 146.763 108.127 146.877 107.909 146.968C107.695 147.053 107.458 147.096 107.197 147.096Z" fill="#6282ED"/>
<path d="M365.667 150.665H359.001C355.858 150.665 354.287 150.665 353.31 149.689C352.334 148.713 352.334 147.141 352.334 143.999V141.999M352.334 137.332V139.332" stroke="#94A3B8" stroke-width="1.5" stroke-linecap="round"/>
<path d="M363.667 140.664L361.588 143.281C361.27 143.683 361.111 143.883 360.928 143.981C360.789 144.056 360.635 144.096 360.478 144.099C360.321 144.103 360.165 144.069 360.023 144.001C359.837 143.911 359.669 143.717 359.333 143.331C358.997 142.944 358.83 142.751 358.643 142.661C358.502 142.593 358.346 142.559 358.189 142.563C358.032 142.566 357.878 142.607 357.739 142.681C357.557 142.778 357.397 142.979 357.079 143.379L355 145.997" stroke="#94A3B8" stroke-width="1.5" stroke-linecap="round"/>
<path d="M378.274 140.628C378.672 140.628 379.052 140.693 379.414 140.823C379.776 140.951 380.099 141.156 380.384 141.438C380.668 141.717 380.891 142.085 381.055 142.542C381.218 142.999 381.3 143.556 381.3 144.214C381.302 144.821 381.231 145.364 381.087 145.844C380.942 146.323 380.735 146.73 380.465 147.066C380.198 147.402 379.876 147.659 379.499 147.837C379.123 148.012 378.703 148.099 378.239 148.099C377.727 148.099 377.276 148.001 376.886 147.805C376.497 147.606 376.186 147.338 375.952 147.002C375.72 146.666 375.581 146.29 375.536 145.873H377.266C377.32 146.114 377.435 146.297 377.61 146.42C377.785 146.54 377.995 146.601 378.239 146.601C378.684 146.601 379.016 146.408 379.237 146.022C379.457 145.636 379.567 145.112 379.567 144.449H379.524C379.422 144.667 379.278 144.854 379.091 145.01C378.906 145.166 378.692 145.286 378.448 145.369C378.204 145.451 377.947 145.493 377.678 145.493C377.242 145.493 376.857 145.393 376.523 145.195C376.192 144.996 375.932 144.722 375.742 144.374C375.555 144.026 375.46 143.629 375.458 143.181C375.456 142.679 375.573 142.237 375.81 141.853C376.046 141.467 376.377 141.166 376.8 140.951C377.224 140.733 377.715 140.625 378.274 140.628ZM378.285 141.977C378.067 141.977 377.873 142.028 377.702 142.13C377.534 142.232 377.402 142.369 377.305 142.542C377.208 142.715 377.16 142.909 377.163 143.124C377.165 143.34 377.214 143.534 377.308 143.707C377.405 143.879 377.537 144.017 377.702 144.119C377.871 144.22 378.062 144.271 378.278 144.271C378.439 144.271 378.588 144.242 378.725 144.183C378.862 144.123 378.982 144.042 379.084 143.938C379.186 143.831 379.265 143.708 379.322 143.568C379.381 143.429 379.409 143.279 379.407 143.121C379.405 142.91 379.355 142.718 379.258 142.545C379.161 142.373 379.027 142.235 378.857 142.134C378.688 142.029 378.498 141.977 378.285 141.977ZM381.776 146.793V145.422L384.755 140.727H385.973V142.588H385.267L383.523 145.351V145.408H387.838V146.793H381.776ZM385.288 148V146.374L385.324 145.773V140.727H386.968V148H385.288ZM392.432 146.636V146.253C392.432 145.955 392.496 145.679 392.624 145.425C392.754 145.172 392.943 144.969 393.189 144.815C393.435 144.661 393.736 144.584 394.091 144.584C394.453 144.584 394.757 144.661 395.003 144.815C395.252 144.966 395.439 145.169 395.565 145.422C395.692 145.673 395.756 145.95 395.756 146.253V146.636C395.756 146.935 395.692 147.21 395.565 147.464C395.437 147.717 395.248 147.921 395 148.075C394.751 148.228 394.448 148.305 394.091 148.305C393.731 148.305 393.428 148.228 393.182 148.075C392.935 147.921 392.748 147.717 392.621 147.464C392.495 147.21 392.432 146.935 392.432 146.636ZM393.565 146.253V146.636C393.565 146.788 393.602 146.933 393.675 147.073C393.751 147.213 393.89 147.283 394.091 147.283C394.297 147.283 394.435 147.215 394.506 147.08C394.577 146.943 394.613 146.795 394.613 146.636V146.253C394.613 146.094 394.578 145.945 394.51 145.805C394.444 145.663 394.304 145.592 394.091 145.592C393.892 145.592 393.755 145.663 393.679 145.805C393.603 145.945 393.565 146.094 393.565 146.253ZM388.661 142.474V142.091C388.661 141.788 388.726 141.511 388.856 141.26C388.989 141.007 389.178 140.804 389.425 140.653C389.671 140.499 389.969 140.422 390.319 140.422C390.682 140.422 390.986 140.499 391.232 140.653C391.481 140.804 391.669 141.007 391.797 141.26C391.925 141.511 391.989 141.788 391.989 142.091V142.474C391.989 142.777 391.923 143.054 391.793 143.305C391.665 143.556 391.477 143.756 391.229 143.906C390.98 144.055 390.677 144.129 390.319 144.129C389.962 144.129 389.659 144.054 389.41 143.902C389.164 143.75 388.977 143.549 388.849 143.298C388.724 143.047 388.661 142.773 388.661 142.474ZM389.805 142.091V142.474C389.805 142.633 389.841 142.781 389.915 142.918C389.99 143.053 390.125 143.121 390.319 143.121C390.528 143.121 390.666 143.053 390.735 142.918C390.806 142.781 390.842 142.633 390.842 142.474V142.091C390.842 141.932 390.808 141.783 390.742 141.643C390.676 141.501 390.535 141.43 390.319 141.43C390.121 141.43 389.985 141.503 389.911 141.647C389.84 141.791 389.805 141.939 389.805 142.091ZM389.197 148L394.197 140.727H395.167L390.167 148H389.197ZM398.472 148V140.727H401.476C402.021 140.727 402.491 140.834 402.886 141.047C403.284 141.258 403.59 141.552 403.806 141.931C404.021 142.308 404.129 142.746 404.129 143.245C404.129 143.747 404.019 144.186 403.799 144.562C403.581 144.937 403.269 145.227 402.865 145.433C402.46 145.638 401.979 145.741 401.423 145.741H399.569V144.357H401.096C401.361 144.357 401.583 144.31 401.76 144.218C401.94 144.126 402.076 143.997 402.169 143.831C402.261 143.663 402.307 143.468 402.307 143.245C402.307 143.02 402.261 142.826 402.169 142.663C402.076 142.497 401.94 142.369 401.76 142.279C401.58 142.189 401.359 142.144 401.096 142.144H400.23V148H398.472ZM407.034 148.103C406.461 148.103 405.969 147.986 405.557 147.751C405.147 147.515 404.831 147.186 404.609 146.764C404.388 146.34 404.278 145.849 404.278 145.29C404.278 144.729 404.388 144.238 404.609 143.817C404.831 143.393 405.147 143.064 405.557 142.83C405.969 142.593 406.461 142.474 407.034 142.474C407.607 142.474 408.098 142.593 408.508 142.83C408.92 143.064 409.236 143.393 409.456 143.817C409.679 144.238 409.79 144.729 409.79 145.29C409.79 145.849 409.679 146.34 409.456 146.764C409.236 147.186 408.92 147.515 408.508 147.751C408.098 147.986 407.607 148.103 407.034 148.103ZM407.045 146.793C407.253 146.793 407.429 146.729 407.574 146.601C407.718 146.473 407.828 146.295 407.904 146.068C407.982 145.841 408.021 145.578 408.021 145.28C408.021 144.977 407.982 144.712 407.904 144.484C407.828 144.257 407.718 144.08 407.574 143.952C407.429 143.824 407.253 143.76 407.045 143.76C406.829 143.76 406.647 143.824 406.498 143.952C406.351 144.08 406.239 144.257 406.161 144.484C406.085 144.712 406.047 144.977 406.047 145.28C406.047 145.578 406.085 145.841 406.161 146.068C406.239 146.295 406.351 146.473 406.498 146.601C406.647 146.729 406.829 146.793 407.045 146.793ZM415.041 144.211L413.447 144.254C413.43 144.14 413.385 144.039 413.312 143.952C413.239 143.862 413.143 143.792 413.024 143.742C412.908 143.69 412.773 143.664 412.62 143.664C412.418 143.664 412.247 143.704 412.105 143.785C411.965 143.865 411.896 143.974 411.899 144.112C411.896 144.218 411.939 144.31 412.026 144.388C412.116 144.467 412.276 144.529 412.506 144.577L413.557 144.776C414.102 144.88 414.506 145.053 414.772 145.294C415.039 145.536 415.174 145.855 415.176 146.253C415.174 146.627 415.063 146.952 414.843 147.229C414.625 147.506 414.326 147.722 413.948 147.876C413.569 148.027 413.136 148.103 412.648 148.103C411.869 148.103 411.255 147.943 410.805 147.624C410.357 147.302 410.102 146.871 410.038 146.331L411.753 146.288C411.791 146.487 411.889 146.639 412.048 146.743C412.206 146.847 412.409 146.899 412.655 146.899C412.878 146.899 413.059 146.858 413.198 146.775C413.338 146.692 413.409 146.582 413.411 146.445C413.409 146.321 413.355 146.223 413.248 146.15C413.142 146.074 412.975 146.015 412.747 145.972L411.796 145.791C411.249 145.692 410.842 145.508 410.574 145.241C410.307 144.971 410.174 144.628 410.176 144.211C410.174 143.846 410.271 143.535 410.468 143.277C410.664 143.017 410.943 142.818 411.306 142.68C411.668 142.543 412.095 142.474 412.588 142.474C413.326 142.474 413.909 142.629 414.335 142.94C414.761 143.247 414.996 143.671 415.041 144.211ZM415.631 148V142.545H417.368V148H415.631ZM416.501 141.91C416.257 141.91 416.048 141.829 415.873 141.668C415.698 141.505 415.61 141.308 415.61 141.079C415.61 140.852 415.698 140.657 415.873 140.496C416.048 140.333 416.257 140.251 416.501 140.251C416.748 140.251 416.957 140.333 417.13 140.496C417.305 140.657 417.393 140.852 417.393 141.079C417.393 141.308 417.305 141.505 417.13 141.668C416.957 141.829 416.748 141.91 416.501 141.91ZM421.152 142.545V143.824H417.711V142.545H421.152ZM418.432 141.239H420.168V146.285C420.168 146.391 420.185 146.478 420.218 146.544C420.253 146.608 420.304 146.654 420.371 146.683C420.437 146.709 420.516 146.722 420.609 146.722C420.675 146.722 420.745 146.716 420.818 146.704C420.894 146.69 420.951 146.678 420.989 146.668L421.251 147.922C421.168 147.946 421.051 147.975 420.9 148.011C420.751 148.046 420.572 148.069 420.364 148.078C419.956 148.097 419.607 148.05 419.316 147.936C419.027 147.82 418.806 147.64 418.652 147.396C418.5 147.152 418.427 146.846 418.432 146.477V141.239ZM421.638 148V142.545H423.374V148H421.638ZM422.508 141.91C422.264 141.91 422.055 141.829 421.879 141.668C421.704 141.505 421.617 141.308 421.617 141.079C421.617 140.852 421.704 140.657 421.879 140.496C422.055 140.333 422.264 140.251 422.508 140.251C422.754 140.251 422.964 140.333 423.137 140.496C423.312 140.657 423.399 140.852 423.399 141.079C423.399 141.308 423.312 141.505 423.137 141.668C422.964 141.829 422.754 141.91 422.508 141.91ZM427.18 142.545V143.824H423.671V142.545H427.18ZM424.403 148V142.268C424.403 141.847 424.482 141.498 424.641 141.221C424.799 140.942 425.02 140.733 425.301 140.596C425.583 140.456 425.909 140.386 426.278 140.386C426.519 140.386 426.747 140.405 426.96 140.443C427.175 140.479 427.335 140.511 427.439 140.539L427.162 141.81C427.098 141.789 427.02 141.771 426.928 141.757C426.838 141.743 426.753 141.736 426.672 141.736C426.468 141.736 426.329 141.781 426.253 141.871C426.177 141.961 426.139 142.084 426.139 142.24V148H424.403Z" fill="#94A3B8"/>
</svg>
