<svg width="33" height="33" viewBox="0 0 33 33" fill="none" xmlns="http://www.w3.org/2000/svg">
<path d="M29.2707 7.92C29.2224 7.86196 29.1619 7.81525 29.0935 7.78318C29.0251 7.7511 28.9505 7.73444 28.875 7.73438H7.6493L6.7882 3.00094C6.7665 2.88236 6.70394 2.77513 6.61139 2.69788C6.51884 2.62064 6.40215 2.57827 6.2816 2.57812H3.09375C2.957 2.57812 2.82585 2.63245 2.72915 2.72915C2.63245 2.82585 2.57812 2.957 2.57812 3.09375C2.57812 3.2305 2.63245 3.36165 2.72915 3.45835C2.82585 3.55505 2.957 3.60938 3.09375 3.60938H5.85105L6.71344 8.35313L9.21551 22.1177C9.33085 22.7468 9.67589 23.3105 10.1836 23.6994C9.65172 24.0422 9.23775 24.5399 8.99751 25.1253C8.75728 25.7107 8.70233 26.3557 8.84008 26.9733C8.97782 27.5909 9.30164 28.1514 9.76786 28.5793C10.2341 29.0071 10.8203 29.2817 11.4474 29.366C12.0746 29.4503 12.7125 29.3403 13.2751 29.0508C13.8378 28.7612 14.2982 28.3061 14.5941 27.7468C14.8901 27.1875 15.0074 26.5509 14.9303 25.9229C14.8532 25.2948 14.5854 24.7055 14.1629 24.2344H21.9308C21.4585 24.7624 21.1817 25.4366 21.1468 26.1442C21.1118 26.8518 21.3208 27.55 21.7387 28.122C22.1567 28.6941 22.7583 29.1053 23.4431 29.2871C24.1279 29.4688 24.8542 29.4101 25.5009 29.1206C26.1475 28.8311 26.6752 28.3285 26.9957 27.6967C27.3163 27.0648 27.4103 26.3422 27.262 25.6494C27.1137 24.9566 26.7322 24.3357 26.1811 23.8905C25.63 23.4452 24.9428 23.2026 24.2344 23.2031H11.7524C11.3903 23.2029 11.0398 23.0758 10.7619 22.8438C10.4839 22.6118 10.2962 22.2896 10.2313 21.9334L9.71566 19.0781H25.2785C25.8823 19.0782 26.467 18.8664 26.9306 18.4796C27.3942 18.0928 27.7073 17.5555 27.8154 16.9615L29.3829 8.34281C29.3963 8.26842 29.3933 8.19199 29.3739 8.11892C29.3545 8.04586 29.3193 7.97795 29.2707 7.92ZM13.9219 26.2969C13.9219 26.7048 13.8009 27.1036 13.5743 27.4427C13.3477 27.7819 13.0255 28.0463 12.6487 28.2024C12.2718 28.3585 11.8571 28.3993 11.457 28.3197C11.0569 28.2402 10.6894 28.0437 10.401 27.7553C10.1125 27.4668 9.91609 27.0993 9.8365 26.6992C9.75692 26.2992 9.79777 25.8845 9.95387 25.5076C10.11 25.1307 10.3743 24.8086 10.7135 24.582C11.0527 24.3553 11.4515 24.2344 11.8594 24.2344C12.4064 24.2344 12.931 24.4517 13.3178 24.8385C13.7046 25.2253 13.9219 25.7499 13.9219 26.2969ZM26.2969 26.2969C26.2969 26.7048 26.1759 27.1036 25.9493 27.4427C25.7227 27.7819 25.4005 28.0463 25.0237 28.2024C24.6468 28.3585 24.2321 28.3993 23.832 28.3197C23.4319 28.2402 23.0644 28.0437 22.776 27.7553C22.4875 27.4668 22.2911 27.0993 22.2115 26.6992C22.1319 26.2992 22.1728 25.8845 22.3289 25.5076C22.485 25.1307 22.7493 24.8086 23.0885 24.582C23.4277 24.3553 23.8265 24.2344 24.2344 24.2344C24.7814 24.2344 25.306 24.4517 25.6928 24.8385C26.0796 25.2253 26.2969 25.7499 26.2969 26.2969ZM26.8009 16.7771C26.736 17.1336 26.548 17.4559 26.2698 17.6879C25.9916 17.92 25.6408 18.047 25.2785 18.0469H9.52359L7.83621 8.76562H28.2575L26.8009 16.7771Z" fill="#F5F5F5"/>
</svg>
