<svg width="60" height="60" viewBox="0 0 60 60" fill="none" xmlns="http://www.w3.org/2000/svg">
<path d="M36.25 52.5V40C36.25 39.337 35.9866 38.7011 35.5178 38.2322C35.0489 37.7634 34.413 37.5 33.75 37.5H26.25C25.587 37.5 24.9511 37.7634 24.4822 38.2322C24.0134 38.7011 23.75 39.337 23.75 40V52.5" stroke="#1A1F40" stroke-width="1.6" stroke-linecap="round" stroke-linejoin="round"/>
<path d="M12.4989 27.5V42.5C12.4989 47.215 12.4989 49.57 13.9639 51.035C15.4289 52.5 17.7839 52.5 22.4989 52.5H37.4989C42.2139 52.5 44.5689 52.5 46.0339 51.035C47.4989 49.57 47.4989 47.215 47.4989 42.5V27.5M11.5514 11.2875C12.0064 9.4675 12.2339 8.56 12.9114 8.03C13.5914 7.5 14.5289 7.5 16.4039 7.5H43.5939C45.4689 7.5 46.4064 7.5 47.0864 8.03C47.7614 8.56 47.9914 9.4675 48.4464 11.2875L51.4539 23.3225C51.6964 24.2925 51.8189 24.775 51.7914 25.17C51.7572 25.6681 51.5746 26.1446 51.2671 26.5381C50.9597 26.9315 50.5415 27.2239 50.0664 27.3775C49.6914 27.5 49.1814 27.5 48.1589 27.5C46.8264 27.5 46.1589 27.5 45.6014 27.37C44.8284 27.19 44.1095 26.8285 43.5039 26.3155C42.8983 25.8026 42.4236 25.1528 42.1189 24.42C41.8964 23.89 41.7889 23.245 41.5764 21.9625C41.5164 21.6025 41.4864 21.4225 41.4514 21.375C41.4282 21.343 41.3978 21.3169 41.3626 21.299C41.3274 21.281 41.2884 21.2716 41.2489 21.2716C41.2093 21.2716 41.1704 21.281 41.1352 21.299C41.1 21.3169 41.0695 21.343 41.0464 21.375C41.0114 21.4225 40.9814 21.6 40.9214 21.9625L40.7189 23.185L40.6739 23.435C40.4603 24.5589 39.8677 25.5755 38.9951 26.3153C38.1225 27.0551 37.0226 27.4732 35.8789 27.5H35.3689C34.181 27.4731 33.0415 27.0241 32.1546 26.2334C31.2677 25.4427 30.6913 24.362 30.5289 23.185L30.3264 21.96C30.2664 21.6025 30.2364 21.4225 30.2014 21.375C30.1782 21.343 30.1478 21.3169 30.1126 21.299C30.0774 21.281 30.0384 21.2716 29.9989 21.2716C29.9593 21.2716 29.9204 21.281 29.8852 21.299C29.85 21.3169 29.8195 21.343 29.7964 21.375C29.7614 21.4225 29.7314 21.6 29.6714 21.9625L29.4689 23.185L29.4239 23.435C29.2103 24.5589 28.6177 25.5755 27.7451 26.3153C26.8725 27.0551 25.7726 27.4732 24.6289 27.5H24.1189C22.9752 27.4732 21.8753 27.0551 21.0027 26.3153C20.13 25.5755 19.5375 24.5589 19.3239 23.435L19.2789 23.185L19.0764 21.96C19.0164 21.6025 18.9864 21.4225 18.9514 21.375C18.9282 21.343 18.8978 21.3169 18.8626 21.299C18.8274 21.281 18.7884 21.2716 18.7489 21.2716C18.7093 21.2716 18.6704 21.281 18.6352 21.299C18.6 21.3169 18.5695 21.343 18.5464 21.375C18.5114 21.4225 18.4814 21.6 18.4214 21.9625C18.2089 23.2475 18.1014 23.8875 17.8789 24.42C17.5744 25.1525 17.1 25.8021 16.4949 26.315C15.8898 26.828 15.1714 27.1896 14.3989 27.37C13.8389 27.5 13.1739 27.5 11.8389 27.5C10.8164 27.5 10.3064 27.5 9.93137 27.3775C9.45627 27.2239 9.03805 26.9315 8.73061 26.5381C8.42316 26.1446 8.24058 25.6681 8.20637 25.17C8.18137 24.775 8.30137 24.2925 8.54387 23.3225L11.5514 11.2875Z" stroke="#1A1F40" stroke-width="1.6"/>
</svg>
