<svg width="60" height="60" viewBox="0 0 60 60" fill="none" xmlns="http://www.w3.org/2000/svg">
<path d="M27.5 32.5V37.5H22.5V32.5H27.5Z" fill="#1A1F40"/>
<path fill-rule="evenodd" clip-rule="evenodd" d="M16.2002 10C15.4507 10.0001 14.7109 10.1686 14.0354 10.4932C13.3599 10.8177 12.766 11.29 12.2977 11.875L4.67266 21.4075C2.70766 23.8625 4.45766 27.5 7.60016 27.5H10.0002V45C10.0002 46.3261 10.5269 47.5979 11.4646 48.5355C12.4023 49.4732 13.6741 50 15.0002 50H35.0002C36.3262 50 37.598 49.4732 38.5357 48.5355C39.4734 47.5979 40.0002 46.3261 40.0002 45V27.5H45.0002V47.5C45.0002 48.163 45.2635 48.7989 45.7324 49.2678C46.2012 49.7366 46.8371 50 47.5002 50C48.1632 50 48.7991 49.7366 49.2679 49.2678C49.7368 48.7989 50.0002 48.163 50.0002 47.5V27.5H52.4002C55.5452 27.5 57.2927 23.8625 55.3277 21.4075L47.7027 11.8775C47.2345 11.292 46.6407 10.8193 45.9652 10.4943C45.2897 10.1693 44.5498 10.0004 43.8002 10H16.2002ZM20.0002 27.5C19.3371 27.5 18.7012 27.7634 18.2324 28.2322C17.7635 28.7011 17.5002 29.337 17.5002 30V40C17.5002 40.663 17.7635 41.2989 18.2324 41.7678C18.7012 42.2366 19.3371 42.5 20.0002 42.5H30.0002C30.6632 42.5 31.2991 42.2366 31.7679 41.7678C32.2368 41.2989 32.5002 40.663 32.5002 40V30C32.5002 29.337 32.2368 28.7011 31.7679 28.2322C31.2991 27.7634 30.6632 27.5 30.0002 27.5H20.0002Z" fill="#1A1F40"/>
</svg>
