<svg width="60" height="60" viewBox="0 0 60 60" fill="none" xmlns="http://www.w3.org/2000/svg">
<path d="M30 5C26.6848 5 23.5054 6.31696 21.1612 8.66117C18.817 11.0054 17.5 14.1848 17.5 17.5C17.5 20.8152 18.817 23.9946 21.1612 26.3388C23.5054 28.683 26.6848 30 30 30C33.3152 30 36.4946 28.683 38.8388 26.3388C41.183 23.9946 42.5 20.8152 42.5 17.5C42.5 14.1848 41.183 11.0054 38.8388 8.66117C36.4946 6.31696 33.3152 5 30 5ZM10 55H50C51.375 55 52.5 53.875 52.5 52.5V50C52.5 40.35 44.65 32.5 35 32.5H25C15.35 32.5 7.5 40.35 7.5 50V52.5C7.5 53.875 8.625 55 10 55Z" fill="#1A1F40"/>
</svg>
